<svg width="282" height="54" viewBox="0 0 282 54" fill="none" xmlns="http://www.w3.org/2000/svg">
<rect y="0.962402" width="282" height="52.9778" rx="5.80518" fill="#141414"/>
<path d="M96.3315 37.4975C95.63 37.4614 94.9699 37.1716 94.4874 36.6877C93.9102 36.1615 93.3951 35.5774 92.9512 34.9456C92.2579 34.0048 91.7098 32.975 91.3236 31.8875C90.8865 30.7174 90.6566 29.4869 90.6431 28.2458C90.6091 27.028 90.9274 25.8245 91.5634 24.7658C92.0293 24.0027 92.6937 23.3654 93.4934 22.9148C94.2842 22.4662 95.1867 22.2247 96.1084 22.2151C96.8032 22.254 97.486 22.4045 98.1276 22.6601C98.6396 22.8736 99.1774 23.0237 99.7296 23.1062C100.339 22.9853 100.934 22.8082 101.507 22.5776C102.185 22.3268 102.902 22.1864 103.63 22.1622C103.727 22.1622 103.823 22.1622 103.915 22.1728C105.511 22.2161 106.994 22.9582 107.931 24.1812C107.2 24.5519 106.591 25.1075 106.173 25.7862C105.755 26.4649 105.544 27.2402 105.563 28.0259C105.556 28.6267 105.683 29.2221 105.936 29.7729C106.189 30.3237 106.563 30.8174 107.032 31.2215C107.459 31.6071 107.957 31.9162 108.5 32.1338C108.389 32.4509 108.26 32.7574 108.124 33.0661C107.815 33.7482 107.434 34.3988 106.986 35.008C106.563 35.6182 106.071 36.1826 105.517 36.6909C105.013 37.1654 104.34 37.4453 103.63 37.4763C103.028 37.451 102.436 37.3172 101.887 37.082C101.295 36.8376 100.659 36.7037 100.013 36.6877C99.349 36.7001 98.6938 36.8333 98.083 37.0799C97.5553 37.3055 96.9916 37.4459 96.4151 37.4953L96.3315 37.4975ZM99.8456 22.1622C99.7619 22.1622 99.6783 22.1622 99.5946 22.1527C99.577 22.0269 99.5677 21.9001 99.5667 21.7732C99.6032 20.7173 100.039 19.7089 100.794 18.9317C101.216 18.485 101.728 18.1225 102.3 17.8651C102.833 17.6052 103.415 17.4489 104.012 17.4053C104.029 17.5438 104.029 17.6791 104.029 17.808C104.013 18.8473 103.601 19.8461 102.869 20.6199C102.514 21.0705 102.06 21.442 101.538 21.7084C101.015 21.9749 100.438 22.1298 99.8456 22.1622Z" fill="#F3FBFD"/>
<path d="M119.273 23.9512V16.4316H121.153C122.314 16.4316 123.197 16.7564 123.801 17.4059C124.404 18.0479 124.706 18.9649 124.706 20.157C124.706 21.3568 124.404 22.2891 123.801 22.9539C123.205 23.6188 122.337 23.9512 121.199 23.9512H119.273ZM120.224 23.1717H121.084C121.963 23.1717 122.62 22.9081 123.056 22.3808C123.499 21.8458 123.72 21.1046 123.72 20.157C123.72 19.2094 123.499 18.4834 123.056 17.9791C122.62 17.4671 121.963 17.2111 121.084 17.2111H120.224V23.1717ZM128.4 24.0887C127.949 24.0887 127.525 23.9741 127.128 23.7448C126.738 23.5156 126.421 23.1832 126.176 22.7476C125.939 22.312 125.821 21.7885 125.821 21.1772C125.821 20.5506 125.939 20.0194 126.176 19.5839C126.421 19.1483 126.738 18.8159 127.128 18.5866C127.525 18.3573 127.949 18.2427 128.4 18.2427C128.858 18.2427 129.283 18.3573 129.672 18.5866C130.062 18.8159 130.375 19.1483 130.612 19.5839C130.857 20.0194 130.979 20.5506 130.979 21.1772C130.979 21.7885 130.857 22.312 130.612 22.7476C130.375 23.1832 130.062 23.5156 129.672 23.7448C129.283 23.9741 128.858 24.0887 128.4 24.0887ZM128.4 23.3093C128.881 23.3093 129.267 23.1144 129.558 22.7247C129.856 22.3273 130.005 21.8115 130.005 21.1772C130.005 20.5353 129.856 20.0156 129.558 19.6183C129.267 19.2209 128.881 19.0222 128.4 19.0222C127.926 19.0222 127.54 19.2209 127.242 19.6183C126.944 20.0156 126.795 20.5353 126.795 21.1772C126.795 21.8115 126.944 22.3273 127.242 22.7247C127.54 23.1144 127.926 23.3093 128.4 23.3093ZM133.284 23.9512L131.737 18.3803H132.699L133.525 21.6013C133.586 21.8611 133.643 22.121 133.697 22.3808C133.75 22.633 133.804 22.889 133.857 23.1488H133.903C133.964 22.889 134.025 22.633 134.086 22.3808C134.148 22.121 134.212 21.8611 134.281 21.6013L135.141 18.3803H136.058L136.929 21.6013C136.998 21.8611 137.063 22.121 137.124 22.3808C137.193 22.633 137.258 22.889 137.319 23.1488H137.365C137.426 22.889 137.483 22.633 137.537 22.3808C137.598 22.121 137.655 21.8611 137.709 21.6013L138.522 18.3803H139.417L137.926 23.9512H136.78L135.978 20.9594C135.909 20.6919 135.844 20.4283 135.783 20.1685C135.729 19.9086 135.668 19.6374 135.599 19.3546H135.554C135.493 19.6374 135.431 19.9125 135.37 20.1799C135.309 20.4397 135.24 20.7034 135.164 20.9709L134.384 23.9512H133.284ZM140.629 23.9512V18.3803H141.409L141.489 19.1827H141.523C141.791 18.9152 142.073 18.6936 142.371 18.5178C142.669 18.3344 143.009 18.2427 143.392 18.2427C143.98 18.2427 144.408 18.4299 144.675 18.8044C144.95 19.1712 145.088 19.71 145.088 20.4206V23.9512H144.148V20.5467C144.148 20.0271 144.064 19.6488 143.896 19.4119C143.728 19.175 143.46 19.0566 143.094 19.0566C142.811 19.0566 142.555 19.1292 142.326 19.2744C142.104 19.4196 141.852 19.6335 141.569 19.9163V23.9512H140.629ZM147.895 24.0887C147.543 24.0887 147.287 23.9817 147.127 23.7678C146.974 23.5462 146.898 23.2328 146.898 22.8278V15.7897H147.838V22.8966C147.838 23.0418 147.864 23.1488 147.918 23.2176C147.971 23.2787 148.033 23.3093 148.101 23.3093C148.132 23.3093 148.159 23.3093 148.182 23.3093C148.212 23.3016 148.254 23.294 148.308 23.2863L148.434 23.997C148.373 24.0276 148.3 24.0505 148.216 24.0658C148.132 24.0811 148.025 24.0887 147.895 24.0887ZM151.986 24.0887C151.535 24.0887 151.111 23.9741 150.713 23.7448C150.324 23.5156 150.007 23.1832 149.762 22.7476C149.525 22.312 149.407 21.7885 149.407 21.1772C149.407 20.5506 149.525 20.0194 149.762 19.5839C150.007 19.1483 150.324 18.8159 150.713 18.5866C151.111 18.3573 151.535 18.2427 151.986 18.2427C152.444 18.2427 152.868 18.3573 153.258 18.5866C153.648 18.8159 153.961 19.1483 154.198 19.5839C154.443 20.0194 154.565 20.5506 154.565 21.1772C154.565 21.7885 154.443 22.312 154.198 22.7476C153.961 23.1832 153.648 23.5156 153.258 23.7448C152.868 23.9741 152.444 24.0887 151.986 24.0887ZM151.986 23.3093C152.467 23.3093 152.853 23.1144 153.144 22.7247C153.442 22.3273 153.591 21.8115 153.591 21.1772C153.591 20.5353 153.442 20.0156 153.144 19.6183C152.853 19.2209 152.467 19.0222 151.986 19.0222C151.512 19.0222 151.126 19.2209 150.828 19.6183C150.53 20.0156 150.381 20.5353 150.381 21.1772C150.381 21.8115 150.53 22.3273 150.828 22.7247C151.126 23.1144 151.512 23.3093 151.986 23.3093ZM157.159 24.0887C156.693 24.0887 156.303 23.9512 155.99 23.6761C155.684 23.3933 155.532 23.0036 155.532 22.5069C155.532 21.8955 155.803 21.4294 156.345 21.1084C156.896 20.7798 157.763 20.5506 158.947 20.4206C158.947 20.1837 158.913 19.9583 158.844 19.7443C158.783 19.5304 158.668 19.3584 158.5 19.2285C158.34 19.091 158.107 19.0222 157.801 19.0222C157.48 19.0222 157.178 19.0833 156.896 19.2056C156.613 19.3279 156.361 19.4654 156.139 19.6183L155.772 18.9649C156.032 18.7968 156.349 18.6363 156.724 18.4834C157.106 18.323 157.518 18.2427 157.962 18.2427C158.642 18.2427 159.135 18.4529 159.44 18.8732C159.746 19.2858 159.899 19.8399 159.899 20.5353V23.9512H159.119L159.039 23.2863H159.005C158.745 23.5003 158.458 23.6875 158.145 23.848C157.839 24.0085 157.511 24.0887 157.159 24.0887ZM157.434 23.3322C157.702 23.3322 157.954 23.2672 158.191 23.1373C158.428 23.0074 158.68 22.824 158.947 22.5871V21.0396C158.023 21.1543 157.373 21.3262 156.999 21.5555C156.632 21.7847 156.449 22.0789 156.449 22.4381C156.449 22.7514 156.544 22.9807 156.735 23.1259C156.926 23.2634 157.159 23.3322 157.434 23.3322ZM163.554 24.0887C162.859 24.0887 162.301 23.8365 161.881 23.3322C161.46 22.8202 161.25 22.1018 161.25 21.1772C161.25 20.5735 161.361 20.0538 161.583 19.6183C161.812 19.175 162.11 18.835 162.477 18.5981C162.851 18.3612 163.249 18.2427 163.669 18.2427C163.99 18.2427 164.269 18.3 164.506 18.4147C164.743 18.5293 164.983 18.6859 165.228 18.8846L165.182 17.9332V15.7897H166.133V23.9512H165.354L165.274 23.2978H165.239C165.025 23.5118 164.773 23.699 164.483 23.8595C164.192 24.0123 163.883 24.0887 163.554 24.0887ZM163.761 23.2978C164.25 23.2978 164.724 23.0418 165.182 22.5298V19.6183C164.945 19.4043 164.716 19.2553 164.494 19.1712C164.28 19.0795 164.059 19.0337 163.829 19.0337C163.531 19.0337 163.26 19.1254 163.016 19.3088C162.779 19.4845 162.588 19.7329 162.442 20.0538C162.297 20.3672 162.225 20.7378 162.225 21.1657C162.225 21.8306 162.358 22.354 162.626 22.7361C162.893 23.1106 163.272 23.2978 163.761 23.2978ZM172.471 24.0887C172.02 24.0887 171.596 23.9741 171.199 23.7448C170.809 23.5156 170.492 23.1832 170.247 22.7476C170.01 22.312 169.892 21.7885 169.892 21.1772C169.892 20.5506 170.01 20.0194 170.247 19.5839C170.492 19.1483 170.809 18.8159 171.199 18.5866C171.596 18.3573 172.02 18.2427 172.471 18.2427C172.93 18.2427 173.354 18.3573 173.743 18.5866C174.133 18.8159 174.446 19.1483 174.683 19.5839C174.928 20.0194 175.05 20.5506 175.05 21.1772C175.05 21.7885 174.928 22.312 174.683 22.7476C174.446 23.1832 174.133 23.5156 173.743 23.7448C173.354 23.9741 172.93 24.0887 172.471 24.0887ZM172.471 23.3093C172.952 23.3093 173.338 23.1144 173.629 22.7247C173.927 22.3273 174.076 21.8115 174.076 21.1772C174.076 20.5353 173.927 20.0156 173.629 19.6183C173.338 19.2209 172.952 19.0222 172.471 19.0222C171.997 19.0222 171.611 19.2209 171.313 19.6183C171.015 20.0156 170.866 20.5353 170.866 21.1772C170.866 21.8115 171.015 22.3273 171.313 22.7247C171.611 23.1144 171.997 23.3093 172.471 23.3093ZM176.517 23.9512V18.3803H177.297L177.377 19.1827H177.411C177.679 18.9152 177.962 18.6936 178.26 18.5178C178.558 18.3344 178.898 18.2427 179.28 18.2427C179.868 18.2427 180.296 18.4299 180.564 18.8044C180.839 19.1712 180.976 19.71 180.976 20.4206V23.9512H180.036V20.5467C180.036 20.0271 179.952 19.6488 179.784 19.4119C179.616 19.175 179.349 19.0566 178.982 19.0566C178.699 19.0566 178.443 19.1292 178.214 19.2744C177.992 19.4196 177.74 19.6335 177.457 19.9163V23.9512H176.517ZM121.706 33.9796L121.465 34.8835H123.559L123.333 33.9796C123.203 33.4875 123.067 32.9652 122.927 32.4128C122.796 31.8604 122.665 31.3281 122.535 30.8159H122.475C122.354 31.3382 122.229 31.8755 122.098 32.4279C121.977 32.9702 121.847 33.4875 121.706 33.9796ZM118.151 38.9512L121.224 29.1286H123.891L126.964 38.9512H124.614L124.011 36.616H121.013L120.411 38.9512H118.151ZM127.857 41.7232V31.4788H129.664L129.815 32.217H129.875C130.167 31.9558 130.493 31.7399 130.855 31.5692C131.226 31.3884 131.608 31.298 132 31.298C132.903 31.298 133.617 31.6445 134.139 32.3375C134.661 33.0205 134.922 33.9394 134.922 35.0944C134.922 35.9481 134.772 36.6763 134.47 37.2789C134.169 37.8815 133.777 38.3435 133.295 38.6649C132.823 38.9763 132.316 39.132 131.774 39.132C131.452 39.132 131.141 39.0667 130.839 38.9361C130.538 38.7955 130.257 38.5996 129.996 38.3486L130.071 39.5387V41.7232H127.857ZM131.261 37.3241C131.643 37.3241 131.969 37.1484 132.241 36.7968C132.512 36.4453 132.647 35.8879 132.647 35.1246C132.647 33.7787 132.215 33.1058 131.352 33.1058C130.92 33.1058 130.493 33.3318 130.071 33.7838V36.842C130.272 37.0228 130.473 37.1484 130.674 37.2187C130.875 37.289 131.07 37.3241 131.261 37.3241ZM136.493 41.7232V31.4788H138.3L138.451 32.217H138.511C138.803 31.9558 139.129 31.7399 139.491 31.5692C139.862 31.3884 140.244 31.298 140.636 31.298C141.54 31.298 142.253 31.6445 142.775 32.3375C143.297 33.0205 143.558 33.9394 143.558 35.0944C143.558 35.9481 143.408 36.6763 143.106 37.2789C142.805 37.8815 142.413 38.3435 141.931 38.6649C141.459 38.9763 140.952 39.132 140.41 39.132C140.088 39.132 139.777 39.0667 139.476 38.9361C139.174 38.7955 138.893 38.5996 138.632 38.3486L138.707 39.5387V41.7232H136.493ZM139.897 37.3241C140.279 37.3241 140.605 37.1484 140.877 36.7968C141.148 36.4453 141.283 35.8879 141.283 35.1246C141.283 33.7787 140.852 33.1058 139.988 33.1058C139.556 33.1058 139.129 33.3318 138.707 33.7838V36.842C138.908 37.0228 139.109 37.1484 139.31 37.2187C139.511 37.289 139.707 37.3241 139.897 37.3241ZM151.323 39.132C150.681 39.132 150.038 39.0114 149.395 38.7704C148.762 38.5293 148.195 38.1778 147.693 37.7158L148.958 36.1942C149.31 36.4955 149.701 36.7416 150.133 36.9324C150.565 37.1232 150.982 37.2187 151.384 37.2187C151.846 37.2187 152.187 37.1333 152.408 36.9625C152.639 36.7918 152.755 36.5608 152.755 36.2695C152.755 35.9582 152.624 35.7322 152.363 35.5916C152.112 35.441 151.77 35.2752 151.339 35.0944L150.058 34.5521C149.727 34.4115 149.41 34.2257 149.109 33.9947C148.808 33.7536 148.562 33.4573 148.371 33.1058C148.18 32.7543 148.084 32.3425 148.084 31.8705C148.084 31.3281 148.23 30.836 148.521 30.3941C148.823 29.9521 149.234 29.6006 149.757 29.3395C150.289 29.0784 150.897 28.9478 151.58 28.9478C152.142 28.9478 152.704 29.0583 153.267 29.2792C153.829 29.5002 154.321 29.8216 154.743 30.2434L153.613 31.6445C153.292 31.3934 152.971 31.2026 152.649 31.072C152.328 30.9314 151.971 30.8611 151.58 30.8611C151.198 30.8611 150.892 30.9414 150.661 31.1021C150.44 31.2528 150.329 31.4687 150.329 31.7499C150.329 32.0513 150.47 32.2772 150.751 32.4279C151.042 32.5785 151.399 32.7392 151.821 32.91L153.086 33.4222C153.679 33.6632 154.151 33.9947 154.502 34.4165C154.854 34.8383 155.03 35.3958 155.03 36.0888C155.03 36.6311 154.884 37.1333 154.593 37.5953C154.301 38.0573 153.88 38.4289 153.327 38.7101C152.775 38.9913 152.107 39.132 151.323 39.132ZM158.967 39.132C158.043 39.132 157.38 38.8658 156.978 38.3335C156.586 37.8012 156.391 37.1032 156.391 36.2394V33.2113H155.366V31.5692L156.511 31.4788L156.767 29.4901H158.605V31.4788H160.398V33.2113H158.605V36.2093C158.605 36.6311 158.691 36.9374 158.861 37.1283C159.042 37.3091 159.278 37.3994 159.569 37.3994C159.69 37.3994 159.81 37.3844 159.931 37.3542C160.062 37.3241 160.177 37.289 160.277 37.2488L160.624 38.8608C160.433 38.921 160.197 38.9813 159.916 39.0416C159.645 39.1018 159.328 39.132 158.967 39.132ZM164.801 39.132C164.168 39.132 163.57 38.9813 163.008 38.68C162.455 38.3686 162.008 37.9217 161.667 37.3392C161.326 36.7466 161.155 36.0385 161.155 35.215C161.155 34.3814 161.326 33.6733 161.667 33.0908C162.008 32.5082 162.455 32.0663 163.008 31.765C163.57 31.4537 164.168 31.298 164.801 31.298C165.433 31.298 166.026 31.4537 166.578 31.765C167.131 32.0663 167.578 32.5082 167.919 33.0908C168.261 33.6733 168.431 34.3814 168.431 35.215C168.431 36.0385 168.261 36.7466 167.919 37.3392C167.578 37.9217 167.131 38.3686 166.578 38.68C166.026 38.9813 165.433 39.132 164.801 39.132ZM164.801 37.3392C165.253 37.3392 165.594 37.1484 165.825 36.7667C166.056 36.375 166.172 35.8578 166.172 35.215C166.172 34.5621 166.056 34.0449 165.825 33.6632C165.594 33.2816 165.253 33.0908 164.801 33.0908C164.339 33.0908 163.992 33.2816 163.761 33.6632C163.54 34.0449 163.43 34.5621 163.43 35.215C163.43 35.8578 163.54 36.375 163.761 36.7667C163.992 37.1484 164.339 37.3392 164.801 37.3392ZM169.948 38.9512V31.4788H171.756L171.907 32.7895H171.967C172.238 32.2873 172.565 31.9157 172.946 31.6746C173.328 31.4235 173.71 31.298 174.091 31.298C174.302 31.298 174.478 31.3131 174.618 31.3432C174.759 31.3633 174.88 31.3984 174.98 31.4486L174.618 33.3619C174.488 33.3218 174.357 33.2916 174.227 33.2715C174.106 33.2515 173.966 33.2414 173.805 33.2414C173.524 33.2414 173.227 33.3469 172.916 33.5578C172.615 33.7587 172.364 34.1102 172.163 34.6124V38.9512H169.948ZM179.148 39.132C178.435 39.132 177.792 38.9763 177.22 38.6649C176.647 38.3536 176.195 37.9066 175.864 37.3241C175.533 36.7416 175.367 36.0385 175.367 35.215C175.367 34.4014 175.533 33.7034 175.864 33.1209C176.205 32.5384 176.647 32.0914 177.19 31.7801C177.732 31.4587 178.3 31.298 178.892 31.298C179.605 31.298 180.193 31.4587 180.655 31.7801C181.127 32.0914 181.478 32.5183 181.709 33.0606C181.95 33.5929 182.071 34.2006 182.071 34.8835C182.071 35.0744 182.061 35.2652 182.041 35.456C182.021 35.6368 182.001 35.7724 181.98 35.8628H177.506C177.607 36.4051 177.833 36.8069 178.184 37.068C178.536 37.3191 178.957 37.4446 179.45 37.4446C179.982 37.4446 180.519 37.2789 181.062 36.9475L181.8 38.2883C181.418 38.5494 180.991 38.7553 180.519 38.906C180.047 39.0566 179.59 39.132 179.148 39.132ZM177.491 34.4014H180.188C180.188 33.9897 180.087 33.6532 179.886 33.3921C179.696 33.1209 179.379 32.9853 178.937 32.9853C178.596 32.9853 178.289 33.1058 178.018 33.3469C177.747 33.5779 177.571 33.9294 177.491 34.4014Z" fill="#F3FBFD"/>
</svg>
