<?xml version="1.0" encoding="UTF-8"?>
<svg xmlns="http://www.w3.org/2000/svg" xmlns:xlink="http://www.w3.org/1999/xlink" width="141px" height="54px" viewBox="0 0 140 54" version="1.1">
<defs>
<clipPath id="clip1">
  <path d="M 18.140625 16.414062 L 30 16.414062 L 30 37.640625 L 18.140625 37.640625 Z M 18.140625 16.414062 "/>
</clipPath>
<linearGradient id="linear0" gradientUnits="userSpaceOnUse" x1="39.4764" y1="24.179" x2="16.4619" y2="30.4917" gradientTransform="matrix(0.725389,0,0,0.72973,0,0)">
<stop offset="0" style="stop-color:rgb(0%,63.137255%,100%);stop-opacity:1;"/>
<stop offset="0.26" style="stop-color:rgb(0%,74.509804%,100%);stop-opacity:1;"/>
<stop offset="0.51" style="stop-color:rgb(0%,82.352941%,100%);stop-opacity:1;"/>
<stop offset="0.76" style="stop-color:rgb(0%,87.45098%,100%);stop-opacity:1;"/>
<stop offset="1" style="stop-color:rgb(0%,89.019608%,100%);stop-opacity:1;"/>
</linearGradient>
<clipPath id="clip2">
  <path d="M 29 23 L 37.617188 23 L 37.617188 31 L 29 31 Z M 29 23 "/>
</clipPath>
<linearGradient id="linear1" gradientUnits="userSpaceOnUse" x1="52.8391" y1="36.8456" x2="24.6917" y2="36.8456" gradientTransform="matrix(0.725389,0,0,0.72973,0,0)">
<stop offset="0" style="stop-color:rgb(100%,87.843137%,0%);stop-opacity:1;"/>
<stop offset="0.41" style="stop-color:rgb(100%,74.117647%,0%);stop-opacity:1;"/>
<stop offset="0.78" style="stop-color:rgb(100%,64.705882%,0%);stop-opacity:1;"/>
<stop offset="1" style="stop-color:rgb(100%,61.176471%,0%);stop-opacity:1;"/>
</linearGradient>
<clipPath id="clip3">
  <path d="M 18.140625 27 L 33 27 L 33 37.640625 L 18.140625 37.640625 Z M 18.140625 27 "/>
</clipPath>
<linearGradient id="linear2" gradientUnits="userSpaceOnUse" x1="41.4295" y1="39.5057" x2="23.6302" y2="70.2627" gradientTransform="matrix(0.725389,0,0,0.72973,0,0)">
<stop offset="0" style="stop-color:rgb(100%,22.745098%,26.666667%);stop-opacity:1;"/>
<stop offset="1" style="stop-color:rgb(76.470588%,6.666667%,38.431373%);stop-opacity:1;"/>
</linearGradient>
<clipPath id="clip4">
  <path d="M 18.140625 16.414062 L 33 16.414062 L 33 28 L 18.140625 28 Z M 18.140625 16.414062 "/>
</clipPath>
<linearGradient id="linear3" gradientUnits="userSpaceOnUse" x1="21.0599" y1="14.3858" x2="29.0067" y2="28.1258" gradientTransform="matrix(0.725389,0,0,0.72973,0,0)">
<stop offset="0" style="stop-color:rgb(19.607843%,62.745098%,44.313725%);stop-opacity:1;"/>
<stop offset="0.07" style="stop-color:rgb(17.647059%,65.490196%,44.313725%);stop-opacity:1;"/>
<stop offset="0.48" style="stop-color:rgb(8.235294%,81.176471%,45.490196%);stop-opacity:1;"/>
<stop offset="0.8" style="stop-color:rgb(2.352941%,90.588235%,45.882353%);stop-opacity:1;"/>
<stop offset="1" style="stop-color:rgb(0%,94.117647%,46.27451%);stop-opacity:1;"/>
</linearGradient>
<clipPath id="clip5">
  <path d="M 18.140625 16.414062 L 37.617188 16.414062 L 37.617188 37.640625 L 18.140625 37.640625 Z M 18.140625 16.414062 "/>
</clipPath>
<filter id="alpha" filterUnits="objectBoundingBox" x="0%" y="0%" width="100%" height="100%">
  <feColorMatrix type="matrix" in="SourceGraphic" values="0 0 0 0 1 0 0 0 0 1 0 0 0 0 1 0 0 0 1 0"/>
</filter>
<mask id="mask0">
  <g filter="url(#alpha)">
<rect x="0" y="0" width="140" height="54" style="fill:rgb(0%,0%,0%);fill-opacity:0.2;stroke:none;"/>
  </g>
</mask>
<clipPath id="clip6">
  <rect x="0" y="0" width="140" height="54"/>
</clipPath>
<g id="surface5" clip-path="url(#clip6)">
<path style=" stroke:none;fill-rule:evenodd;fill:rgb(20.392157%,9.411765%,84.705882%);fill-opacity:1;" d="M 32.53125 30.4375 L 20.289062 37.238281 C 19.605469 37.625 18.996094 37.597656 18.601562 37.25 L 18.535156 37.3125 L 18.601562 37.367188 C 18.996094 37.714844 19.605469 37.742188 20.289062 37.359375 L 32.617188 30.511719 Z M 32.53125 30.4375 "/>
</g>
<mask id="mask1">
  <g filter="url(#alpha)">
<rect x="0" y="0" width="140" height="54" style="fill:rgb(0%,0%,0%);fill-opacity:0.121569;stroke:none;"/>
  </g>
</mask>
<clipPath id="clip7">
  <rect x="0" y="0" width="140" height="54"/>
</clipPath>
<g id="surface8" clip-path="url(#clip7)">
<path style=" stroke:none;fill-rule:evenodd;fill:rgb(20.392157%,9.411765%,84.705882%);fill-opacity:1;" d="M 36.730469 28.101562 L 32.519531 30.4375 L 32.597656 30.511719 L 36.722656 28.21875 C 37.3125 27.890625 37.601562 27.457031 37.601562 27.027344 C 37.566406 27.421875 37.265625 27.796875 36.730469 28.097656 Z M 36.730469 28.101562 "/>
</g>
<mask id="mask2">
  <g filter="url(#alpha)">
<rect x="0" y="0" width="140" height="54" style="fill:rgb(0%,0%,0%);fill-opacity:0.25098;stroke:none;"/>
  </g>
</mask>
<clipPath id="clip8">
  <rect x="0" y="0" width="140" height="54"/>
</clipPath>
<g id="surface11" clip-path="url(#clip8)">
<path style=" stroke:none;fill-rule:evenodd;fill:rgb(100%,100%,100%);fill-opacity:1;" d="M 20.28125 16.8125 L 36.730469 25.953125 C 37.265625 26.25 37.566406 26.632812 37.613281 27.027344 C 37.613281 26.597656 37.324219 26.164062 36.730469 25.835938 L 20.28125 16.695312 C 19.097656 16.035156 18.140625 16.585938 18.140625 17.90625 L 18.140625 18.023438 C 18.140625 16.703125 19.097656 16.164062 20.28125 16.8125 Z M 20.28125 16.8125 "/>
</g>
</defs>
<g id="surface1">
<path style=" stroke:none;fill-rule:nonzero;fill:rgb(7.843137%,7.843137%,7.843137%);fill-opacity:1;" d="M 6.09375 0.101562 L 134.085938 0.101562 C 137.289062 0.101562 139.886719 2.714844 139.886719 5.9375 L 139.886719 48.117188 C 139.886719 51.339844 137.289062 53.953125 134.085938 53.953125 L 6.09375 53.953125 C 2.886719 53.953125 0.289062 51.339844 0.289062 48.117188 L 0.289062 5.9375 C 0.289062 2.714844 2.886719 0.101562 6.09375 0.101562 Z M 6.09375 0.101562 "/>
<g clip-path="url(#clip1)" clip-rule="nonzero">
<path style=" stroke:none;fill-rule:evenodd;fill:url(#linear0);" d="M 18.527344 16.742188 C 18.28125 16.996094 18.140625 17.390625 18.140625 17.90625 L 18.140625 36.148438 C 18.140625 36.660156 18.28125 37.054688 18.535156 37.304688 L 18.601562 37.359375 L 29.054688 27.136719 L 29.054688 26.90625 L 18.59375 16.6875 Z M 18.527344 16.742188 "/>
</g>
<g clip-path="url(#clip2)" clip-rule="nonzero">
<path style=" stroke:none;fill-rule:evenodd;fill:url(#linear1);" d="M 32.53125 30.554688 L 29.046875 27.144531 L 29.046875 26.90625 L 32.535156 23.496094 L 32.609375 23.542969 L 36.734375 25.835938 C 37.914062 26.484375 37.914062 27.558594 36.734375 28.21875 L 32.609375 30.511719 L 32.53125 30.558594 Z M 32.53125 30.554688 "/>
</g>
<g clip-path="url(#clip3)" clip-rule="nonzero">
<path style=" stroke:none;fill-rule:evenodd;fill:url(#linear2);" d="M 32.605469 30.511719 L 29.042969 27.027344 L 18.527344 37.3125 C 18.910156 37.71875 19.554688 37.761719 20.277344 37.367188 Z M 32.605469 30.511719 "/>
</g>
<g clip-path="url(#clip4)" clip-rule="nonzero">
<path style=" stroke:none;fill-rule:evenodd;fill:url(#linear3);" d="M 32.605469 23.542969 L 20.277344 16.695312 C 19.558594 16.292969 18.910156 16.347656 18.527344 16.75 L 29.042969 27.027344 Z M 32.605469 23.542969 "/>
</g>
<g clip-path="url(#clip5)" clip-rule="nonzero">
<use xlink:href="#surface5" mask="url(#mask0)"/>
<use xlink:href="#surface8" mask="url(#mask1)"/>
<use xlink:href="#surface11" mask="url(#mask2)"/>
</g>
<path style=" stroke:none;fill-rule:nonzero;fill:rgb(95.294118%,98.431373%,99.215686%);fill-opacity:1;" d="M 46.765625 23.378906 L 46.765625 15.816406 L 48.644531 15.816406 C 49.804688 15.816406 50.6875 16.144531 51.292969 16.796875 C 51.894531 17.441406 52.195312 18.363281 52.195312 19.5625 C 52.195312 20.769531 51.894531 21.707031 51.292969 22.375 C 50.695312 23.042969 49.828125 23.378906 48.691406 23.378906 Z M 47.714844 22.59375 L 48.574219 22.59375 C 49.453125 22.59375 50.113281 22.332031 50.546875 21.800781 C 50.988281 21.261719 51.210938 20.515625 51.210938 19.5625 C 51.210938 18.609375 50.988281 17.878906 50.546875 17.375 C 50.113281 16.859375 49.453125 16.601562 48.574219 16.601562 L 47.714844 16.601562 Z M 55.890625 23.515625 C 55.4375 23.515625 55.015625 23.402344 54.617188 23.171875 C 54.226562 22.941406 53.910156 22.605469 53.667969 22.167969 C 53.429688 21.730469 53.3125 21.203125 53.3125 20.589844 C 53.3125 19.960938 53.429688 19.425781 53.667969 18.988281 C 53.910156 18.550781 54.226562 18.214844 54.617188 17.984375 C 55.015625 17.753906 55.4375 17.636719 55.890625 17.636719 C 56.347656 17.636719 56.773438 17.753906 57.160156 17.984375 C 57.550781 18.214844 57.863281 18.550781 58.101562 18.988281 C 58.34375 19.425781 58.46875 19.960938 58.46875 20.589844 C 58.46875 21.203125 58.34375 21.730469 58.101562 22.167969 C 57.863281 22.605469 57.550781 22.941406 57.160156 23.171875 C 56.773438 23.402344 56.347656 23.515625 55.890625 23.515625 Z M 55.890625 22.734375 C 56.371094 22.734375 56.757812 22.539062 57.046875 22.144531 C 57.34375 21.746094 57.492188 21.226562 57.492188 20.589844 C 57.492188 19.945312 57.34375 19.421875 57.046875 19.023438 C 56.757812 18.621094 56.371094 18.421875 55.890625 18.421875 C 55.414062 18.421875 55.03125 18.621094 54.730469 19.023438 C 54.433594 19.421875 54.285156 19.945312 54.285156 20.589844 C 54.285156 21.226562 54.433594 21.746094 54.730469 22.144531 C 55.03125 22.539062 55.414062 22.734375 55.890625 22.734375 Z M 60.773438 23.378906 L 59.226562 17.777344 L 60.1875 17.777344 L 61.011719 21.015625 C 61.074219 21.277344 61.128906 21.539062 61.183594 21.800781 C 61.238281 22.054688 61.292969 22.3125 61.34375 22.570312 L 61.390625 22.570312 C 61.453125 22.3125 61.511719 22.054688 61.574219 21.800781 C 61.636719 21.539062 61.699219 21.277344 61.769531 21.015625 L 62.628906 17.777344 L 63.542969 17.777344 L 64.414062 21.015625 C 64.484375 21.277344 64.550781 21.539062 64.609375 21.800781 C 64.679688 22.054688 64.742188 22.3125 64.804688 22.570312 L 64.851562 22.570312 C 64.910156 22.3125 64.96875 22.054688 65.023438 21.800781 C 65.082031 21.539062 65.140625 21.277344 65.195312 21.015625 L 66.007812 17.777344 L 66.902344 17.777344 L 65.414062 23.378906 L 64.265625 23.378906 L 63.464844 20.371094 C 63.394531 20.101562 63.332031 19.835938 63.269531 19.574219 C 63.214844 19.3125 63.15625 19.042969 63.085938 18.757812 L 63.039062 18.757812 C 62.980469 19.042969 62.917969 19.316406 62.855469 19.585938 C 62.796875 19.847656 62.726562 20.113281 62.652344 20.382812 L 61.871094 23.378906 Z M 68.113281 23.378906 L 68.113281 17.777344 L 68.894531 17.777344 L 68.972656 18.582031 L 69.007812 18.582031 C 69.273438 18.316406 69.558594 18.09375 69.855469 17.914062 C 70.152344 17.730469 70.492188 17.636719 70.875 17.636719 C 71.464844 17.636719 71.890625 17.828125 72.160156 18.203125 C 72.433594 18.574219 72.570312 19.113281 72.570312 19.828125 L 72.570312 23.378906 L 71.632812 23.378906 L 71.632812 19.957031 C 71.632812 19.433594 71.546875 19.050781 71.378906 18.8125 C 71.210938 18.574219 70.945312 18.457031 70.578125 18.457031 C 70.296875 18.457031 70.039062 18.53125 69.808594 18.675781 C 69.589844 18.820312 69.335938 19.039062 69.054688 19.320312 L 69.054688 23.378906 Z M 75.378906 23.515625 C 75.027344 23.515625 74.769531 23.410156 74.609375 23.195312 C 74.457031 22.972656 74.378906 22.65625 74.378906 22.25 L 74.378906 15.171875 L 75.320312 15.171875 L 75.320312 22.320312 C 75.320312 22.464844 75.347656 22.570312 75.402344 22.640625 C 75.453125 22.703125 75.515625 22.734375 75.582031 22.734375 C 75.613281 22.734375 75.640625 22.734375 75.664062 22.734375 C 75.695312 22.726562 75.738281 22.71875 75.789062 22.710938 L 75.917969 23.425781 C 75.855469 23.457031 75.78125 23.480469 75.699219 23.496094 C 75.613281 23.511719 75.507812 23.515625 75.378906 23.515625 Z M 79.46875 23.515625 C 79.015625 23.515625 78.59375 23.402344 78.195312 23.171875 C 77.804688 22.941406 77.488281 22.605469 77.242188 22.167969 C 77.007812 21.730469 76.886719 21.203125 76.886719 20.589844 C 76.886719 19.960938 77.007812 19.425781 77.242188 18.988281 C 77.488281 18.550781 77.804688 18.214844 78.195312 17.984375 C 78.59375 17.753906 79.015625 17.636719 79.46875 17.636719 C 79.925781 17.636719 80.347656 17.753906 80.738281 17.984375 C 81.128906 18.214844 81.441406 18.550781 81.679688 18.988281 C 81.921875 19.425781 82.046875 19.960938 82.046875 20.589844 C 82.046875 21.203125 81.921875 21.730469 81.679688 22.167969 C 81.441406 22.605469 81.128906 22.941406 80.738281 23.171875 C 80.347656 23.402344 79.925781 23.515625 79.46875 23.515625 Z M 79.46875 22.734375 C 79.949219 22.734375 80.332031 22.539062 80.625 22.144531 C 80.921875 21.746094 81.070312 21.226562 81.070312 20.589844 C 81.070312 19.945312 80.921875 19.421875 80.625 19.023438 C 80.332031 18.621094 79.949219 18.421875 79.46875 18.421875 C 78.992188 18.421875 78.609375 18.621094 78.308594 19.023438 C 78.011719 19.421875 77.863281 19.945312 77.863281 20.589844 C 77.863281 21.226562 78.011719 21.746094 78.308594 22.144531 C 78.609375 22.539062 78.992188 22.734375 79.46875 22.734375 Z M 84.636719 23.515625 C 84.171875 23.515625 83.78125 23.378906 83.46875 23.101562 C 83.164062 22.816406 83.011719 22.425781 83.011719 21.925781 C 83.011719 21.3125 83.28125 20.84375 83.824219 20.519531 C 84.375 20.191406 85.242188 19.960938 86.425781 19.828125 C 86.425781 19.589844 86.390625 19.363281 86.324219 19.148438 C 86.261719 18.933594 86.148438 18.761719 85.980469 18.628906 C 85.820312 18.492188 85.585938 18.421875 85.28125 18.421875 C 84.957031 18.421875 84.65625 18.484375 84.375 18.605469 C 84.09375 18.730469 83.839844 18.867188 83.617188 19.023438 L 83.253906 18.363281 C 83.511719 18.195312 83.828125 18.035156 84.203125 17.878906 C 84.585938 17.71875 84.996094 17.636719 85.441406 17.636719 C 86.121094 17.636719 86.613281 17.851562 86.917969 18.273438 C 87.222656 18.6875 87.375 19.246094 87.375 19.945312 L 87.375 23.378906 L 86.597656 23.378906 L 86.519531 22.710938 L 86.484375 22.710938 C 86.222656 22.925781 85.9375 23.113281 85.625 23.273438 C 85.316406 23.4375 84.988281 23.515625 84.636719 23.515625 Z M 84.914062 22.757812 C 85.179688 22.757812 85.433594 22.691406 85.667969 22.5625 C 85.90625 22.429688 86.160156 22.246094 86.425781 22.007812 L 86.425781 20.453125 C 85.5 20.566406 84.851562 20.738281 84.476562 20.96875 C 84.109375 21.199219 83.929688 21.496094 83.929688 21.859375 C 83.929688 22.171875 84.023438 22.402344 84.214844 22.550781 C 84.40625 22.6875 84.636719 22.757812 84.914062 22.757812 Z M 91.03125 23.515625 C 90.335938 23.515625 89.777344 23.265625 89.359375 22.757812 C 88.9375 22.242188 88.726562 21.519531 88.726562 20.589844 C 88.726562 19.984375 88.839844 19.460938 89.058594 19.023438 C 89.289062 18.574219 89.585938 18.234375 89.953125 17.996094 C 90.328125 17.757812 90.726562 17.636719 91.144531 17.636719 C 91.464844 17.636719 91.746094 17.695312 91.980469 17.8125 C 92.21875 17.925781 92.460938 18.085938 92.703125 18.285156 L 92.660156 17.328125 L 92.660156 15.171875 L 93.609375 15.171875 L 93.609375 23.378906 L 92.832031 23.378906 L 92.75 22.722656 L 92.714844 22.722656 C 92.5 22.9375 92.25 23.125 91.957031 23.285156 C 91.667969 23.441406 91.359375 23.515625 91.03125 23.515625 Z M 91.238281 22.722656 C 91.726562 22.722656 92.199219 22.464844 92.660156 21.949219 L 92.660156 19.023438 C 92.421875 18.808594 92.191406 18.65625 91.96875 18.574219 C 91.757812 18.480469 91.535156 18.433594 91.304688 18.433594 C 91.007812 18.433594 90.738281 18.527344 90.492188 18.710938 C 90.253906 18.886719 90.066406 19.136719 89.917969 19.460938 C 89.773438 19.773438 89.703125 20.148438 89.703125 20.578125 C 89.703125 21.246094 89.835938 21.773438 90.101562 22.15625 C 90.371094 22.535156 90.75 22.722656 91.238281 22.722656 Z M 99.945312 23.515625 C 99.496094 23.515625 99.070312 23.402344 98.671875 23.171875 C 98.28125 22.941406 97.964844 22.605469 97.722656 22.167969 C 97.484375 21.730469 97.367188 21.203125 97.367188 20.589844 C 97.367188 19.960938 97.484375 19.425781 97.722656 18.988281 C 97.964844 18.550781 98.28125 18.214844 98.671875 17.984375 C 99.070312 17.753906 99.496094 17.636719 99.945312 17.636719 C 100.402344 17.636719 100.828125 17.753906 101.214844 17.984375 C 101.605469 18.214844 101.917969 18.550781 102.15625 18.988281 C 102.402344 19.425781 102.523438 19.960938 102.523438 20.589844 C 102.523438 21.203125 102.402344 21.730469 102.15625 22.167969 C 101.917969 22.605469 101.605469 22.941406 101.214844 23.171875 C 100.828125 23.402344 100.402344 23.515625 99.945312 23.515625 Z M 99.945312 22.734375 C 100.425781 22.734375 100.8125 22.539062 101.101562 22.144531 C 101.398438 21.746094 101.546875 21.226562 101.546875 20.589844 C 101.546875 19.945312 101.398438 19.421875 101.101562 19.023438 C 100.8125 18.621094 100.425781 18.421875 99.945312 18.421875 C 99.472656 18.421875 99.085938 18.621094 98.785156 19.023438 C 98.488281 19.421875 98.339844 19.945312 98.339844 20.589844 C 98.339844 21.226562 98.488281 21.746094 98.785156 22.144531 C 99.085938 22.539062 99.472656 22.734375 99.945312 22.734375 Z M 103.988281 23.378906 L 103.988281 17.777344 L 104.769531 17.777344 L 104.847656 18.582031 L 104.882812 18.582031 C 105.152344 18.316406 105.433594 18.09375 105.730469 17.914062 C 106.03125 17.730469 106.367188 17.636719 106.75 17.636719 C 107.339844 17.636719 107.765625 17.828125 108.035156 18.203125 C 108.308594 18.574219 108.445312 19.113281 108.445312 19.828125 L 108.445312 23.378906 L 107.507812 23.378906 L 107.507812 19.957031 C 107.507812 19.433594 107.421875 19.050781 107.253906 18.8125 C 107.085938 18.574219 106.820312 18.457031 106.453125 18.457031 C 106.171875 18.457031 105.914062 18.53125 105.683594 18.675781 C 105.464844 18.820312 105.210938 19.039062 104.929688 19.320312 L 104.929688 23.378906 Z M 46.894531 38.703125 L 46.894531 28.824219 L 50.265625 28.824219 C 50.988281 28.824219 51.644531 28.925781 52.226562 29.128906 C 52.816406 29.320312 53.289062 29.648438 53.640625 30.113281 C 53.992188 30.578125 54.167969 31.210938 54.167969 32.007812 C 54.167969 32.773438 53.992188 33.40625 53.640625 33.902344 C 53.289062 34.394531 52.824219 34.765625 52.238281 35.007812 C 51.65625 35.238281 51.019531 35.355469 50.328125 35.355469 L 49.109375 35.355469 L 49.109375 38.703125 Z M 49.109375 33.582031 L 50.191406 33.582031 C 51.398438 33.582031 52 33.058594 52 32.007812 C 52 31.492188 51.839844 31.128906 51.515625 30.917969 C 51.195312 30.703125 50.734375 30.597656 50.132812 30.597656 L 49.109375 30.597656 Z M 57.71875 38.886719 C 56.953125 38.886719 56.421875 38.65625 56.121094 38.203125 C 55.828125 37.738281 55.683594 37.128906 55.683594 36.371094 L 55.683594 28.082031 L 57.898438 28.082031 L 57.898438 36.460938 C 57.898438 36.695312 57.9375 36.855469 58.019531 36.945312 C 58.109375 37.035156 58.199219 37.082031 58.289062 37.082031 C 58.339844 37.082031 58.378906 37.082031 58.410156 37.082031 C 58.449219 37.074219 58.5 37.0625 58.5625 37.050781 L 58.832031 38.703125 C 58.710938 38.753906 58.554688 38.792969 58.363281 38.824219 C 58.183594 38.863281 57.96875 38.886719 57.71875 38.886719 Z M 61.875 38.886719 C 61.191406 38.886719 60.652344 38.667969 60.25 38.234375 C 59.847656 37.789062 59.648438 37.25 59.648438 36.613281 C 59.648438 35.824219 59.976562 35.207031 60.640625 34.765625 C 61.304688 34.320312 62.371094 34.023438 63.847656 33.871094 C 63.828125 33.539062 63.726562 33.273438 63.546875 33.082031 C 63.378906 32.878906 63.085938 32.78125 62.675781 32.78125 C 62.363281 32.78125 62.046875 32.839844 61.726562 32.960938 C 61.402344 33.082031 61.0625 33.25 60.703125 33.460938 L 59.902344 31.992188 C 60.375 31.699219 60.878906 31.460938 61.410156 31.28125 C 61.953125 31.097656 62.511719 31.007812 63.097656 31.007812 C 64.050781 31.007812 64.78125 31.285156 65.292969 31.839844 C 65.804688 32.394531 66.0625 33.25 66.0625 34.402344 L 66.0625 38.703125 L 64.253906 38.703125 L 64.105469 37.929688 L 64.042969 37.929688 C 63.734375 38.214844 63.398438 38.445312 63.035156 38.628906 C 62.683594 38.800781 62.296875 38.886719 61.875 38.886719 Z M 62.628906 37.15625 C 62.878906 37.15625 63.097656 37.101562 63.277344 36.992188 C 63.46875 36.871094 63.65625 36.714844 63.847656 36.523438 L 63.847656 35.203125 C 63.066406 35.304688 62.523438 35.464844 62.222656 35.6875 C 61.921875 35.902344 61.769531 36.152344 61.769531 36.445312 C 61.769531 36.6875 61.847656 36.871094 61.996094 36.992188 C 62.15625 37.101562 62.367188 37.15625 62.628906 37.15625 Z M 68.761719 41.644531 C 68.542969 41.644531 68.347656 41.628906 68.175781 41.597656 C 68.015625 41.566406 67.859375 41.53125 67.710938 41.492188 L 68.101562 39.792969 C 68.171875 39.804688 68.25 39.820312 68.34375 39.839844 C 68.433594 39.871094 68.519531 39.886719 68.597656 39.886719 C 68.96875 39.886719 69.253906 39.792969 69.457031 39.613281 C 69.65625 39.429688 69.808594 39.191406 69.90625 38.902344 L 70.011719 38.507812 L 67.136719 31.1875 L 69.367188 31.1875 L 70.433594 34.417969 C 70.546875 34.757812 70.644531 35.109375 70.738281 35.460938 C 70.828125 35.816406 70.921875 36.179688 71.023438 36.550781 L 71.082031 36.550781 C 71.164062 36.199219 71.242188 35.84375 71.324219 35.492188 C 71.414062 35.128906 71.503906 34.769531 71.59375 34.417969 L 72.5 31.1875 L 74.621094 31.1875 L 72.03125 38.777344 C 71.800781 39.40625 71.542969 39.929688 71.261719 40.355469 C 70.980469 40.789062 70.640625 41.113281 70.238281 41.324219 C 69.847656 41.535156 69.355469 41.644531 68.761719 41.644531 Z M 81.980469 38.886719 C 81.339844 38.886719 80.695312 38.765625 80.054688 38.523438 C 79.421875 38.277344 78.855469 37.925781 78.351562 37.460938 L 79.617188 35.929688 C 79.96875 36.234375 80.359375 36.480469 80.792969 36.671875 C 81.222656 36.867188 81.640625 36.960938 82.042969 36.960938 C 82.503906 36.960938 82.84375 36.875 83.066406 36.703125 C 83.296875 36.53125 83.410156 36.300781 83.410156 36.007812 C 83.410156 35.695312 83.28125 35.464844 83.019531 35.324219 C 82.769531 35.171875 82.429688 35.007812 81.996094 34.824219 L 80.714844 34.28125 C 80.382812 34.136719 80.070312 33.953125 79.765625 33.71875 C 79.464844 33.476562 79.21875 33.179688 79.03125 32.824219 C 78.839844 32.472656 78.742188 32.058594 78.742188 31.582031 C 78.742188 31.039062 78.890625 30.542969 79.179688 30.097656 C 79.480469 29.652344 79.894531 29.300781 80.414062 29.039062 C 80.949219 28.773438 81.554688 28.644531 82.238281 28.644531 C 82.800781 28.644531 83.363281 28.753906 83.925781 28.976562 C 84.484375 29.199219 84.980469 29.523438 85.398438 29.945312 L 84.269531 31.355469 C 83.949219 31.101562 83.628906 30.910156 83.304688 30.78125 C 82.984375 30.636719 82.628906 30.566406 82.238281 30.566406 C 81.855469 30.566406 81.550781 30.648438 81.320312 30.808594 C 81.097656 30.960938 80.988281 31.179688 80.988281 31.460938 C 80.988281 31.765625 81.128906 31.992188 81.410156 32.144531 C 81.699219 32.296875 82.058594 32.457031 82.476562 32.628906 L 83.742188 33.144531 C 84.335938 33.386719 84.808594 33.71875 85.160156 34.144531 C 85.511719 34.566406 85.6875 35.128906 85.6875 35.824219 C 85.6875 36.371094 85.539062 36.875 85.25 37.339844 C 84.957031 37.804688 84.535156 38.179688 83.984375 38.460938 C 83.433594 38.742188 82.765625 38.886719 81.980469 38.886719 Z M 89.621094 38.886719 C 88.699219 38.886719 88.035156 38.617188 87.632812 38.082031 C 87.242188 37.546875 87.046875 36.84375 87.046875 35.976562 L 87.046875 32.929688 L 86.023438 32.929688 L 86.023438 31.28125 L 87.167969 31.1875 L 87.421875 29.1875 L 89.261719 29.1875 L 89.261719 31.1875 L 91.054688 31.1875 L 91.054688 32.929688 L 89.261719 32.929688 L 89.261719 35.945312 C 89.261719 36.371094 89.347656 36.679688 89.515625 36.871094 C 89.695312 37.050781 89.933594 37.144531 90.222656 37.144531 C 90.34375 37.144531 90.464844 37.128906 90.585938 37.097656 C 90.714844 37.066406 90.832031 37.03125 90.933594 36.992188 L 91.277344 38.613281 C 91.085938 38.671875 90.851562 38.734375 90.570312 38.792969 C 90.300781 38.855469 89.984375 38.886719 89.621094 38.886719 Z M 95.453125 38.886719 C 94.820312 38.886719 94.222656 38.734375 93.660156 38.429688 C 93.109375 38.117188 92.664062 37.667969 92.320312 37.082031 C 91.980469 36.488281 91.808594 35.773438 91.808594 34.945312 C 91.808594 34.109375 91.980469 33.394531 92.320312 32.808594 C 92.664062 32.222656 93.109375 31.78125 93.660156 31.476562 C 94.222656 31.164062 94.820312 31.007812 95.453125 31.007812 C 96.085938 31.007812 96.679688 31.164062 97.230469 31.476562 C 97.78125 31.78125 98.230469 32.222656 98.570312 32.808594 C 98.914062 33.394531 99.082031 34.109375 99.082031 34.945312 C 99.082031 35.773438 98.914062 36.488281 98.570312 37.082031 C 98.230469 37.667969 97.78125 38.117188 97.230469 38.429688 C 96.679688 38.734375 96.085938 38.886719 95.453125 38.886719 Z M 95.453125 37.082031 C 95.90625 37.082031 96.246094 36.890625 96.476562 36.507812 C 96.707031 36.113281 96.824219 35.59375 96.824219 34.945312 C 96.824219 34.289062 96.707031 33.769531 96.476562 33.386719 C 96.246094 33.003906 95.90625 32.808594 95.453125 32.808594 C 94.992188 32.808594 94.644531 33.003906 94.414062 33.386719 C 94.195312 33.769531 94.082031 34.289062 94.082031 34.945312 C 94.082031 35.59375 94.195312 36.113281 94.414062 36.507812 C 94.644531 36.890625 94.992188 37.082031 95.453125 37.082031 Z M 100.601562 38.703125 L 100.601562 31.1875 L 102.40625 31.1875 L 102.558594 32.507812 L 102.617188 32.507812 C 102.886719 32.003906 103.214844 31.628906 103.597656 31.386719 C 103.976562 31.132812 104.359375 31.007812 104.742188 31.007812 C 104.953125 31.007812 105.128906 31.023438 105.269531 31.050781 C 105.410156 31.074219 105.527344 31.109375 105.628906 31.160156 L 105.269531 33.082031 C 105.136719 33.042969 105.007812 33.011719 104.875 32.992188 C 104.757812 32.972656 104.617188 32.960938 104.453125 32.960938 C 104.171875 32.960938 103.878906 33.066406 103.566406 33.28125 C 103.265625 33.480469 103.015625 33.835938 102.8125 34.339844 L 102.8125 38.703125 Z M 109.796875 38.886719 C 109.082031 38.886719 108.441406 38.730469 107.867188 38.414062 C 107.296875 38.101562 106.84375 37.652344 106.511719 37.066406 C 106.183594 36.480469 106.015625 35.773438 106.015625 34.945312 C 106.015625 34.128906 106.183594 33.425781 106.511719 32.839844 C 106.855469 32.253906 107.296875 31.804688 107.839844 31.492188 C 108.378906 31.167969 108.949219 31.007812 109.539062 31.007812 C 110.253906 31.007812 110.839844 31.167969 111.300781 31.492188 C 111.773438 31.804688 112.125 32.234375 112.355469 32.78125 C 112.597656 33.316406 112.71875 33.925781 112.71875 34.613281 C 112.71875 34.804688 112.707031 34.996094 112.6875 35.1875 C 112.667969 35.371094 112.648438 35.507812 112.628906 35.597656 L 108.15625 35.597656 C 108.253906 36.144531 108.480469 36.546875 108.832031 36.808594 C 109.183594 37.0625 109.605469 37.1875 110.097656 37.1875 C 110.628906 37.1875 111.167969 37.023438 111.710938 36.6875 L 112.445312 38.035156 C 112.066406 38.300781 111.640625 38.507812 111.167969 38.65625 C 110.695312 38.808594 110.238281 38.886719 109.796875 38.886719 Z M 108.140625 34.128906 L 110.835938 34.128906 C 110.835938 33.714844 110.734375 33.375 110.535156 33.113281 C 110.34375 32.839844 110.027344 32.703125 109.585938 32.703125 C 109.246094 32.703125 108.9375 32.824219 108.667969 33.066406 C 108.394531 33.300781 108.21875 33.652344 108.140625 34.128906 Z M 108.140625 34.128906 "/>
</g>
</svg>
