<svg width="282" height="54" viewBox="0 0 282 54" fill="none" xmlns="http://www.w3.org/2000/svg">
<rect y="0.43457" width="282" height="52.9778" rx="5.80518" fill="#141414"/>
<g clip-path="url(#clip0_334_10802)">
<path fill-rule="evenodd" clip-rule="evenodd" d="M89.5248 16.6944C89.281 16.9492 89.1406 17.3418 89.1406 17.8518V35.9929C89.1406 36.5028 89.281 36.8955 89.5341 37.1416L89.6002 37.1961L100.056 27.031V26.8025L89.5913 16.6399L89.5252 16.6944H89.5248Z" fill="url(#paint0_linear_334_10802)"/>
<path fill-rule="evenodd" clip-rule="evenodd" d="M103.536 30.4322L100.048 27.0406V26.8035L103.537 23.4119L103.612 23.4573L107.738 25.7371C108.92 26.3845 108.92 27.4513 107.738 28.1074L103.612 30.3871L103.536 30.4326V30.4322Z" fill="url(#paint1_linear_334_10802)"/>
<path fill-rule="evenodd" clip-rule="evenodd" d="M103.61 30.387L100.047 26.9221L89.5244 37.1515C89.9086 37.5528 90.5553 37.5983 91.2785 37.206L103.61 30.3874V30.387Z" fill="url(#paint2_linear_334_10802)"/>
<path fill-rule="evenodd" clip-rule="evenodd" d="M103.61 23.4588L91.2785 16.6488C90.5568 16.2475 89.909 16.3016 89.5244 16.7029L100.046 26.9222L103.61 23.4584L103.61 23.4588Z" fill="url(#paint3_linear_334_10802)"/>
<path opacity="0.2" fill-rule="evenodd" clip-rule="evenodd" d="M103.535 30.3132L91.2882 37.0777C90.6041 37.4603 89.9938 37.4336 89.6003 37.0868L89.5342 37.151L89.6003 37.2055C89.9938 37.5516 90.6041 37.579 91.2882 37.1965L103.619 30.3865L103.535 30.3132Z" fill="#3418D8"/>
<path opacity="0.12" fill-rule="evenodd" clip-rule="evenodd" d="M107.735 27.9889L103.524 30.3138L103.6 30.387L107.726 28.1073C108.317 27.7792 108.608 27.3512 108.608 26.9221C108.57 27.3148 108.27 27.6883 107.735 27.9885V27.9889Z" fill="#3418D8"/>
<path opacity="0.25" fill-rule="evenodd" clip-rule="evenodd" d="M91.2789 16.7671L107.736 25.8564C108.271 26.148 108.571 26.5306 108.618 26.9229C108.618 26.4948 108.327 26.0657 107.736 25.7377L91.2789 16.6483C90.0977 15.9919 89.1406 16.5386 89.1406 17.8512V17.9699C89.1406 16.657 90.0977 16.1193 91.2789 16.7671Z" fill="white"/>
</g>
<path d="M117.773 23.4233V15.9038H119.653C120.814 15.9038 121.697 16.2286 122.301 16.8781C122.904 17.52 123.206 18.437 123.206 19.6292C123.206 20.8289 122.904 21.7612 122.301 22.4261C121.705 23.0909 120.837 23.4233 119.699 23.4233H117.773ZM118.724 22.6439H119.584C120.463 22.6439 121.12 22.3802 121.556 21.8529C121.999 21.318 122.22 20.5768 122.22 19.6292C122.22 18.6816 121.999 17.9556 121.556 17.4512C121.12 16.9392 120.463 16.6832 119.584 16.6832H118.724V22.6439ZM126.9 23.5609C126.449 23.5609 126.025 23.4463 125.628 23.217C125.238 22.9878 124.921 22.6553 124.676 22.2198C124.439 21.7842 124.321 21.2607 124.321 20.6494C124.321 20.0227 124.439 19.4916 124.676 19.056C124.921 18.6204 125.238 18.288 125.628 18.0588C126.025 17.8295 126.449 17.7149 126.9 17.7149C127.358 17.7149 127.783 17.8295 128.172 18.0588C128.562 18.288 128.875 18.6204 129.112 19.056C129.357 19.4916 129.479 20.0227 129.479 20.6494C129.479 21.2607 129.357 21.7842 129.112 22.2198C128.875 22.6553 128.562 22.9878 128.172 23.217C127.783 23.4463 127.358 23.5609 126.9 23.5609ZM126.9 22.7814C127.381 22.7814 127.767 22.5866 128.058 22.1968C128.356 21.7995 128.505 21.2836 128.505 20.6494C128.505 20.0074 128.356 19.4878 128.058 19.0904C127.767 18.693 127.381 18.4944 126.9 18.4944C126.426 18.4944 126.04 18.693 125.742 19.0904C125.444 19.4878 125.295 20.0074 125.295 20.6494C125.295 21.2836 125.444 21.7995 125.742 22.1968C126.04 22.5866 126.426 22.7814 126.9 22.7814ZM131.784 23.4233L130.237 17.8524H131.199L132.025 21.0735C132.086 21.3333 132.143 21.5931 132.197 21.8529C132.25 22.1051 132.304 22.3611 132.357 22.6209H132.403C132.464 22.3611 132.525 22.1051 132.586 21.8529C132.648 21.5931 132.712 21.3333 132.781 21.0735L133.641 17.8524H134.558L135.429 21.0735C135.498 21.3333 135.563 21.5931 135.624 21.8529C135.693 22.1051 135.758 22.3611 135.819 22.6209H135.865C135.926 22.3611 135.983 22.1051 136.037 21.8529C136.098 21.5931 136.155 21.3333 136.209 21.0735L137.022 17.8524H137.917L136.426 23.4233H135.28L134.478 20.4316C134.409 20.1641 134.344 19.9005 134.283 19.6406C134.229 19.3808 134.168 19.1095 134.099 18.8268H134.054C133.993 19.1095 133.931 19.3846 133.87 19.6521C133.809 19.9119 133.74 20.1756 133.664 20.443L132.884 23.4233H131.784ZM139.129 23.4233V17.8524H139.909L139.989 18.6548H140.023C140.291 18.3874 140.573 18.1658 140.871 17.99C141.169 17.8066 141.509 17.7149 141.892 17.7149C142.48 17.7149 142.908 17.9021 143.175 18.2766C143.45 18.6434 143.588 19.1821 143.588 19.8928V23.4233H142.648V20.0189C142.648 19.4993 142.564 19.121 142.396 18.8841C142.228 18.6472 141.96 18.5287 141.594 18.5287C141.311 18.5287 141.055 18.6013 140.826 18.7465C140.604 18.8917 140.352 19.1057 140.069 19.3885V23.4233H139.129ZM146.395 23.5609C146.043 23.5609 145.787 23.4539 145.627 23.2399C145.474 23.0183 145.398 22.705 145.398 22.3V15.2619H146.338V22.3688C146.338 22.514 146.364 22.6209 146.418 22.6897C146.471 22.7509 146.533 22.7814 146.601 22.7814C146.632 22.7814 146.659 22.7814 146.682 22.7814C146.712 22.7738 146.754 22.7661 146.808 22.7585L146.934 23.4692C146.873 23.4998 146.8 23.5227 146.716 23.538C146.632 23.5533 146.525 23.5609 146.395 23.5609ZM150.486 23.5609C150.035 23.5609 149.611 23.4463 149.213 23.217C148.824 22.9878 148.507 22.6553 148.262 22.2198C148.025 21.7842 147.907 21.2607 147.907 20.6494C147.907 20.0227 148.025 19.4916 148.262 19.056C148.507 18.6204 148.824 18.288 149.213 18.0588C149.611 17.8295 150.035 17.7149 150.486 17.7149C150.944 17.7149 151.368 17.8295 151.758 18.0588C152.148 18.288 152.461 18.6204 152.698 19.056C152.943 19.4916 153.065 20.0227 153.065 20.6494C153.065 21.2607 152.943 21.7842 152.698 22.2198C152.461 22.6553 152.148 22.9878 151.758 23.217C151.368 23.4463 150.944 23.5609 150.486 23.5609ZM150.486 22.7814C150.967 22.7814 151.353 22.5866 151.644 22.1968C151.942 21.7995 152.091 21.2836 152.091 20.6494C152.091 20.0074 151.942 19.4878 151.644 19.0904C151.353 18.693 150.967 18.4944 150.486 18.4944C150.012 18.4944 149.626 18.693 149.328 19.0904C149.03 19.4878 148.881 20.0074 148.881 20.6494C148.881 21.2836 149.03 21.7995 149.328 22.1968C149.626 22.5866 150.012 22.7814 150.486 22.7814ZM155.659 23.5609C155.193 23.5609 154.803 23.4233 154.49 23.1482C154.184 22.8655 154.032 22.4758 154.032 21.979C154.032 21.3677 154.303 20.9015 154.845 20.5806C155.396 20.252 156.263 20.0227 157.447 19.8928C157.447 19.6559 157.413 19.4305 157.344 19.2165C157.283 19.0025 157.168 18.8306 157 18.7007C156.84 18.5631 156.607 18.4944 156.301 18.4944C155.98 18.4944 155.678 18.5555 155.396 18.6778C155.113 18.8 154.861 18.9376 154.639 19.0904L154.272 18.437C154.532 18.2689 154.849 18.1084 155.224 17.9556C155.606 17.7951 156.018 17.7149 156.462 17.7149C157.142 17.7149 157.635 17.925 157.94 18.3453C158.246 18.758 158.399 19.312 158.399 20.0074V23.4233H157.619L157.539 22.7585H157.505C157.245 22.9725 156.958 23.1597 156.645 23.3202C156.339 23.4807 156.011 23.5609 155.659 23.5609ZM155.934 22.8044C156.202 22.8044 156.454 22.7394 156.691 22.6095C156.928 22.4796 157.18 22.2962 157.447 22.0593V20.5118C156.523 20.6264 155.873 20.7984 155.499 21.0276C155.132 21.2569 154.949 21.5511 154.949 21.9103C154.949 22.2236 155.044 22.4528 155.235 22.598C155.426 22.7356 155.659 22.8044 155.934 22.8044ZM162.054 23.5609C161.359 23.5609 160.801 23.3087 160.381 22.8044C159.96 22.2923 159.75 21.574 159.75 20.6494C159.75 20.0456 159.861 19.526 160.083 19.0904C160.312 18.6472 160.61 18.3071 160.977 18.0702C161.351 17.8333 161.749 17.7149 162.169 17.7149C162.49 17.7149 162.769 17.7722 163.006 17.8868C163.243 18.0015 163.483 18.1581 163.728 18.3568L163.682 17.4054V15.2619H164.633V23.4233H163.854L163.774 22.77H163.739C163.525 22.9839 163.273 23.1712 162.983 23.3316C162.692 23.4845 162.383 23.5609 162.054 23.5609ZM162.261 22.77C162.75 22.77 163.224 22.514 163.682 22.002V19.0904C163.445 18.8764 163.216 18.7274 162.994 18.6434C162.78 18.5517 162.559 18.5058 162.329 18.5058C162.031 18.5058 161.76 18.5975 161.516 18.7809C161.279 18.9567 161.088 19.205 160.942 19.526C160.797 19.8393 160.725 20.2099 160.725 20.6379C160.725 21.3027 160.858 21.8262 161.126 22.2083C161.393 22.5827 161.772 22.77 162.261 22.77ZM170.971 23.5609C170.52 23.5609 170.096 23.4463 169.699 23.217C169.309 22.9878 168.992 22.6553 168.747 22.2198C168.51 21.7842 168.392 21.2607 168.392 20.6494C168.392 20.0227 168.51 19.4916 168.747 19.056C168.992 18.6204 169.309 18.288 169.699 18.0588C170.096 17.8295 170.52 17.7149 170.971 17.7149C171.43 17.7149 171.854 17.8295 172.243 18.0588C172.633 18.288 172.946 18.6204 173.183 19.056C173.428 19.4916 173.55 20.0227 173.55 20.6494C173.55 21.2607 173.428 21.7842 173.183 22.2198C172.946 22.6553 172.633 22.9878 172.243 23.217C171.854 23.4463 171.43 23.5609 170.971 23.5609ZM170.971 22.7814C171.452 22.7814 171.838 22.5866 172.129 22.1968C172.427 21.7995 172.576 21.2836 172.576 20.6494C172.576 20.0074 172.427 19.4878 172.129 19.0904C171.838 18.693 171.452 18.4944 170.971 18.4944C170.497 18.4944 170.111 18.693 169.813 19.0904C169.515 19.4878 169.366 20.0074 169.366 20.6494C169.366 21.2836 169.515 21.7995 169.813 22.1968C170.111 22.5866 170.497 22.7814 170.971 22.7814ZM175.017 23.4233V17.8524H175.797L175.877 18.6548H175.911C176.179 18.3874 176.462 18.1658 176.76 17.99C177.058 17.8066 177.398 17.7149 177.78 17.7149C178.368 17.7149 178.796 17.9021 179.064 18.2766C179.339 18.6434 179.476 19.1821 179.476 19.8928V23.4233H178.536V20.0189C178.536 19.4993 178.452 19.121 178.284 18.8841C178.116 18.6472 177.849 18.5287 177.482 18.5287C177.199 18.5287 176.943 18.6013 176.714 18.7465C176.492 18.8917 176.24 19.1057 175.957 19.3885V23.4233H175.017ZM117.901 38.4233V28.6007H121.276C121.999 28.6007 122.652 28.7012 123.234 28.9021C123.827 29.0929 124.299 29.4193 124.651 29.8813C125.002 30.3433 125.178 30.971 125.178 31.7645C125.178 32.5278 125.002 33.1555 124.651 33.6476C124.299 34.1398 123.832 34.5064 123.249 34.7474C122.667 34.9784 122.029 35.0939 121.336 35.0939H120.116V38.4233H117.901ZM120.116 33.3313H121.201C122.406 33.3313 123.008 32.809 123.008 31.7645C123.008 31.2522 122.848 30.8907 122.526 30.6798C122.205 30.4688 121.743 30.3634 121.14 30.3634H120.116V33.3313ZM128.729 38.6041C127.965 38.6041 127.433 38.3781 127.132 37.9262C126.841 37.4642 126.695 36.8565 126.695 36.1033V27.8625H128.91V36.1937C128.91 36.4247 128.95 36.5854 129.03 36.6758C129.12 36.7662 129.211 36.8113 129.301 36.8113C129.351 36.8113 129.392 36.8113 129.422 36.8113C129.462 36.8013 129.512 36.7913 129.572 36.7812L129.844 38.4233C129.723 38.4736 129.567 38.5137 129.377 38.5439C129.196 38.584 128.98 38.6041 128.729 38.6041ZM132.889 38.6041C132.206 38.6041 131.663 38.3882 131.262 37.9563C130.86 37.5144 130.659 36.9771 130.659 36.3443C130.659 35.5609 130.991 34.9483 131.653 34.5064C132.316 34.0644 133.386 33.7682 134.862 33.6175C134.842 33.2861 134.742 33.0249 134.561 32.8341C134.39 32.6332 134.099 32.5328 133.687 32.5328C133.376 32.5328 133.06 32.5931 132.738 32.7136C132.417 32.8341 132.075 32.9998 131.714 33.2107L130.915 31.7494C131.387 31.4581 131.889 31.2221 132.422 31.0413C132.964 30.8605 133.527 30.7702 134.109 30.7702C135.063 30.7702 135.796 31.0464 136.309 31.5987C136.821 32.1511 137.077 32.9998 137.077 34.1448V38.4233H135.269L135.118 37.655H135.058C134.747 37.9362 134.41 38.1672 134.049 38.348C133.697 38.5188 133.311 38.6041 132.889 38.6041ZM133.642 36.8867C133.893 36.8867 134.109 36.8314 134.29 36.721C134.481 36.6004 134.672 36.4448 134.862 36.2539V34.9432C134.079 35.0437 133.537 35.2044 133.235 35.4253C132.934 35.6363 132.783 35.8873 132.783 36.1786C132.783 36.4197 132.859 36.6004 133.009 36.721C133.17 36.8314 133.381 36.8867 133.642 36.8867ZM139.779 41.346C139.558 41.346 139.362 41.3309 139.191 41.3008C139.031 41.2707 138.875 41.2355 138.724 41.1954L139.116 39.508C139.186 39.5181 139.267 39.5332 139.357 39.5532C139.447 39.5834 139.533 39.5984 139.613 39.5984C139.985 39.5984 140.271 39.508 140.472 39.3273C140.673 39.1465 140.823 38.9105 140.924 38.6192L141.029 38.2275L138.152 30.9509H140.381L141.451 34.1599C141.562 34.5013 141.662 34.8478 141.752 35.1994C141.843 35.5509 141.938 35.9125 142.039 36.2841H142.099C142.179 35.9325 142.26 35.581 142.34 35.2295C142.43 34.8679 142.521 34.5114 142.611 34.1599L143.515 30.9509H145.639L143.048 38.4987C142.817 39.1214 142.561 39.6436 142.28 40.0655C141.998 40.4973 141.657 40.8187 141.255 41.0296C140.864 41.2406 140.371 41.346 139.779 41.346ZM153.001 38.6041C152.359 38.6041 151.716 38.4836 151.073 38.2426C150.44 38.0015 149.873 37.65 149.371 37.188L150.636 35.6664C150.988 35.9677 151.379 36.2138 151.811 36.4046C152.243 36.5954 152.66 36.6908 153.062 36.6908C153.524 36.6908 153.865 36.6055 154.086 36.4347C154.317 36.264 154.433 36.033 154.433 35.7417C154.433 35.4304 154.302 35.2044 154.041 35.0638C153.79 34.9131 153.448 34.7474 153.016 34.5666L151.736 34.0243C151.404 33.8837 151.088 33.6978 150.787 33.4668C150.485 33.2258 150.239 32.9295 150.049 32.578C149.858 32.2265 149.762 31.8147 149.762 31.3426C149.762 30.8003 149.908 30.3081 150.199 29.8662C150.5 29.4243 150.912 29.0728 151.435 28.8117C151.967 28.5505 152.574 28.42 153.257 28.42C153.82 28.42 154.382 28.5304 154.945 28.7514C155.507 28.9724 155.999 29.2938 156.421 29.7156L155.291 31.1167C154.97 30.8656 154.648 30.6747 154.327 30.5442C154.006 30.4036 153.649 30.3333 153.257 30.3333C152.876 30.3333 152.569 30.4136 152.338 30.5743C152.118 30.725 152.007 30.9409 152.007 31.2221C152.007 31.5234 152.148 31.7494 152.429 31.9001C152.72 32.0507 153.077 32.2114 153.498 32.3821L154.764 32.8944C155.357 33.1354 155.829 33.4668 156.18 33.8887C156.532 34.3105 156.707 34.8679 156.707 35.5609C156.707 36.1033 156.562 36.6055 156.271 37.0675C155.979 37.5295 155.557 37.9011 155.005 38.1823C154.453 38.4635 153.785 38.6041 153.001 38.6041ZM160.645 38.6041C159.721 38.6041 159.058 38.338 158.656 37.8057C158.264 37.2734 158.068 36.5753 158.068 35.7116V32.6835H157.044V31.0413L158.189 30.9509L158.445 28.9623H160.283V30.9509H162.076V32.6835H160.283V35.6815C160.283 36.1033 160.368 36.4096 160.539 36.6004C160.72 36.7812 160.956 36.8716 161.247 36.8716C161.368 36.8716 161.488 36.8565 161.609 36.8264C161.739 36.7963 161.855 36.7611 161.955 36.721L162.302 38.3329C162.111 38.3932 161.875 38.4535 161.594 38.5137C161.323 38.574 161.006 38.6041 160.645 38.6041ZM166.478 38.6041C165.846 38.6041 165.248 38.4535 164.686 38.1522C164.133 37.8408 163.686 37.3939 163.345 36.8113C163.003 36.2188 162.833 35.5107 162.833 34.6871C162.833 33.8535 163.003 33.1455 163.345 32.5629C163.686 31.9804 164.133 31.5385 164.686 31.2372C165.248 30.9258 165.846 30.7702 166.478 30.7702C167.111 30.7702 167.704 30.9258 168.256 31.2372C168.809 31.5385 169.255 31.9804 169.597 32.5629C169.938 33.1455 170.109 33.8535 170.109 34.6871C170.109 35.5107 169.938 36.2188 169.597 36.8113C169.255 37.3939 168.809 37.8408 168.256 38.1522C167.704 38.4535 167.111 38.6041 166.478 38.6041ZM166.478 36.8113C166.93 36.8113 167.272 36.6205 167.503 36.2389C167.734 35.8472 167.849 35.3299 167.849 34.6871C167.849 34.0343 167.734 33.5171 167.503 33.1354C167.272 32.7538 166.93 32.5629 166.478 32.5629C166.016 32.5629 165.67 32.7538 165.439 33.1354C165.218 33.5171 165.107 34.0343 165.107 34.6871C165.107 35.3299 165.218 35.8472 165.439 36.2389C165.67 36.6205 166.016 36.8113 166.478 36.8113ZM171.626 38.4233V30.9509H173.434L173.585 32.2616H173.645C173.916 31.7594 174.242 31.3878 174.624 31.1468C175.006 30.8957 175.387 30.7702 175.769 30.7702C175.98 30.7702 176.156 30.7852 176.296 30.8153C176.437 30.8354 176.557 30.8706 176.658 30.9208L176.296 32.8341C176.166 32.7939 176.035 32.7638 175.905 32.7437C175.784 32.7236 175.643 32.7136 175.483 32.7136C175.202 32.7136 174.905 32.819 174.594 33.03C174.293 33.2308 174.042 33.5823 173.841 34.0845V38.4233H171.626ZM180.826 38.6041C180.113 38.6041 179.47 38.4484 178.898 38.1371C178.325 37.8257 177.873 37.3788 177.542 36.7963C177.21 36.2138 177.045 35.5107 177.045 34.6871C177.045 33.8736 177.21 33.1756 177.542 32.5931C177.883 32.0105 178.325 31.5636 178.868 31.2522C179.41 30.9309 179.977 30.7702 180.57 30.7702C181.283 30.7702 181.871 30.9309 182.333 31.2522C182.805 31.5636 183.156 31.9904 183.387 32.5328C183.628 33.0651 183.749 33.6727 183.749 34.3557C183.749 34.5465 183.739 34.7374 183.719 34.9282C183.699 35.109 183.678 35.2446 183.658 35.3349H179.184C179.284 35.8773 179.51 36.279 179.862 36.5402C180.213 36.7913 180.635 36.9168 181.127 36.9168C181.66 36.9168 182.197 36.7511 182.739 36.4197L183.478 37.7605C183.096 38.0216 182.669 38.2275 182.197 38.3781C181.725 38.5288 181.268 38.6041 180.826 38.6041ZM179.169 33.8736H181.866C181.866 33.4618 181.765 33.1254 181.564 32.8642C181.373 32.5931 181.057 32.4575 180.615 32.4575C180.274 32.4575 179.967 32.578 179.696 32.819C179.425 33.05 179.249 33.4016 179.169 33.8736Z" fill="#F3FBFD"/>
<defs>
<linearGradient id="paint0_linear_334_10802" x1="99.6376" y1="17.5922" x2="82.9371" y2="22.173" gradientUnits="userSpaceOnUse">
<stop stop-color="#00A1FF"/>
<stop offset="0.26" stop-color="#00BEFF"/>
<stop offset="0.51" stop-color="#00D2FF"/>
<stop offset="0.76" stop-color="#00DFFF"/>
<stop offset="1" stop-color="#00E3FF"/>
</linearGradient>
<linearGradient id="paint1_linear_334_10802" x1="109.334" y1="26.7837" x2="88.909" y2="26.7837" gradientUnits="userSpaceOnUse">
<stop stop-color="#FFE000"/>
<stop offset="0.41" stop-color="#FFBD00"/>
<stop offset="0.78" stop-color="#FFA500"/>
<stop offset="1" stop-color="#FF9C00"/>
</linearGradient>
<linearGradient id="paint2_linear_334_10802" x1="101.055" y1="28.7136" x2="88.1393" y2="51.0324" gradientUnits="userSpaceOnUse">
<stop stop-color="#FF3A44"/>
<stop offset="1" stop-color="#C31162"/>
</linearGradient>
<linearGradient id="paint3_linear_334_10802" x1="86.2741" y1="10.4858" x2="92.0407" y2="20.4562" gradientUnits="userSpaceOnUse">
<stop stop-color="#32A071"/>
<stop offset="0.07" stop-color="#2DA771"/>
<stop offset="0.48" stop-color="#15CF74"/>
<stop offset="0.8" stop-color="#06E775"/>
<stop offset="1" stop-color="#00F076"/>
</linearGradient>
<clipPath id="clip0_334_10802">
<rect width="19.4833" height="21.1069" fill="white" transform="translate(89.1406 16.3699)"/>
</clipPath>
</defs>
</svg>
