<svg width="22" height="13" viewBox="0 0 22 13" fill="none" xmlns="http://www.w3.org/2000/svg">
<path d="M21.5 6.19043C21.5 8.96543 21.05 11.2154 20.45 11.2154C19.85 11.2154 19.4 8.96543 19.4 6.19043C19.4 3.41543 19.85 1.16543 20.45 1.16543C21.05 1.16543 21.5 3.41543 21.5 6.19043ZM18.875 6.19043C18.875 9.26543 17.525 11.8154 15.95 11.8154C14.375 11.8154 13.025 9.26543 13.025 6.19043C13.025 3.11543 14.375 0.56543 15.95 0.56543C17.525 0.56543 18.875 3.11543 18.875 6.19043ZM12.35 6.19043C12.35 9.49043 9.725 12.1904 6.425 12.1904C3.125 12.1904 0.5 9.49043 0.5 6.19043C0.5 2.89043 3.125 0.19043 6.425 0.19043C9.725 0.19043 12.35 2.89043 12.35 6.19043Z" fill="black"/>
</svg>
