<svg width="11" height="19" viewBox="0 0 11 19" fill="none" xmlns="http://www.w3.org/2000/svg">
<path d="M9.975 3.8877H6.825C6.24508 3.8877 5.775 4.33542 5.775 4.8877V7.8877H9.975C10.0944 7.88518 10.2077 7.9381 10.2787 8.0296C10.3496 8.1211 10.3696 8.2397 10.332 8.3477L9.555 10.5477C9.48339 10.7496 9.28525 10.8861 9.0615 10.8877H5.775V18.3877C5.775 18.6638 5.5399 18.8877 5.25 18.8877H2.625C2.33505 18.8877 2.1 18.6638 2.1 18.3877V10.8877H0.525C0.235053 10.8877 0 10.6638 0 10.3877V8.3877C0 8.1116 0.235053 7.8877 0.525 7.8877H2.1V4.8877C2.1 2.67856 3.98044 0.887695 6.3 0.887695H9.975C10.2649 0.887695 10.5 1.11156 10.5 1.3877V3.3877C10.5 3.66384 10.2649 3.8877 9.975 3.8877Z" fill="black"/>
</svg>
