<svg width="30" height="30" viewBox="0 0 30 30" fill="none" xmlns="http://www.w3.org/2000/svg">
<path d="M15.0001 0.73867C7.0471 0.73867 0.600098 7.18567 0.600098 15.1387C0.600098 23.0917 7.0471 29.5387 15.0001 29.5387C22.9531 29.5387 29.4001 23.0917 29.4001 15.1387C29.4001 7.18567 22.9531 0.73867 15.0001 0.73867ZM11.4751 21.1072H8.5591V11.7232H11.4751V21.1072ZM9.9991 10.5712C9.0781 10.5712 8.4826 9.91867 8.4826 9.11167C8.4826 8.28817 9.0961 7.65517 10.0366 7.65517C10.9771 7.65517 11.5531 8.28817 11.5711 9.11167C11.5711 9.91867 10.9771 10.5712 9.9991 10.5712ZM22.1251 21.1072H19.2091V15.9067C19.2091 14.6962 18.7861 13.8742 17.7316 13.8742C16.9261 13.8742 16.4476 14.4307 16.2361 14.9662C16.1581 15.1567 16.1386 15.4267 16.1386 15.6952V21.1057H13.2211V14.7157C13.2211 13.5442 13.1836 12.5647 13.1446 11.7217H15.6781L15.8116 13.0252H15.8701C16.2541 12.4132 17.1946 11.5102 18.7681 11.5102C20.6866 11.5102 22.1251 12.7957 22.1251 15.5587V21.1072Z" fill="#E0FB92"/>
</svg>
