<svg width="18" height="17" viewBox="0 0 18 17" fill="none" xmlns="http://www.w3.org/2000/svg">
<path fill-rule="evenodd" clip-rule="evenodd" d="M6.87892 5.88712H9.94298V7.41337C10.3843 6.53557 11.5162 5.74687 13.2166 5.74687C16.4761 5.74687 17.25 7.49422 17.25 10.7002V16.6377H13.95V11.4303C13.95 9.60457 13.5086 8.57497 12.385 8.57497C10.8266 8.57497 10.1789 9.6846 10.1789 11.4295V16.6377H6.87892V5.88712ZM1.22025 16.4974H4.52025V5.74687H1.22025V16.4974ZM4.99298 2.24145C4.9931 2.51805 4.93824 2.79191 4.83159 3.04713C4.72495 3.30235 4.56864 3.53382 4.37175 3.7281C3.97278 4.12461 3.43274 4.34656 2.87025 4.3452C2.30875 4.34482 1.76996 4.12343 1.3704 3.72892C1.17422 3.53398 1.01844 3.30225 0.911984 3.047C0.805524 2.79175 0.750478 2.51801 0.75 2.24145C0.75 1.68292 0.97275 1.14832 1.37122 0.753971C1.77043 0.358926 2.30945 0.137448 2.87108 0.137696C3.43373 0.137696 3.97327 0.35962 4.37175 0.753971C4.7694 1.14832 4.99298 1.68292 4.99298 2.24145Z" fill="black"/>
</svg>
