<svg width="70" height="25" viewBox="0 0 70 25" fill="none" xmlns="http://www.w3.org/2000/svg">
<path d="M12.5 9V16" stroke="#DADADA"/>
<path d="M12.5 9V16" stroke="#3418D8"/>
<path d="M16 12.5L9 12.5" stroke="#3418D8"/>
<rect x="0.5" y="0.5" width="24" height="24" rx="12" stroke="#3418D8"/>
<path d="M32.494 19V7.228H34.852L36.94 12.988C37.072 13.36 37.198 13.744 37.318 14.14C37.45 14.524 37.576 14.908 37.696 15.292H37.768C37.9 14.908 38.026 14.524 38.146 14.14C38.266 13.744 38.386 13.36 38.506 12.988L40.54 7.228H42.916V19H40.99V13.618C40.99 13.246 41.002 12.844 41.026 12.412C41.062 11.968 41.098 11.524 41.134 11.08C41.182 10.636 41.224 10.234 41.26 9.874H41.188L40.234 12.61L38.308 17.902H37.066L35.122 12.61L34.186 9.874H34.114C34.15 10.234 34.186 10.636 34.222 11.08C34.27 11.524 34.306 11.968 34.33 12.412C34.366 12.844 34.384 13.246 34.384 13.618V19H32.494ZM49.3441 19.216C48.6121 19.216 47.9281 19.036 47.2921 18.676C46.6561 18.304 46.1401 17.776 45.7441 17.092C45.3481 16.396 45.1501 15.562 45.1501 14.59C45.1501 13.606 45.3481 12.772 45.7441 12.088C46.1401 11.392 46.6561 10.864 47.2921 10.504C47.9281 10.132 48.6121 9.946 49.3441 9.946C50.0881 9.946 50.7781 10.132 51.4141 10.504C52.0501 10.864 52.5661 11.392 52.9621 12.088C53.3581 12.772 53.5561 13.606 53.5561 14.59C53.5561 15.562 53.3581 16.396 52.9621 17.092C52.5661 17.776 52.0501 18.304 51.4141 18.676C50.7781 19.036 50.0881 19.216 49.3441 19.216ZM49.3441 17.524C49.9921 17.524 50.5021 17.254 50.8741 16.714C51.2461 16.174 51.4321 15.466 51.4321 14.59C51.4321 13.702 51.2461 12.988 50.8741 12.448C50.5021 11.908 49.9921 11.638 49.3441 11.638C48.6961 11.638 48.1861 11.908 47.8141 12.448C47.4541 12.988 47.2741 13.702 47.2741 14.59C47.2741 15.466 47.4541 16.174 47.8141 16.714C48.1861 17.254 48.6961 17.524 49.3441 17.524ZM55.605 19V10.162H57.315L57.459 11.728H57.531C57.843 11.152 58.221 10.714 58.665 10.414C59.109 10.102 59.565 9.946 60.033 9.946C60.453 9.946 60.789 10.006 61.041 10.126L60.681 11.926C60.525 11.878 60.381 11.842 60.249 11.818C60.117 11.794 59.955 11.782 59.763 11.782C59.415 11.782 59.049 11.92 58.665 12.196C58.281 12.46 57.951 12.928 57.675 13.6V19H55.605ZM65.9241 19.216C65.1081 19.216 64.3701 19.036 63.7101 18.676C63.0501 18.304 62.5281 17.776 62.1441 17.092C61.7601 16.396 61.5681 15.562 61.5681 14.59C61.5681 13.63 61.7601 12.802 62.1441 12.106C62.5401 11.41 63.0501 10.876 63.6741 10.504C64.2981 10.132 64.9521 9.946 65.6361 9.946C66.4401 9.946 67.1121 10.126 67.6521 10.486C68.1921 10.834 68.6001 11.326 68.8761 11.962C69.1521 12.586 69.2901 13.312 69.2901 14.14C69.2901 14.572 69.2601 14.908 69.2001 15.148H63.5841C63.6801 15.928 63.9621 16.534 64.4301 16.966C64.8981 17.398 65.4861 17.614 66.1941 17.614C66.5781 17.614 66.9321 17.56 67.2561 17.452C67.5921 17.332 67.9221 17.17 68.2461 16.966L68.9481 18.262C68.5281 18.538 68.0601 18.766 67.5441 18.946C67.0281 19.126 66.4881 19.216 65.9241 19.216ZM63.5661 13.744H67.4901C67.4901 13.06 67.3401 12.526 67.0401 12.142C66.7401 11.746 66.2901 11.548 65.6901 11.548C65.1741 11.548 64.7121 11.74 64.3041 12.124C63.9081 12.496 63.6621 13.036 63.5661 13.744Z" fill="#3418D8"/>
</svg>
