<svg width="18" height="15" viewBox="0 0 18 15" fill="none" xmlns="http://www.w3.org/2000/svg">
<path d="M17.2248 2.45293C16.7797 3.02993 16.2417 3.53326 15.6315 3.94346C15.6315 4.09419 15.6315 4.24491 15.6315 4.40402C15.6364 7.14118 14.5114 9.7658 12.5088 11.6895C10.5061 13.6131 7.79322 14.6749 4.97845 14.6367C3.35115 14.642 1.74467 14.2809 0.28489 13.5816C0.206173 13.5482 0.15541 13.4726 0.155707 13.389V13.2969C0.155707 13.1767 0.255958 13.0793 0.379622 13.0793C1.97922 13.0279 3.52176 12.4889 4.78898 11.5385C3.34112 11.5101 2.03842 10.6765 1.4389 9.39474C1.40862 9.32479 1.41804 9.24441 1.46378 9.18285C1.50952 9.12129 1.58495 9.08739 1.66281 9.09335C2.10285 9.13628 2.54729 9.09651 2.97185 8.97609C1.37353 8.65364 0.172564 7.36406 0.000686703 5.78566C-0.00541788 5.70994 0.0294941 5.63664 0.0928208 5.59212C0.156138 5.5477 0.238718 5.53848 0.310727 5.568C0.739639 5.75195 1.20266 5.84881 1.67143 5.85263C0.270917 4.95931 -0.334011 3.2601 0.198765 1.71604C0.253763 1.56601 0.385889 1.45516 0.546592 1.42426C0.707285 1.39335 0.872866 1.44693 0.982461 1.56532C2.87236 3.52014 5.46911 4.68502 8.22514 4.81432C8.15461 4.54056 8.11992 4.2592 8.12184 3.97695C8.14762 2.497 9.08985 1.17863 10.5074 0.639047C11.9249 0.0994739 13.5372 0.445471 14.5895 1.51507C15.3068 1.38227 16.0002 1.14812 16.6477 0.82005C16.6952 0.791271 16.7554 0.791271 16.8028 0.82005C16.8324 0.866172 16.8324 0.924653 16.8028 0.970775C16.4891 1.66882 15.9593 2.25428 15.2871 2.64553C15.8757 2.57918 16.454 2.44424 17.0095 2.24359C17.0563 2.21265 17.1177 2.21265 17.1645 2.24359C17.2037 2.26101 17.233 2.29432 17.2446 2.33466C17.2562 2.375 17.2489 2.41826 17.2248 2.45293Z" fill="black"/>
</svg>
