<svg width="213" height="200" viewBox="0 0 213 200" fill="none" xmlns="http://www.w3.org/2000/svg">
<path d="M58.0811 66.5045C58.0811 45.5076 75.1024 28.4863 96.0992 28.4863H108.063C129.06 28.4863 146.081 45.5076 146.081 66.5045V78.4682C146.081 99.465 129.06 116.486 108.063 116.486H96.0992C75.1024 116.486 58.0811 99.465 58.0811 78.4682V66.5045Z" fill="#303D48" fill-opacity="0.32"/>
<g clip-path="url(#clip0_2050_7657)">
<mask id="path-4-inside-1_2050_7657" fill="white">
<path d="M101.87 96.4865L94.6302 96.4865C83.5418 96.4865 77.0805 85.7369 77.0805 72.4939C77.0805 59.2509 83.5418 48.4863 94.6302 48.4863L101.87 48.4863"/>
</mask>
<path d="M94.6302 48.4863L94.6302 45.8101L94.6302 48.4863ZM101.87 93.8103L94.6302 93.8103L94.6302 99.1627L101.87 99.1627L101.87 93.8103ZM94.6302 93.8103C90.0757 93.8103 86.4669 91.6507 83.8988 87.9348C81.2811 84.1471 79.7567 78.7196 79.7567 72.4939L74.4043 72.4939C74.4043 79.5111 76.1106 86.08 79.4956 90.9779C82.9302 95.9475 88.0963 99.1627 94.6302 99.1627L94.6302 93.8103ZM79.7567 72.4939C79.7567 66.2681 81.2811 60.8364 83.8994 57.0446C86.4682 53.3245 90.0772 51.1625 94.6302 51.1625L94.6302 45.8101C88.0948 45.8101 82.9289 49.0305 79.495 54.0033C76.1106 58.9046 74.4043 65.4767 74.4043 72.4939L79.7567 72.4939ZM94.6302 51.1625L101.87 51.1625L101.87 45.8101L94.6302 45.8101L94.6302 51.1625Z" fill="#F3FBFD" mask="url(#path-4-inside-1_2050_7657)"/>
<path d="M98.0811 62.3809V83.8546" stroke="#F3FBFD" stroke-width="2.67618"/>
<path d="M104.397 66.1704V83.8547" stroke="#F3FBFD" stroke-width="2.67618"/>
<path d="M110.712 74.6606L110.712 83.8547" stroke="#F3FBFD" stroke-width="2.67618"/>
<path d="M109.081 66.4863L126.081 82.4863" stroke="#E0FB92" stroke-width="2.67618"/>
<path d="M118.081 82.4043L126.286 82.6916L125.999 74.4863" stroke="#E0FB92" stroke-width="2.67618" stroke-miterlimit="10"/>
<path d="M111.976 88.7809C108.919 92.8878 104.854 95.2234 100.584 95.2234C96.3135 95.2234 92.2484 92.9035 89.191 88.7809C86.1337 84.674 84.1865 78.9211 84.1865 72.4786C84.1865 66.0361 86.1166 60.299 89.174 56.192C92.2484 52.0694 96.2964 49.7495 100.566 49.7495C104.837 49.7495 108.902 52.0694 111.959 56.192" stroke="#F3FBFD" stroke-width="2.67618"/>
</g>
<path d="M6.22509 171.335V156.301H9.98369C12.3061 156.301 14.0708 156.95 15.2778 158.249C16.4848 159.532 17.0884 161.366 17.0884 163.749C17.0884 166.148 16.4848 168.012 15.2778 169.341C14.0861 170.671 12.3519 171.335 10.0754 171.335H6.22509ZM8.12731 169.777H9.84618C11.6032 169.777 12.9172 169.25 13.7881 168.196C14.6743 167.126 15.1174 165.644 15.1174 163.749C15.1174 161.855 14.6743 160.403 13.7881 159.395C12.9172 158.371 11.6032 157.859 9.84618 157.859H8.12731V169.777ZM24.6568 171.61C23.6636 171.61 22.7622 171.381 21.9524 170.923C21.1426 170.449 20.5009 169.777 20.0273 168.906C19.5536 168.035 19.3168 166.996 19.3168 165.789C19.3168 164.567 19.5536 163.52 20.0273 162.649C20.5162 161.778 21.1426 161.106 21.9066 160.632C22.6705 160.159 23.4727 159.922 24.313 159.922C25.7339 159.922 26.8264 160.396 27.5903 161.343C28.3695 162.29 28.7591 163.558 28.7591 165.147C28.7591 165.346 28.7515 165.545 28.7362 165.743C28.7362 165.927 28.7209 166.087 28.6904 166.225H21.1732C21.2496 167.401 21.6163 168.341 22.2733 169.043C22.9455 169.746 23.8164 170.098 24.8859 170.098C25.4207 170.098 25.9096 170.021 26.3527 169.869C26.8111 169.7 27.2465 169.487 27.6591 169.227L28.3237 170.464C27.85 170.77 27.3076 171.037 26.6965 171.267C26.1006 171.496 25.4207 171.61 24.6568 171.61ZM21.1503 164.872H27.109C27.109 163.742 26.8646 162.886 26.3756 162.306C25.902 161.71 25.2297 161.412 24.3588 161.412C23.5796 161.412 22.8768 161.717 22.2503 162.328C21.6392 162.924 21.2725 163.772 21.1503 164.872ZM31.8323 171.335V161.733H30.3197V160.312L31.8323 160.197V158.432C31.8323 157.302 32.0921 156.408 32.6116 155.751C33.1463 155.079 33.9714 154.742 35.0867 154.742C35.4381 154.742 35.7743 154.781 36.0951 154.857C36.416 154.918 36.6987 155.002 36.9431 155.109L36.5306 156.553C36.1181 156.37 35.6979 156.278 35.2701 156.278C34.2311 156.278 33.7116 156.996 33.7116 158.432V160.197H36.0722V161.733H33.7116V171.335H31.8323ZM40.1973 171.61C39.4945 171.61 38.9827 171.396 38.6618 170.969C38.3562 170.526 38.2034 169.899 38.2034 169.089V155.018H40.0827V169.227C40.0827 169.517 40.1362 169.731 40.2432 169.869C40.3501 169.991 40.4724 170.052 40.6099 170.052C40.671 170.052 40.7245 170.052 40.7703 170.052C40.8314 170.037 40.9154 170.021 41.0224 170.006L41.2745 171.427C41.1523 171.488 41.0071 171.534 40.839 171.565C40.671 171.595 40.4571 171.61 40.1973 171.61ZM46.6118 171.61C45.6798 171.61 44.9005 171.335 44.2741 170.785C43.6629 170.22 43.3574 169.441 43.3574 168.448C43.3574 167.225 43.8998 166.293 44.9846 165.652C46.0846 164.995 47.8188 164.536 50.187 164.276C50.187 163.803 50.1183 163.352 49.9808 162.924C49.8585 162.497 49.6293 162.153 49.2932 161.893C48.9724 161.618 48.5063 161.48 47.8952 161.48C47.2535 161.48 46.65 161.603 46.0846 161.847C45.5193 162.092 45.0151 162.367 44.572 162.672L43.8387 161.366C44.3581 161.03 44.9922 160.709 45.7409 160.403C46.5048 160.082 47.3299 159.922 48.216 159.922C49.5759 159.922 50.5614 160.342 51.1725 161.183C51.7837 162.008 52.0892 163.115 52.0892 164.506V171.335H50.5308L50.3704 170.006H50.3016C49.7821 170.434 49.2092 170.808 48.5827 171.129C47.9716 171.45 47.3146 171.61 46.6118 171.61ZM47.1618 170.098C47.6966 170.098 48.2008 169.968 48.6744 169.708C49.1481 169.448 49.6523 169.082 50.187 168.608V165.514C48.3383 165.743 47.0396 166.087 46.2909 166.545C45.5575 167.004 45.1908 167.592 45.1908 168.31C45.1908 168.937 45.3818 169.395 45.7638 169.685C46.1458 169.96 46.6118 170.098 47.1618 170.098ZM58.7867 171.61C57.595 171.61 56.7623 171.267 56.2887 170.579C55.8303 169.891 55.6011 168.998 55.6011 167.898V161.733H53.951V160.312L55.6928 160.197L55.922 157.08H57.5033V160.197H60.5056V161.733H57.5033V167.921C57.5033 168.608 57.6256 169.143 57.87 169.525C58.1298 169.891 58.5805 170.075 59.2222 170.075C59.4208 170.075 59.6347 170.044 59.8639 169.983C60.0931 169.907 60.2994 169.838 60.4827 169.777L60.8494 171.198C60.5438 171.305 60.2077 171.396 59.841 171.473C59.4896 171.565 59.1382 171.61 58.7867 171.61ZM63.0241 171.335V160.197H64.9034V171.335H63.0241ZM63.9867 157.905C63.62 157.905 63.3144 157.798 63.07 157.584C62.8408 157.355 62.7262 157.05 62.7262 156.668C62.7262 156.301 62.8408 156.003 63.07 155.774C63.3144 155.545 63.62 155.43 63.9867 155.43C64.3534 155.43 64.6513 155.545 64.8805 155.774C65.125 156.003 65.2472 156.301 65.2472 156.668C65.2472 157.05 65.125 157.355 64.8805 157.584C64.6513 157.798 64.3534 157.905 63.9867 157.905ZM72.9957 171.61C72.0943 171.61 71.2463 171.381 70.4518 170.923C69.6726 170.464 69.0385 169.8 68.5496 168.929C68.0759 168.058 67.8391 167.011 67.8391 165.789C67.8391 164.536 68.0759 163.474 68.5496 162.603C69.0385 161.733 69.6726 161.068 70.4518 160.61C71.2463 160.151 72.0943 159.922 72.9957 159.922C73.9125 159.922 74.7604 160.151 75.5397 160.61C76.3189 161.068 76.9453 161.733 77.419 162.603C77.9079 163.474 78.1523 164.536 78.1523 165.789C78.1523 167.011 77.9079 168.058 77.419 168.929C76.9453 169.8 76.3189 170.464 75.5397 170.923C74.7604 171.381 73.9125 171.61 72.9957 171.61ZM72.9957 170.052C73.9583 170.052 74.7299 169.662 75.3105 168.883C75.9064 168.089 76.2043 167.057 76.2043 165.789C76.2043 164.506 75.9064 163.467 75.3105 162.672C74.7299 161.878 73.9583 161.48 72.9957 161.48C72.0484 161.48 71.2769 161.878 70.681 162.672C70.0851 163.467 69.7872 164.506 69.7872 165.789C69.7872 167.057 70.0851 168.089 70.681 168.883C71.2769 169.662 72.0484 170.052 72.9957 170.052ZM81.0857 171.335V160.197H82.6441L82.8046 161.801H82.8733C83.4081 161.267 83.9734 160.823 84.5693 160.472C85.1652 160.105 85.8451 159.922 86.609 159.922C87.7855 159.922 88.6411 160.296 89.1759 161.045C89.7259 161.778 90.0009 162.856 90.0009 164.276V171.335H88.1216V164.529C88.1216 163.49 87.9536 162.733 87.6174 162.26C87.2813 161.786 86.7465 161.549 86.0131 161.549C85.4478 161.549 84.936 161.694 84.4776 161.985C84.0345 162.275 83.5303 162.703 82.965 163.268V171.335H81.0857ZM96.186 171.61C95.254 171.61 94.4748 171.335 93.8483 170.785C93.2372 170.22 92.9316 169.441 92.9316 168.448C92.9316 167.225 93.474 166.293 94.5588 165.652C95.6589 164.995 97.393 164.536 99.7612 164.276C99.7612 163.803 99.6925 163.352 99.555 162.924C99.4328 162.497 99.2036 162.153 98.8674 161.893C98.5466 161.618 98.0806 161.48 97.4694 161.48C96.8277 161.48 96.2242 161.603 95.6589 161.847C95.0936 162.092 94.5894 162.367 94.1463 162.672L93.4129 161.366C93.9324 161.03 94.5664 160.709 95.3151 160.403C96.079 160.082 96.9041 159.922 97.7903 159.922C99.1501 159.922 100.136 160.342 100.747 161.183C101.358 162.008 101.663 163.115 101.663 164.506V171.335H100.105L99.9446 170.006H99.8758C99.3564 170.434 98.7834 170.808 98.157 171.129C97.5458 171.45 96.8888 171.61 96.186 171.61ZM96.736 170.098C97.2708 170.098 97.775 169.968 98.2486 169.708C98.7223 169.448 99.2265 169.082 99.7612 168.608V165.514C97.9125 165.743 96.6138 166.087 95.8651 166.545C95.1318 167.004 94.7651 167.592 94.7651 168.31C94.7651 168.937 94.956 169.395 95.338 169.685C95.72 169.96 96.186 170.098 96.736 170.098ZM105.168 171.335V160.197H106.726L106.887 162.214H106.955C107.337 161.511 107.803 160.953 108.353 160.541C108.903 160.128 109.492 159.922 110.118 159.922C110.561 159.922 110.959 159.998 111.31 160.151L110.943 161.801C110.76 161.74 110.592 161.694 110.439 161.664C110.286 161.633 110.095 161.618 109.866 161.618C109.392 161.618 108.896 161.809 108.376 162.191C107.872 162.573 107.429 163.238 107.047 164.185V171.335H105.168ZM113.878 176.125C113.634 176.125 113.397 176.102 113.168 176.056C112.954 176.011 112.755 175.957 112.572 175.896L112.939 174.406C113.061 174.437 113.198 174.467 113.351 174.498C113.504 174.544 113.649 174.567 113.787 174.567C114.413 174.567 114.933 174.338 115.345 173.879C115.758 173.436 116.079 172.871 116.308 172.183L116.56 171.358L112.091 160.197H114.039L116.308 166.362C116.476 166.836 116.651 167.348 116.835 167.898C117.033 168.448 117.217 168.982 117.385 169.502H117.477C117.645 168.998 117.805 168.471 117.958 167.921C118.111 167.37 118.263 166.851 118.416 166.362L120.41 160.197H122.244L118.05 172.252C117.79 172.985 117.477 173.642 117.11 174.223C116.758 174.804 116.315 175.262 115.781 175.598C115.261 175.95 114.627 176.125 113.878 176.125ZM134.848 171.61C133.596 171.61 132.473 171.305 131.479 170.694C130.502 170.067 129.722 169.173 129.142 168.012C128.576 166.851 128.294 165.453 128.294 163.818C128.294 162.199 128.584 160.808 129.165 159.647C129.745 158.486 130.54 157.592 131.548 156.966C132.557 156.339 133.695 156.026 134.963 156.026C135.88 156.026 136.69 156.217 137.392 156.599C138.095 156.966 138.66 157.393 139.088 157.882L138.057 159.12C137.66 158.692 137.209 158.348 136.705 158.089C136.201 157.829 135.628 157.699 134.986 157.699C134.039 157.699 133.206 157.951 132.488 158.455C131.785 158.944 131.235 159.639 130.838 160.541C130.456 161.442 130.265 162.519 130.265 163.772C130.265 165.025 130.456 166.118 130.838 167.05C131.22 167.966 131.754 168.677 132.442 169.181C133.145 169.685 133.97 169.937 134.917 169.937C135.635 169.937 136.277 169.785 136.842 169.479C137.408 169.173 137.927 168.761 138.401 168.241L139.455 169.433C138.859 170.121 138.187 170.655 137.438 171.037C136.69 171.419 135.826 171.61 134.848 171.61ZM142.258 171.335V156.301H144.16V162.603H151.15V156.301H153.075V171.335H151.15V164.254H144.16V171.335H142.258ZM159.798 162.924L159.088 165.216H163.602L162.892 162.924C162.617 162.084 162.357 161.251 162.113 160.426C161.868 159.586 161.624 158.73 161.379 157.859H161.288C161.059 158.73 160.822 159.586 160.577 160.426C160.333 161.251 160.073 162.084 159.798 162.924ZM155.214 171.335L160.302 156.301H162.457L167.544 171.335H165.505L164.084 166.752H158.606L157.162 171.335H155.214ZM169.675 171.335V156.301H171.646L177.077 165.743L178.704 168.86H178.796C178.75 168.096 178.697 167.309 178.636 166.5C178.59 165.675 178.567 164.865 178.567 164.07V156.301H180.377V171.335H178.406L172.952 161.87L171.325 158.776H171.233C171.294 159.525 171.348 160.296 171.393 161.091C171.455 161.885 171.485 162.68 171.485 163.474V171.335H169.675ZM190.426 171.61C189.112 171.61 187.943 171.305 186.92 170.694C185.896 170.067 185.094 169.173 184.513 168.012C183.933 166.851 183.642 165.453 183.642 163.818C183.642 162.199 183.94 160.808 184.536 159.647C185.132 158.486 185.949 157.592 186.988 156.966C188.027 156.339 189.212 156.026 190.541 156.026C191.58 156.026 192.451 156.225 193.153 156.622C193.872 157.004 194.445 157.424 194.872 157.882L193.818 159.12C193.436 158.723 192.993 158.386 192.489 158.111C191.985 157.836 191.351 157.699 190.587 157.699C189.578 157.699 188.7 157.951 187.951 158.455C187.202 158.944 186.622 159.639 186.209 160.541C185.812 161.442 185.613 162.519 185.613 163.772C185.613 165.667 186.041 167.172 186.897 168.287C187.768 169.387 189.005 169.937 190.61 169.937C191.144 169.937 191.656 169.861 192.145 169.708C192.634 169.54 193.024 169.319 193.314 169.043V165.124H190.128V163.543H195.056V169.869C194.582 170.373 193.94 170.793 193.131 171.129C192.336 171.45 191.435 171.61 190.426 171.61ZM198.658 171.335V156.301H207.321V157.905H200.56V162.626H206.267V164.254H200.56V169.708H207.55V171.335H198.658Z" fill="white"/>
<circle cx="145.893" cy="106.129" r="13.9162" fill="#E0FB92"/>
<path d="M138.402 106.075H153.281" stroke="#141414" stroke-width="1.60571"/>
<path d="M145.844 98.6356V113.515" stroke="#141414" stroke-width="1.60571"/>
<defs>
<clipPath id="clip0_2050_7657">
<rect width="56" height="56" fill="white" transform="translate(74.0811 44.4863)"/>
</clipPath>
</defs>
</svg>
