<svg width="40" height="40" viewBox="0 0 40 40" fill="none" xmlns="http://www.w3.org/2000/svg">
<g clip-path="url(#clip0_416_4379)">
<path d="M6 40H30C31.5913 40 33.1174 39.3679 34.2426 38.2426C35.3679 37.1174 36 35.5913 36 34V10C36 8.4087 35.3679 6.88258 34.2426 5.75736C33.1174 4.63214 31.5913 4 30 4H6C4.4087 4 2.88258 4.63214 1.75736 5.75736C0.632141 6.88258 0 8.4087 0 10L0 34C0 35.5913 0.632141 37.1174 1.75736 38.2426C2.88258 39.3679 4.4087 40 6 40Z" fill="url(#paint0_linear_416_4379)"/>
<g clip-path="url(#clip1_416_4379)">
<path d="M10.625 11.5875L31.55 25.875L26.375 33.525L5.45001 19.125L10.625 11.5875Z" fill="url(#paint1_linear_416_4379)"/>
<path d="M31.55 25.875C29.75 28.4625 23.675 27.45 17.9375 23.4C12.0875 19.4625 8.9375 14.175 10.625 11.5875C12.425 9 18.5 10.0125 24.2375 14.0625C30.0875 17.8875 33.2375 23.2875 31.55 25.875Z" fill="url(#paint2_linear_416_4379)"/>
<path d="M26.375 33.4125C24.575 36 18.5 34.9875 12.7625 30.9375C7.02502 26.8875 3.76252 21.7125 5.56252 19.0125C7.36252 16.425 13.4375 17.4375 19.175 21.4875C24.9125 25.5375 28.0625 30.825 26.375 33.4125Z" fill="url(#paint3_linear_416_4379)"/>
<path d="M31.55 25.875L26.375 33.525C24.575 36.1125 18.5 34.9875 12.7625 31.05C11.6375 30.2625 10.625 29.475 9.61255 28.575C10.4 28.4625 11.4125 28.0125 12.425 26.8875C14.225 24.975 15.125 24.525 15.9125 24.6375C16.7 24.6375 17.6 25.425 19.0625 27.3375C20.525 29.25 22.55 29.8125 23.7875 28.8C23.9 28.6875 24.0125 28.6875 24.125 28.575C25.1375 27.7875 25.475 27.45 27.3875 23.85C27.8375 22.95 29.4125 21.4875 31.55 22.1625C32.1125 23.625 32.1125 24.8625 31.55 25.875Z" fill="#0E0F23"/>
<path fill-rule="evenodd" clip-rule="evenodd" d="M30.7625 25.425C29.1875 27.675 23.675 26.55 18.3875 22.8375C12.9875 19.125 9.8375 14.4 11.4125 12.15C12.9875 9.9 18.5 11.025 23.7875 14.7375C29.075 18.45 32.225 23.175 30.7625 25.425ZM25.8125 22.05C25.025 23.175 22.325 22.6125 19.625 20.8125C17.0375 19.0125 15.4625 16.65 16.25 15.525C17.0375 14.4 19.7375 14.9625 22.4375 16.7625C25.025 18.5625 26.6 20.925 25.8125 22.05Z" fill="white"/>
<path d="M10.175 14.175C10.175 14.0625 10.0625 13.95 9.95004 14.0625C9.83754 14.175 9.72504 14.175 9.72504 14.2875C9.83754 14.625 9.95004 14.85 9.95004 15.075C9.95004 15.1875 10.0625 15.3 10.175 15.1875C10.2875 15.1875 10.4 15.075 10.2875 14.9625C10.2875 14.7375 10.2875 14.5125 10.175 14.175Z" fill="white"/>
<path d="M10.7375 15.975C10.7375 15.8625 10.625 15.75 10.5125 15.8625C10.4 15.975 10.4 15.975 10.4 16.0875C11.6375 18.9 14.225 21.9375 17.6 24.1875C17.7125 24.3 17.825 24.1875 17.9375 24.1875C18.05 24.075 17.9375 23.9625 17.9375 23.85C14.45 21.6 11.975 18.675 10.7375 15.975Z" fill="white"/>
<path d="M24.35 27C24.2375 27 24.125 27 24.125 27.1125C24.125 27.225 24.125 27.3375 24.2375 27.3375C24.575 27.45 25.025 27.5625 25.3625 27.675C25.475 27.675 25.5875 27.675 25.5875 27.5625C25.5875 27.45 25.5875 27.3375 25.475 27.3375C25.1375 27.225 24.6875 27.1125 24.35 27Z" fill="white"/>
<path d="M26.375 27.45C26.2625 27.45 26.15 27.5625 26.15 27.675C26.15 27.7875 26.2625 27.9 26.375 27.9C27.275 28.0125 28.2875 28.125 29.075 28.0125C29.1875 28.0125 29.3 27.9 29.3 27.7875C29.3 27.675 29.1875 27.5625 29.075 27.5625C28.175 27.675 27.275 27.5625 26.375 27.45Z" fill="white"/>
</g>
<path d="M32.5 15C36.6421 15 40 11.6421 40 7.5C40 3.35786 36.6421 0 32.5 0C28.3579 0 25 3.35786 25 7.5C25 11.6421 28.3579 15 32.5 15Z" fill="black"/>
<path fill-rule="evenodd" clip-rule="evenodd" d="M32.9 1.50002L36.5 7.5L32.6 9.28829L28.7963 7.6L32.3 1.50002L32.4 1.40002H32.5H32.6H32.7H32.8L32.9 1.50002ZM32.5 10.5L36.5 8.5L32.7 13.6C32.7 13.7 32.6 13.7 32.6 13.7H32.5H32.4L32.3 13.6L28.5 8.5L32.5 10.5Z" fill="white"/>
</g>
<defs>
<linearGradient id="paint0_linear_416_4379" x1="6.80486e-07" y1="-8" x2="53" y2="60.5" gradientUnits="userSpaceOnUse">
<stop stop-color="#E4C3FF"/>
<stop offset="1" stop-color="#757575"/>
</linearGradient>
<linearGradient id="paint1_linear_416_4379" x1="14.7247" y1="9.5561" x2="18.8744" y2="23.8056" gradientUnits="userSpaceOnUse">
<stop stop-color="#03B8FF"/>
<stop offset="1" stop-color="#FA52A0"/>
</linearGradient>
<linearGradient id="paint2_linear_416_4379" x1="18.142" y1="8.5608" x2="22.2918" y2="22.8104" gradientUnits="userSpaceOnUse">
<stop stop-color="#03B8FF"/>
<stop offset="1" stop-color="#FA52A0"/>
</linearGradient>
<linearGradient id="paint3_linear_416_4379" x1="11.318" y1="10.5481" x2="15.4678" y2="24.7977" gradientUnits="userSpaceOnUse">
<stop stop-color="#03B8FF"/>
<stop offset="1" stop-color="#FA52A0"/>
</linearGradient>
<clipPath id="clip0_416_4379">
<rect width="40" height="40" fill="white"/>
</clipPath>
<clipPath id="clip1_416_4379">
<rect width="27" height="27" fill="white" transform="translate(5 9)"/>
</clipPath>
</defs>
</svg>
