<svg width="30" height="31" viewBox="0 0 30 31" fill="none" xmlns="http://www.w3.org/2000/svg">
<g clip-path="url(#clip0_75_2470)">
<circle cx="14.5" cy="15.6387" r="10.5" fill="#1B242C"/>
<path d="M15.0001 0.738647C7.0471 0.738647 0.600098 7.18565 0.600098 15.1386C0.600098 23.0916 7.0471 29.5386 15.0001 29.5386C22.9531 29.5386 29.4001 23.0916 29.4001 15.1386C29.4001 7.18565 22.9531 0.738647 15.0001 0.738647ZM11.4751 21.1071H8.5591V11.7231H11.4751V21.1071ZM9.9991 10.5711C9.0781 10.5711 8.4826 9.91865 8.4826 9.11165C8.4826 8.28815 9.0961 7.65515 10.0366 7.65515C10.9771 7.65515 11.5531 8.28815 11.5711 9.11165C11.5711 9.91865 10.9771 10.5711 9.9991 10.5711ZM22.1251 21.1071H19.2091V15.9066C19.2091 14.6961 18.7861 13.8741 17.7316 13.8741C16.9261 13.8741 16.4476 14.4306 16.2361 14.9661C16.1581 15.1566 16.1386 15.4266 16.1386 15.6951V21.1056H13.2211V14.7156C13.2211 13.5441 13.1836 12.5646 13.1446 11.7216H15.6781L15.8116 13.0251H15.8701C16.2541 12.4131 17.1946 11.5101 18.7681 11.5101C20.6866 11.5101 22.1251 12.7956 22.1251 15.5586V21.1071Z" fill="#E0FB92"/>
</g>
<defs>
<clipPath id="clip0_75_2470">
<rect width="30" height="30" fill="white" transform="translate(0 0.138672)"/>
</clipPath>
</defs>
</svg>
