<svg width="40" height="40" viewBox="0 0 40 40" fill="none" xmlns="http://www.w3.org/2000/svg">
<g clip-path="url(#clip0_45_143)">
<path d="M6 4H30C31.5913 4 33.1174 4.63214 34.2426 5.75736C35.3679 6.88258 36 8.4087 36 10V34C36 35.5913 35.3679 37.1174 34.2426 38.2426C33.1174 39.3679 31.5913 40 30 40H6C4.4087 40 2.88258 39.3679 1.75736 38.2426C0.632141 37.1174 0 35.5913 0 34L0 10C0 8.4087 0.632141 6.88258 1.75736 5.75736C2.88258 4.63214 4.4087 4 6 4Z" fill="#F5F5F5"/>
<path d="M32.5 15C36.6421 15 40 11.6421 40 7.5C40 3.35786 36.6421 0 32.5 0C28.3579 0 25 3.35786 25 7.5C25 11.6421 28.3579 15 32.5 15Z" fill="black"/>
<path fill-rule="evenodd" clip-rule="evenodd" d="M32.9 1.50002L36.5 7.5L32.6 9.28829L28.7963 7.6L32.3 1.50002L32.4 1.40002H32.5H32.6H32.7H32.8L32.9 1.50002ZM32.5 10.5L36.5 8.5L32.7 13.6C32.7 13.7 32.6 13.7 32.6 13.7H32.5H32.4L32.3 13.6L28.5 8.5L32.5 10.5Z" fill="white"/>
<path d="M31 31.33L18 23.5L5 31.36L31 31.33Z" fill="#662D91"/>
<path d="M18.0042 9L18 23L23.5 27L31 31.36L18.0042 9Z" fill="#9E1F63"/>
<path d="M5 31.36L18 23.5V9L5 31.36Z" fill="#FF5000"/>
<path d="M17.9884 17.84L12.8 26.68H23.2L17.9884 17.84Z" fill="#F5F5F5" stroke="#F5F5F5" stroke-miterlimit="10"/>
</g>
<defs>
<clipPath id="clip0_45_143">
<rect width="40" height="40" fill="white"/>
</clipPath>
</defs>
</svg>
