<svg width="40" height="40" viewBox="0 0 40 40" fill="none" xmlns="http://www.w3.org/2000/svg">
<g clip-path="url(#clip0_45_97)">
<path d="M6 4H30C31.5913 4 33.1174 4.63214 34.2426 5.75736C35.3679 6.88258 36 8.4087 36 10V34C36 35.5913 35.3679 37.1174 34.2426 38.2426C33.1174 39.3679 31.5913 40 30 40H6C4.4087 40 2.88258 39.3679 1.75736 38.2426C0.632141 37.1174 0 35.5913 0 34L0 10C0 8.4087 0.632141 6.88258 1.75736 5.75736C2.88258 4.63214 4.4087 4 6 4Z" fill="#6747ED"/>
<path fill-rule="evenodd" clip-rule="evenodd" d="M15.948 23.2466C13.0089 23.2466 10.6493 20.8871 10.6493 17.948C10.6493 15.0089 13.0089 12.6493 15.948 12.6493C18.8871 12.6493 21.2466 15.0089 21.2466 17.948C21.2466 20.8871 18.8871 23.2466 15.948 23.2466ZM15.948 10C20.3359 10 23.896 13.56 23.896 17.948C23.896 22.3359 20.3359 25.896 15.948 25.896C11.56 25.896 8 22.3359 8 17.948C8 13.56 11.56 10 15.948 10ZM23.5234 26.3099C24.0616 26.8481 24.0616 27.676 23.5234 28.1727L18.2248 33.4714C17.6866 34.0095 16.8587 34.0095 16.3619 33.4714C15.8238 32.9333 15.8238 32.1053 16.3619 31.6086L21.6606 26.3099C22.1574 25.7718 23.0267 25.7718 23.5234 26.3099ZM26.5867 11.3247C26.5867 12.0698 26.0072 12.6493 25.262 12.6493C24.5169 12.6493 23.9374 12.0698 23.9374 11.3247C23.9374 10.5795 24.5169 10 25.262 10C25.9658 10 26.5867 10.5795 26.5867 11.3247Z" fill="white"/>
<path d="M32.5 15C36.6421 15 40 11.6421 40 7.5C40 3.35786 36.6421 0 32.5 0C28.3579 0 25 3.35786 25 7.5C25 11.6421 28.3579 15 32.5 15Z" fill="black"/>
<path fill-rule="evenodd" clip-rule="evenodd" d="M32.9 1.50002L36.5 7.5L32.6 9.28829L28.7963 7.6L32.3 1.50002L32.4 1.40002H32.5H32.6H32.7H32.8L32.9 1.50002ZM32.5 10.5L36.5 8.5L32.7 13.6C32.7 13.7 32.6 13.7 32.6 13.7H32.5H32.4L32.3 13.6L28.5 8.5L32.5 10.5Z" fill="white"/>
</g>
<defs>
<clipPath id="clip0_45_97">
<rect width="40" height="40" fill="white"/>
</clipPath>
</defs>
</svg>
