<svg width="40" height="40" viewBox="0 0 40 40" fill="none" xmlns="http://www.w3.org/2000/svg">
<g clip-path="url(#clip0_45_60)">
<path d="M6 4H30C31.5913 4 33.1174 4.63214 34.2426 5.75736C35.3679 6.88258 36 8.4087 36 10V34C36 35.5913 35.3679 37.1174 34.2426 38.2426C33.1174 39.3679 31.5913 40 30 40H6C4.4087 40 2.88258 39.3679 1.75736 38.2426C0.632141 37.1174 0 35.5913 0 34L0 10C0 8.4087 0.632141 6.88258 1.75736 5.75736C2.88258 4.63214 4.4087 4 6 4Z" fill="#F7F7F7"/>
<path d="M32.5 15C36.6421 15 40 11.6421 40 7.5C40 3.35786 36.6421 0 32.5 0C28.3579 0 25 3.35786 25 7.5C25 11.6421 28.3579 15 32.5 15Z" fill="black"/>
<path fill-rule="evenodd" clip-rule="evenodd" d="M32.9 1.50002L36.5 7.5L32.6 9.28829L28.7963 7.6L32.3 1.50002L32.4 1.40002H32.5H32.6H32.7H32.8L32.9 1.50002ZM32.5 10.5L36.5 8.5L32.7 13.6C32.7 13.7 32.6 13.7 32.6 13.7H32.5H32.4L32.3 13.6L28.5 8.5L32.5 10.5Z" fill="white"/>
<g clip-path="url(#clip1_45_60)">
<path d="M20.8227 15.6122C20.8227 11.5946 18.9 8.13319 17.4273 7C17.4273 7 17.325 6.93819 17.325 7.10302C17.2023 14.8705 13.2955 16.9926 11.1273 19.8153C6.15682 26.3672 10.7795 33.5372 15.4841 34.8558C18.1227 35.5975 14.8705 33.5372 14.4614 29.2104C13.9705 23.9566 20.8227 19.9595 20.8227 15.6122Z" fill="#282E5B"/>
<path d="M23.4 18.2701C23.3795 18.2495 23.3386 18.2495 23.2977 18.2701C23.2977 18.2701 23.2977 18.2701 23.2773 18.2907C23.1954 19.259 22.1318 21.3606 20.8023 23.2767C16.2818 29.7874 18.8591 32.9191 20.3114 34.6085C21.15 35.5975 20.3114 34.6085 22.4182 33.599C22.5818 33.5166 26.5091 31.415 26.9386 26.6556C27.3682 22.0199 24.4432 19.1148 23.4 18.2701Z" fill="#059BDC"/>
</g>
</g>
<defs>
<clipPath id="clip0_45_60">
<rect width="40" height="40" fill="white"/>
</clipPath>
<clipPath id="clip1_45_60">
<rect width="18" height="28" fill="white" transform="translate(9 7)"/>
</clipPath>
</defs>
</svg>
