<svg width="214" height="200" viewBox="0 0 214 200" fill="none" xmlns="http://www.w3.org/2000/svg">
<path d="M58.6787 67.2142C58.6787 46.2173 75.7 29.196 96.6968 29.196H108.661C129.657 29.196 146.679 46.2173 146.679 67.2142V79.1779C146.679 100.175 129.657 117.196 108.661 117.196H96.6968C75.7 117.196 58.6787 100.175 58.6787 79.1779V67.2142Z" fill="#303D48" fill-opacity="0.32"/>
<g clip-path="url(#clip0_2050_7597)">
<path d="M107.487 60.7721C109.647 63.5951 112.641 65.9048 114.78 68.7919C120.661 76.7048 122.094 88.1571 114.331 95.4605C111.134 98.4653 106.632 100.101 101.018 99.7164C95.4042 99.3314 91.1697 97.0859 88.4216 93.6748C85.1923 89.6542 84.1444 84.3825 84.6683 79.3353C85.1281 74.8015 86.839 68.6957 90.2181 65.4236C90.8703 67.0276 91.3194 68.5781 92.5812 69.904L94.26 71.6684L94.4311 69.2411C94.4418 69.0807 94.4525 68.8882 94.4632 68.6636C94.9337 60.4727 97.5428 50.6672 105.862 47.1919C105.616 48.165 105.359 49.4161 105.199 50.8062C104.846 53.9713 105.124 57.3717 106.985 60.0771C107.156 60.323 107.327 60.5583 107.498 60.7828L107.487 60.7721Z" stroke="#F3FBFD" stroke-width="2.67618"/>
<circle cx="102.679" cy="89.196" r="10.6619" stroke="#E0FB92" stroke-width="2.67618"/>
</g>
<path d="M76.5822 172.045V157.011H81.0512C82.0749 157.011 82.9687 157.133 83.7327 157.377C84.5119 157.622 85.1154 158.011 85.5432 158.546C85.9863 159.081 86.2079 159.791 86.2079 160.677C86.2079 161.426 86.0169 162.106 85.6349 162.717C85.2682 163.313 84.7258 163.726 84.0077 163.955V164.046C84.9092 164.215 85.6425 164.596 86.2079 165.192C86.7885 165.788 87.0788 166.606 87.0788 167.645C87.0788 168.622 86.8343 169.44 86.3454 170.097C85.8717 170.754 85.2071 171.243 84.3515 171.564C83.4959 171.884 82.5027 172.045 81.3721 172.045H76.5822ZM78.4844 163.405H80.7075C81.9909 163.405 82.9153 163.183 83.4806 162.74C84.0459 162.297 84.3286 161.693 84.3286 160.93C84.3286 160.059 84.0306 159.44 83.4347 159.073C82.8541 158.706 81.9756 158.523 80.7991 158.523H78.4844V163.405ZM78.4844 170.532H81.0971C82.3958 170.532 83.4042 170.295 84.1223 169.822C84.8404 169.333 85.1995 168.584 85.1995 167.576C85.1995 166.644 84.8404 165.964 84.1223 165.536C83.4195 165.093 82.4111 164.871 81.0971 164.871H78.4844V170.532ZM93.1267 172.32C91.9502 172.32 91.0869 171.953 90.5369 171.22C89.9869 170.471 89.7118 169.386 89.7118 167.965V160.907H91.6141V167.713C91.6141 168.752 91.7745 169.509 92.0954 169.982C92.4315 170.456 92.9662 170.693 93.6996 170.693C94.2802 170.693 94.7921 170.548 95.2352 170.257C95.6935 169.952 96.1824 169.47 96.7019 168.813V160.907H98.5812V172.045H97.0228L96.8624 170.303H96.7936C96.2741 170.914 95.7241 171.403 95.1435 171.77C94.5629 172.137 93.8906 172.32 93.1267 172.32ZM102.339 172.045V160.907H103.897L104.057 162.923H104.126C104.508 162.221 104.974 161.663 105.524 161.25C106.074 160.838 106.662 160.632 107.289 160.632C107.732 160.632 108.129 160.708 108.481 160.861L108.114 162.511C107.931 162.45 107.763 162.404 107.61 162.373C107.457 162.343 107.266 162.328 107.037 162.328C106.563 162.328 106.067 162.519 105.547 162.901C105.043 163.282 104.6 163.947 104.218 164.894V172.045H102.339ZM110.284 172.045V160.907H111.842L112.003 162.511H112.072C112.606 161.976 113.172 161.533 113.767 161.182C114.363 160.815 115.043 160.632 115.807 160.632C116.984 160.632 117.839 161.006 118.374 161.755C118.924 162.488 119.199 163.565 119.199 164.986V172.045H117.32V165.238C117.32 164.199 117.152 163.443 116.816 162.969C116.479 162.496 115.945 162.259 115.211 162.259C114.646 162.259 114.134 162.404 113.676 162.694C113.233 162.985 112.728 163.412 112.163 163.978V172.045H110.284ZM127.589 172.045V157.011H129.491V172.045H127.589ZM136.932 172.32C135.741 172.32 134.908 171.976 134.434 171.289C133.976 170.601 133.747 169.707 133.747 168.607V162.442H132.097V161.021L133.839 160.907L134.068 157.79H135.649V160.907H138.651V162.442H135.649V168.63C135.649 169.318 135.771 169.852 136.016 170.234C136.275 170.601 136.726 170.784 137.368 170.784C137.567 170.784 137.78 170.754 138.01 170.693C138.239 170.616 138.445 170.548 138.628 170.486L138.995 171.907C138.69 172.014 138.353 172.106 137.987 172.182C137.635 172.274 137.284 172.32 136.932 172.32Z" fill="white"/>
<circle cx="146.49" cy="106.838" r="13.9162" fill="#E0FB92"/>
<path d="M139 106.784H153.879" stroke="#141414" stroke-width="1.60571"/>
<path d="M146.441 99.3447V114.224" stroke="#141414" stroke-width="1.60571"/>
<defs>
<clipPath id="clip0_2050_7597">
<rect width="56" height="56" fill="white" transform="translate(74.6787 45.196)"/>
</clipPath>
</defs>
</svg>
