<svg width="213" height="200" viewBox="0 0 213 200" fill="none" xmlns="http://www.w3.org/2000/svg">
<path d="M58.4771 70.5983C58.4771 48.1217 76.6979 29.9009 99.1745 29.9009H111.981C134.458 29.9009 152.679 48.1217 152.679 70.5983V83.4052C152.679 105.882 134.458 124.103 111.981 124.103H99.1745C76.6979 124.103 58.4771 105.882 58.4771 83.4052V70.5983Z" fill="#3418D8"/>
<g clip-path="url(#clip0_2050_7681)">
<path d="M105.053 99.4816L131.676 72.4809L120.505 59.874H89.5813L78.4106 72.4809L105.053 99.4816Z" stroke="#F3FBFD" stroke-width="2.67618"/>
<path d="M131.675 72.1663L79.7759 72.1663" stroke="#F3FBFD" stroke-width="2.67618"/>
<path d="M89.3369 60.027L97.3398 72.166L105.597 61.9288L113.58 72.166L121.433 60.0271" stroke="#F3FBFD" stroke-width="2.67618"/>
<path d="M113.921 72.1663L105.043 95.3845L96.1655 72.1663" stroke="#F3FBFD" stroke-width="2.67618"/>
<path d="M76.6753 55.5922C79.0424 55.5922 80.9572 57.507 80.9572 59.8741C80.9572 57.507 82.8719 55.5922 85.2391 55.5922C82.8719 55.5922 80.9572 53.6774 80.9572 51.3103C80.9572 53.6774 79.0424 55.5922 76.6753 55.5922V55.5922Z" stroke="#E0FB92" stroke-width="2.67618"/>
<path d="M124.847 89.8473C127.214 89.8473 129.129 91.7621 129.129 94.1292C129.129 91.7621 131.043 89.8473 133.41 89.8473C131.043 89.8473 129.129 87.9326 129.129 85.5654C129.129 87.9326 127.214 89.8473 124.847 89.8473V89.8473Z" stroke="#E0FB92" stroke-width="2.67618"/>
</g>
<path d="M29.4434 172.32C28.1294 172.32 26.9606 172.014 25.9369 171.403C24.9132 170.777 24.1111 169.883 23.5305 168.722C22.9499 167.561 22.6596 166.163 22.6596 164.528C22.6596 162.908 22.9575 161.518 23.5534 160.357C24.1493 159.195 24.9667 158.302 26.0056 157.675C27.0446 157.049 28.2287 156.736 29.558 156.736C30.5969 156.736 31.4678 156.934 32.1707 157.331C32.8888 157.713 33.4617 158.134 33.8895 158.592L32.8353 159.829C32.4533 159.432 32.0102 159.096 31.506 158.821C31.0018 158.546 30.3677 158.409 29.6038 158.409C28.5954 158.409 27.7169 158.661 26.9682 159.165C26.2195 159.654 25.6389 160.349 25.2264 161.25C24.8292 162.152 24.6305 163.229 24.6305 164.482C24.6305 166.376 25.0583 167.881 25.914 168.997C26.7849 170.097 28.0224 170.647 29.6267 170.647C30.1615 170.647 30.6733 170.571 31.1622 170.418C31.6512 170.25 32.0408 170.028 32.3311 169.753V165.834H29.1454V164.253H34.0729V170.578C33.5992 171.082 32.9575 171.503 32.1477 171.839C31.3532 172.16 30.4518 172.32 29.4434 172.32ZM37.492 172.045V160.907H39.0504L39.2109 162.923H39.2796C39.6616 162.221 40.1276 161.663 40.6776 161.25C41.2277 160.838 41.8159 160.632 42.4423 160.632C42.8854 160.632 43.2827 160.708 43.6341 160.861L43.2674 162.511C43.0841 162.45 42.916 162.404 42.7632 162.373C42.6104 162.343 42.4194 162.328 42.1902 162.328C41.7166 162.328 41.22 162.519 40.7006 162.901C40.1963 163.282 39.7533 163.947 39.3713 164.894V172.045H37.492ZM49.545 172.32C48.6436 172.32 47.7956 172.091 47.0011 171.632C46.2219 171.174 45.5878 170.509 45.0989 169.639C44.6252 168.768 44.3884 167.721 44.3884 166.499C44.3884 165.246 44.6252 164.184 45.0989 163.313C45.5878 162.442 46.2219 161.778 47.0011 161.319C47.7956 160.861 48.6436 160.632 49.545 160.632C50.4618 160.632 51.3097 160.861 52.089 161.319C52.8682 161.778 53.4946 162.442 53.9683 163.313C54.4572 164.184 54.7017 165.246 54.7017 166.499C54.7017 167.721 54.4572 168.768 53.9683 169.639C53.4946 170.509 52.8682 171.174 52.089 171.632C51.3097 172.091 50.4618 172.32 49.545 172.32ZM49.545 170.761C50.5076 170.761 51.2792 170.372 51.8598 169.593C52.4557 168.798 52.7536 167.767 52.7536 166.499C52.7536 165.215 52.4557 164.176 51.8598 163.382C51.2792 162.587 50.5076 162.19 49.545 162.19C48.5978 162.19 47.8262 162.587 47.2303 163.382C46.6344 164.176 46.3365 165.215 46.3365 166.499C46.3365 167.767 46.6344 168.798 47.2303 169.593C47.8262 170.372 48.5978 170.761 49.545 170.761ZM59.3102 172.045L56.2162 160.907H58.1414L59.7915 167.347C59.9137 167.866 60.0283 168.386 60.1353 168.905C60.2422 169.409 60.3492 169.921 60.4561 170.441H60.5478C60.67 169.921 60.7923 169.409 60.9145 168.905C61.0367 168.386 61.1666 167.866 61.3041 167.347L63.023 160.907H64.8564L66.5982 167.347C66.7357 167.866 66.8656 168.386 66.9878 168.905C67.1253 169.409 67.2552 169.921 67.3774 170.441H67.4691C67.5913 169.921 67.7059 169.409 67.8129 168.905C67.9351 168.386 68.0497 167.866 68.1567 167.347L69.7839 160.907H71.5715L68.5921 172.045H66.3003L64.696 166.063C64.5585 165.528 64.4286 165.001 64.3064 164.482C64.1994 163.962 64.0772 163.42 63.9397 162.855H63.848C63.7258 163.42 63.6036 163.97 63.4813 164.505C63.3591 165.024 63.2216 165.551 63.0688 166.086L61.5104 172.045H59.3102ZM81.1964 172.045V166.224L76.6815 157.011H78.7213L80.6693 161.25C80.9138 161.8 81.1506 162.343 81.3798 162.878C81.6243 163.412 81.8687 163.962 82.1132 164.528H82.2049C82.4646 163.962 82.7243 163.412 82.9841 162.878C83.2438 162.343 83.4883 161.8 83.7175 161.25L85.6426 157.011H87.6365L83.1216 166.224V172.045H81.1964ZM92.8749 172.32C91.9735 172.32 91.1255 172.091 90.331 171.632C89.5518 171.174 88.9177 170.509 88.4288 169.639C87.9551 168.768 87.7183 167.721 87.7183 166.499C87.7183 165.246 87.9551 164.184 88.4288 163.313C88.9177 162.442 89.5518 161.778 90.331 161.319C91.1255 160.861 91.9735 160.632 92.8749 160.632C93.7917 160.632 94.6396 160.861 95.4189 161.319C96.1981 161.778 96.8245 162.442 97.2982 163.313C97.7871 164.184 98.0315 165.246 98.0315 166.499C98.0315 167.721 97.7871 168.768 97.2982 169.639C96.8245 170.509 96.1981 171.174 95.4189 171.632C94.6396 172.091 93.7917 172.32 92.8749 172.32ZM92.8749 170.761C93.8375 170.761 94.6091 170.372 95.1897 169.593C95.7855 168.798 96.0835 167.767 96.0835 166.499C96.0835 165.215 95.7855 164.176 95.1897 163.382C94.6091 162.587 93.8375 162.19 92.8749 162.19C91.9276 162.19 91.1561 162.587 90.5602 163.382C89.9643 164.176 89.6664 165.215 89.6664 166.499C89.6664 167.767 89.9643 168.798 90.5602 169.593C91.1561 170.372 91.9276 170.761 92.8749 170.761ZM104.219 172.32C103.043 172.32 102.18 171.953 101.63 171.22C101.079 170.471 100.804 169.386 100.804 167.965V160.907H102.707V167.713C102.707 168.752 102.867 169.509 103.188 169.982C103.524 170.456 104.059 170.693 104.792 170.693C105.373 170.693 105.885 170.548 106.328 170.257C106.786 169.952 107.275 169.47 107.795 168.813V160.907H109.674V172.045H108.115L107.955 170.303H107.886C107.367 170.914 106.817 171.403 106.236 171.77C105.656 172.137 104.983 172.32 104.219 172.32ZM113.431 172.045V160.907H114.99L115.15 162.923H115.219C115.601 162.221 116.067 161.663 116.617 161.25C117.167 160.838 117.755 160.632 118.382 160.632C118.825 160.632 119.222 160.708 119.573 160.861L119.207 162.511C119.023 162.45 118.855 162.404 118.702 162.373C118.55 162.343 118.359 162.328 118.129 162.328C117.656 162.328 117.159 162.519 116.64 162.901C116.136 163.282 115.692 163.947 115.311 164.894V172.045H113.431ZM127.798 172.045L124.612 157.011H126.583L128.165 165.192C128.302 166.002 128.447 166.812 128.6 167.622C128.753 168.431 128.898 169.241 129.036 170.051H129.127C129.295 169.241 129.471 168.431 129.654 167.622C129.838 166.797 130.014 165.987 130.182 165.192L132.267 157.011H134.009L136.095 165.192C136.278 165.987 136.461 166.797 136.645 167.622C136.828 168.431 137.011 169.241 137.195 170.051H137.286C137.424 169.241 137.561 168.431 137.699 167.622C137.836 166.797 137.981 165.987 138.134 165.192L139.716 157.011H141.549L138.432 172.045H136.14L133.871 162.992C133.734 162.412 133.604 161.846 133.482 161.296C133.375 160.731 133.26 160.158 133.138 159.577H133.046C132.939 160.158 132.817 160.731 132.68 161.296C132.542 161.846 132.412 162.412 132.29 162.992L130.067 172.045H127.798ZM148.496 172.32C147.503 172.32 146.602 172.091 145.792 171.632C144.982 171.159 144.341 170.486 143.867 169.616C143.393 168.745 143.156 167.706 143.156 166.499C143.156 165.276 143.393 164.23 143.867 163.359C144.356 162.488 144.982 161.816 145.746 161.342C146.51 160.868 147.312 160.632 148.153 160.632C149.574 160.632 150.666 161.105 151.43 162.053C152.209 163 152.599 164.268 152.599 165.857C152.599 166.056 152.591 166.254 152.576 166.453C152.576 166.636 152.561 166.797 152.53 166.934H145.013C145.089 168.111 145.456 169.05 146.113 169.753C146.785 170.456 147.656 170.807 148.726 170.807C149.26 170.807 149.749 170.731 150.192 170.578C150.651 170.41 151.086 170.196 151.499 169.936L152.163 171.174C151.69 171.48 151.147 171.747 150.536 171.976C149.94 172.205 149.26 172.32 148.496 172.32ZM144.99 165.582H150.949C150.949 164.451 150.704 163.596 150.215 163.015C149.742 162.419 149.069 162.121 148.198 162.121C147.419 162.121 146.716 162.427 146.09 163.038C145.479 163.634 145.112 164.482 144.99 165.582ZM157.605 172.32C156.673 172.32 155.893 172.045 155.267 171.495C154.656 170.93 154.35 170.15 154.35 169.157C154.35 167.935 154.893 167.003 155.977 166.361C157.077 165.704 158.812 165.246 161.18 164.986C161.18 164.512 161.111 164.062 160.974 163.634C160.851 163.206 160.622 162.862 160.286 162.603C159.965 162.328 159.499 162.19 158.888 162.19C158.246 162.19 157.643 162.312 157.077 162.557C156.512 162.801 156.008 163.076 155.565 163.382L154.831 162.075C155.351 161.739 155.985 161.418 156.734 161.113C157.498 160.792 158.323 160.632 159.209 160.632C160.569 160.632 161.554 161.052 162.165 161.892C162.776 162.717 163.082 163.825 163.082 165.215V172.045H161.524L161.363 170.716H161.294C160.775 171.143 160.202 171.518 159.576 171.839C158.964 172.16 158.307 172.32 157.605 172.32ZM158.155 170.807C158.689 170.807 159.194 170.677 159.667 170.418C160.141 170.158 160.645 169.791 161.18 169.318V166.224C159.331 166.453 158.032 166.797 157.284 167.255C156.55 167.713 156.184 168.302 156.184 169.02C156.184 169.646 156.375 170.105 156.757 170.395C157.139 170.67 157.605 170.807 158.155 170.807ZM168.58 172.32C167.877 172.32 167.366 172.106 167.045 171.678C166.739 171.235 166.586 170.609 166.586 169.799V155.727H168.466V169.936C168.466 170.227 168.519 170.441 168.626 170.578C168.733 170.7 168.855 170.761 168.993 170.761C169.054 170.761 169.107 170.761 169.153 170.761C169.214 170.746 169.298 170.731 169.405 170.716L169.657 172.137C169.535 172.198 169.39 172.244 169.222 172.274C169.054 172.305 168.84 172.32 168.58 172.32ZM175.934 172.32C174.743 172.32 173.91 171.976 173.436 171.289C172.978 170.601 172.749 169.707 172.749 168.607V162.442H171.099V161.021L172.84 160.907L173.07 157.79H174.651V160.907H177.653V162.442H174.651V168.63C174.651 169.318 174.773 169.852 175.018 170.234C175.277 170.601 175.728 170.784 176.37 170.784C176.568 170.784 176.782 170.754 177.012 170.693C177.241 170.616 177.447 170.548 177.63 170.486L177.997 171.907C177.691 172.014 177.355 172.106 176.989 172.182C176.637 172.274 176.286 172.32 175.934 172.32ZM180.172 172.045V155.727H182.051V160.173L181.982 162.465C182.517 161.961 183.075 161.533 183.655 161.182C184.251 160.815 184.931 160.632 185.695 160.632C186.872 160.632 187.727 161.006 188.262 161.755C188.812 162.488 189.087 163.565 189.087 164.986V172.045H187.208V165.238C187.208 164.199 187.04 163.443 186.703 162.969C186.367 162.496 185.833 162.259 185.099 162.259C184.534 162.259 184.022 162.404 183.564 162.694C183.121 162.985 182.616 163.412 182.051 163.978V172.045H180.172Z" fill="white"/>
<circle cx="145.584" cy="106.838" r="13.9162" fill="#E0FB92"/>
<path d="M138.094 106.784H152.973" stroke="#141414" stroke-width="1.60571"/>
<path d="M145.535 99.3447V114.224" stroke="#141414" stroke-width="1.60571"/>
<defs>
<clipPath id="clip0_2050_7681">
<rect width="59.9465" height="59.9465" fill="white" transform="translate(76.6753 48.0989)"/>
</clipPath>
</defs>
</svg>
