<svg width="214" height="200" viewBox="0 0 214 200" fill="none" xmlns="http://www.w3.org/2000/svg">
<path d="M58.6768 67.1896C58.6768 46.1928 75.6981 29.1715 96.6949 29.1715H108.659C129.655 29.1715 146.677 46.1928 146.677 67.1896V79.1534C146.677 100.15 129.655 117.172 108.659 117.172H96.6949C75.6981 117.172 58.6768 100.15 58.6768 79.1534V67.1896Z" fill="#303D48" fill-opacity="0.32"/>
<g clip-path="url(#clip0_2050_7634)">
<path d="M106.115 89.9462C116.822 89.9462 125.502 81.2662 125.502 70.5589C125.502 59.8515 116.822 51.1715 106.115 51.1715C95.4076 51.1715 86.7275 59.8515 86.7275 70.5589C86.7275 81.2662 95.4076 89.9462 106.115 89.9462Z" stroke="#F3FBFD" stroke-width="2.67618" stroke-miterlimit="10"/>
<path d="M98.1807 79.3806L115.007 62.5189" stroke="#F3FBFD" stroke-width="2.67618" stroke-miterlimit="10"/>
<path d="M112.053 81.3013C113.684 81.3013 115.006 79.9793 115.006 78.3487C115.006 76.718 113.684 75.3961 112.053 75.3961C110.422 75.3961 109.101 76.718 109.101 78.3487C109.101 79.9793 110.422 81.3013 112.053 81.3013Z" stroke="#F3FBFD" stroke-width="2.67618" stroke-miterlimit="10"/>
<path d="M101.276 66.5387C102.906 66.5387 104.228 65.2168 104.228 63.5861C104.228 61.9555 102.906 60.6335 101.276 60.6335C99.6452 60.6335 98.3232 61.9555 98.3232 63.5861C98.3232 65.2168 99.6452 66.5387 101.276 66.5387Z" stroke="#F3FBFD" stroke-width="2.67618" stroke-miterlimit="10"/>
<path d="M80.2509 96.8222L90.4129 86.6602" stroke="#E0FB92" stroke-width="2.67618" stroke-miterlimit="10"/>
<path d="M85.9542 82.4796L81.2959 87.1379" stroke="#E0FB92" stroke-width="2.67618" stroke-miterlimit="10"/>
<path d="M94.2303 90.7809L85.6773 99.334" stroke="#E0FB92" stroke-width="2.67618" stroke-miterlimit="10"/>
</g>
<path d="M16.8475 172.021V156.986H21.3166C22.3403 156.986 23.2341 157.108 23.998 157.353C24.7773 157.597 25.3808 157.987 25.8086 158.522C26.2517 159.056 26.4732 159.767 26.4732 160.653C26.4732 161.402 26.2822 162.082 25.9003 162.693C25.5336 163.289 24.9912 163.701 24.2731 163.93V164.022C25.1745 164.19 25.9079 164.572 26.4732 165.168C27.0538 165.764 27.3441 166.581 27.3441 167.62C27.3441 168.598 27.0997 169.415 26.6107 170.072C26.1371 170.729 25.4725 171.218 24.6168 171.539C23.7612 171.86 22.7681 172.021 21.6375 172.021H16.8475ZM18.7498 163.38H20.9728C22.2563 163.38 23.1806 163.159 23.7459 162.716C24.3113 162.273 24.5939 161.669 24.5939 160.905C24.5939 160.034 24.296 159.415 23.7001 159.049C23.1195 158.682 22.241 158.499 21.0645 158.499H18.7498V163.38ZM18.7498 170.508H21.3624C22.6611 170.508 23.6696 170.271 24.3877 169.797C25.1058 169.309 25.4648 168.56 25.4648 167.551C25.4648 166.619 25.1058 165.94 24.3877 165.512C23.6848 165.069 22.6764 164.847 21.3624 164.847H18.7498V170.508ZM34.4692 172.296C33.5677 172.296 32.7198 172.066 31.9253 171.608C31.146 171.15 30.512 170.485 30.0231 169.614C29.5494 168.743 29.3126 167.697 29.3126 166.474C29.3126 165.221 29.5494 164.16 30.0231 163.289C30.512 162.418 31.146 161.753 31.9253 161.295C32.7198 160.836 33.5677 160.607 34.4692 160.607C35.3859 160.607 36.2339 160.836 37.0131 161.295C37.7924 161.753 38.4188 162.418 38.8924 163.289C39.3814 164.16 39.6258 165.221 39.6258 166.474C39.6258 167.697 39.3814 168.743 38.8924 169.614C38.4188 170.485 37.7924 171.15 37.0131 171.608C36.2339 172.066 35.3859 172.296 34.4692 172.296ZM34.4692 170.737C35.4318 170.737 36.2033 170.347 36.7839 169.568C37.3798 168.774 37.6778 167.742 37.6778 166.474C37.6778 165.191 37.3798 164.152 36.7839 163.357C36.2033 162.563 35.4318 162.166 34.4692 162.166C33.5219 162.166 32.7503 162.563 32.1545 163.357C31.5586 164.152 31.2606 165.191 31.2606 166.474C31.2606 167.742 31.5586 168.774 32.1545 169.568C32.7503 170.347 33.5219 170.737 34.4692 170.737ZM46.8907 172.296C45.9893 172.296 45.1413 172.066 44.3468 171.608C43.5676 171.15 42.9335 170.485 42.4446 169.614C41.9709 168.743 41.7341 167.697 41.7341 166.474C41.7341 165.221 41.9709 164.16 42.4446 163.289C42.9335 162.418 43.5676 161.753 44.3468 161.295C45.1413 160.836 45.9893 160.607 46.8907 160.607C47.8075 160.607 48.6554 160.836 49.4347 161.295C50.2139 161.753 50.8403 162.418 51.314 163.289C51.8029 164.16 52.0473 165.221 52.0473 166.474C52.0473 167.697 51.8029 168.743 51.314 169.614C50.8403 170.485 50.2139 171.15 49.4347 171.608C48.6554 172.066 47.8075 172.296 46.8907 172.296ZM46.8907 170.737C47.8533 170.737 48.6249 170.347 49.2055 169.568C49.8014 168.774 50.0993 167.742 50.0993 166.474C50.0993 165.191 49.8014 164.152 49.2055 163.357C48.6249 162.563 47.8533 162.166 46.8907 162.166C45.9434 162.166 45.1719 162.563 44.576 163.357C43.9801 164.152 43.6822 165.191 43.6822 166.474C43.6822 167.742 43.9801 168.774 44.576 169.568C45.1719 170.347 45.9434 170.737 46.8907 170.737ZM57.8913 172.296C57.0968 172.296 56.3405 172.15 55.6224 171.86C54.9043 171.555 54.2779 171.188 53.7431 170.76L54.6828 169.499C55.1717 169.881 55.6759 170.202 56.1954 170.462C56.7149 170.707 57.3031 170.829 57.9601 170.829C58.6935 170.829 59.2435 170.661 59.6102 170.325C59.9769 169.973 60.1602 169.561 60.1602 169.087C60.1602 168.705 60.0304 168.384 59.7706 168.124C59.5262 167.865 59.2053 167.651 58.8081 167.483C58.4261 167.299 58.0288 167.131 57.6163 166.978C57.0968 166.78 56.585 166.558 56.0808 166.314C55.5766 166.054 55.1641 165.726 54.8432 165.328C54.5223 164.916 54.3619 164.396 54.3619 163.77C54.3619 162.868 54.6981 162.12 55.3703 161.524C56.0579 160.913 57.0052 160.607 58.2122 160.607C58.8997 160.607 59.5414 160.729 60.1373 160.974C60.7332 161.218 61.245 161.516 61.6728 161.868L60.7561 163.059C60.3741 162.769 59.9769 162.532 59.5644 162.349C59.1518 162.166 58.7011 162.074 58.2122 162.074C57.5094 162.074 56.9899 162.234 56.6537 162.555C56.3329 162.876 56.1725 163.25 56.1725 163.678C56.1725 164.03 56.2871 164.32 56.5162 164.549C56.7454 164.763 57.0434 164.954 57.41 165.122C57.7767 165.275 58.1664 165.435 58.5789 165.603C59.1136 165.802 59.6408 166.031 60.1602 166.291C60.6797 166.535 61.1075 166.872 61.4437 167.299C61.7951 167.712 61.9708 168.27 61.9708 168.972C61.9708 169.568 61.8104 170.118 61.4895 170.622C61.1839 171.127 60.7256 171.532 60.1144 171.837C59.5185 172.143 58.7775 172.296 57.8913 172.296ZM67.6411 172.296C66.4493 172.296 65.6166 171.952 65.143 171.264C64.6846 170.577 64.4555 169.683 64.4555 168.583V162.418H62.8053V160.997L64.5471 160.882L64.7763 157.765H66.3577V160.882H69.36V162.418H66.3577V168.606C66.3577 169.293 66.4799 169.828 66.7244 170.21C66.9841 170.577 67.4348 170.76 68.0765 170.76C68.2752 170.76 68.4891 170.729 68.7183 170.668C68.9474 170.592 69.1537 170.523 69.337 170.462L69.7037 171.883C69.3982 171.99 69.062 172.082 68.6953 172.158C68.3439 172.25 67.9925 172.296 67.6411 172.296ZM82.3337 172.296C81.0808 172.296 79.9578 171.99 78.9647 171.379C77.9868 170.752 77.2076 169.859 76.627 168.697C76.0617 167.536 75.7791 166.138 75.7791 164.503C75.7791 162.884 76.0694 161.493 76.6499 160.332C77.2305 159.171 78.025 158.277 79.0335 157.651C80.0419 157.024 81.1801 156.711 82.4483 156.711C83.365 156.711 84.1748 156.902 84.8776 157.284C85.5804 157.651 86.1458 158.079 86.5736 158.567L85.5422 159.805C85.145 159.377 84.6943 159.033 84.1901 158.774C83.6859 158.514 83.1129 158.384 82.4712 158.384C81.5239 158.384 80.6912 158.636 79.9731 159.14C79.2703 159.629 78.7202 160.325 78.323 161.226C77.941 162.127 77.75 163.205 77.75 164.457C77.75 165.71 77.941 166.803 78.323 167.735C78.705 168.652 79.2397 169.362 79.9273 169.866C80.6301 170.37 81.4552 170.622 82.4024 170.622C83.1205 170.622 83.7623 170.47 84.3276 170.164C84.8929 169.859 85.4124 169.446 85.886 168.927L86.9403 170.118C86.3444 170.806 85.6721 171.341 84.9235 171.723C84.1748 172.105 83.3115 172.296 82.3337 172.296ZM89.7429 172.021V156.986H91.6451V163.289H98.6352V156.986H100.56V172.021H98.6352V164.939H91.6451V172.021H89.7429ZM107.283 163.609L106.573 165.901H111.088L110.377 163.609C110.102 162.769 109.842 161.936 109.598 161.111C109.354 160.271 109.109 159.415 108.865 158.545H108.773C108.544 159.415 108.307 160.271 108.063 161.111C107.818 161.936 107.558 162.769 107.283 163.609ZM102.7 172.021L107.787 156.986H109.942L115.03 172.021H112.99L111.569 167.437H106.092L104.648 172.021H102.7ZM117.16 172.021V156.986H119.131L124.562 166.428L126.19 169.545H126.281C126.235 168.781 126.182 167.995 126.121 167.185C126.075 166.36 126.052 165.55 126.052 164.755V156.986H127.863V172.021H125.892L120.437 162.555L118.81 159.461H118.718C118.779 160.21 118.833 160.982 118.879 161.776C118.94 162.571 118.97 163.365 118.97 164.16V172.021H117.16ZM137.911 172.296C136.597 172.296 135.429 171.99 134.405 171.379C133.381 170.752 132.579 169.859 131.999 168.697C131.418 167.536 131.128 166.138 131.128 164.503C131.128 162.884 131.426 161.493 132.021 160.332C132.617 159.171 133.435 158.277 134.474 157.651C135.513 157.024 136.697 156.711 138.026 156.711C139.065 156.711 139.936 156.91 140.639 157.307C141.357 157.689 141.93 158.109 142.358 158.567L141.303 159.805C140.921 159.408 140.478 159.072 139.974 158.797C139.47 158.522 138.836 158.384 138.072 158.384C137.063 158.384 136.185 158.636 135.436 159.14C134.688 159.629 134.107 160.325 133.694 161.226C133.297 162.127 133.099 163.205 133.099 164.457C133.099 166.352 133.526 167.857 134.382 168.972C135.253 170.072 136.49 170.622 138.095 170.622C138.63 170.622 139.141 170.546 139.63 170.393C140.119 170.225 140.509 170.004 140.799 169.729V165.81H137.613V164.228H142.541V170.554C142.067 171.058 141.426 171.478 140.616 171.814C139.821 172.135 138.92 172.296 137.911 172.296ZM146.143 172.021V156.986H154.806V158.59H148.046V163.312H153.752V164.939H148.046V170.393H155.036V172.021H146.143ZM165.407 163.609L164.697 165.901H169.212L168.501 163.609C168.226 162.769 167.966 161.936 167.722 161.111C167.477 160.271 167.233 159.415 166.988 158.545H166.897C166.668 159.415 166.431 160.271 166.186 161.111C165.942 161.936 165.682 162.769 165.407 163.609ZM160.823 172.021L165.911 156.986H168.066L173.153 172.021H171.114L169.693 167.437H164.215L162.771 172.021H160.823ZM175.284 172.021V156.986H179.569C180.7 156.986 181.685 157.124 182.526 157.399C183.366 157.674 184.023 158.14 184.497 158.797C184.97 159.438 185.207 160.309 185.207 161.409C185.207 162.983 184.695 164.152 183.672 164.916C182.648 165.68 181.311 166.062 179.661 166.062H177.186V172.021H175.284ZM177.186 164.503H179.432C180.746 164.503 181.716 164.259 182.342 163.77C182.984 163.266 183.305 162.479 183.305 161.409C183.305 160.325 182.969 159.576 182.297 159.163C181.64 158.736 180.654 158.522 179.34 158.522H177.186V164.503ZM188.265 172.021V156.986H192.963C193.987 156.986 194.896 157.124 195.69 157.399C196.485 157.658 197.104 158.101 197.547 158.728C198.005 159.339 198.234 160.164 198.234 161.203C198.234 162.364 197.929 163.304 197.317 164.022C196.706 164.725 195.881 165.206 194.842 165.466L198.67 172.021H196.515L192.894 165.672H190.167V172.021H188.265ZM190.167 164.114H192.688C193.864 164.114 194.766 163.877 195.392 163.403C196.019 162.914 196.332 162.181 196.332 161.203C196.332 160.21 196.019 159.515 195.392 159.118C194.766 158.72 193.864 158.522 192.688 158.522H190.167V164.114Z" fill="white"/>
<circle cx="146.488" cy="106.814" r="13.9162" fill="#E0FB92"/>
<path d="M138.998 106.76H153.877" stroke="#141414" stroke-width="1.60571"/>
<path d="M146.439 99.3204V114.199" stroke="#141414" stroke-width="1.60571"/>
<defs>
<clipPath id="clip0_2050_7634">
<rect width="56" height="56" fill="white" transform="translate(74.6768 45.1715)"/>
</clipPath>
</defs>
</svg>
