<svg width="213" height="200" viewBox="0 0 213 200" fill="none" xmlns="http://www.w3.org/2000/svg">
<path d="M58.2412 66.5046C58.2412 45.5077 75.2625 28.4865 96.2593 28.4865H108.223C129.22 28.4865 146.241 45.5077 146.241 66.5046V78.4683C146.241 99.4652 129.22 116.486 108.223 116.486H96.2593C75.2625 116.486 58.2412 99.4652 58.2412 78.4683V66.5046Z" fill="#3418D8"/>
<g clip-path="url(#clip0_2050_7612)">
<mask id="path-4-inside-1_2050_7612" fill="white">
<path d="M112.372 77.5197V80.3151C112.372 84.3335 107.606 87.5905 101.734 87.5905C95.862 87.5905 91.0889 84.3335 91.0889 80.3151V77.5197"/>
</mask>
<path d="M109.696 77.5197V80.3151H115.049V77.5197H109.696ZM109.696 80.3151C109.696 81.1821 109.184 82.2665 107.745 83.2505C106.319 84.2255 104.201 84.9144 101.734 84.9144V90.2667C105.139 90.2667 108.34 89.327 110.766 87.6689C113.178 86.0197 115.049 83.4664 115.049 80.3151H109.696ZM101.734 84.9144C99.2667 84.9144 97.147 84.2254 95.719 83.2499C94.2774 82.2651 93.7651 81.1806 93.7651 80.3151H88.4127C88.4127 83.4679 90.2869 86.0211 92.6999 87.6695C95.1264 89.3271 98.3293 90.2667 101.734 90.2667V84.9144ZM93.7651 80.3151V77.5197H88.4127V80.3151H93.7651Z" fill="#F3FBFD" mask="url(#path-4-inside-1_2050_7612)"/>
<path d="M111.034 65.8957C111.034 67.3341 110.182 68.7857 108.5 69.9358C106.825 71.0814 104.437 71.8331 101.733 71.8331C99.0298 71.8331 96.6413 71.0814 94.966 69.9358C93.2843 68.7857 92.4328 67.3341 92.4328 65.8957C92.4328 64.4574 93.2843 63.0058 94.966 61.8557C96.6413 60.71 99.0298 59.9583 101.733 59.9583C104.437 59.9583 106.825 60.71 108.5 61.8557C110.182 63.0058 111.034 64.4574 111.034 65.8957Z" stroke="#F3FBFD" stroke-width="2.67618"/>
<mask id="path-7-inside-2_2050_7612" fill="white">
<path d="M112.372 73.0699V75.8654C112.372 79.8838 107.606 83.1408 101.734 83.1408C95.862 83.1408 91.0889 79.8838 91.0889 75.8654V73.0699"/>
</mask>
<path d="M109.696 73.0699V75.8654H115.049V73.0699H109.696ZM109.696 75.8654C109.696 76.7324 109.184 77.8168 107.745 78.8008C106.319 79.7758 104.201 80.4647 101.734 80.4647V85.817C105.139 85.817 108.34 84.8773 110.766 83.2192C113.178 81.57 115.049 79.0167 115.049 75.8654H109.696ZM101.734 80.4647C99.2667 80.4647 97.147 79.7757 95.719 78.8002C94.2774 77.8154 93.7651 76.7309 93.7651 75.8654H88.4127C88.4127 79.0182 90.2869 81.5714 92.6999 83.2198C95.1264 84.8774 98.3293 85.817 101.734 85.817V80.4647ZM93.7651 75.8654V73.0699H88.4127V75.8654H93.7651Z" fill="#F3FBFD" mask="url(#path-7-inside-2_2050_7612)"/>
<mask id="path-9-inside-3_2050_7612" fill="white">
<path d="M112.372 68.2438V71.0392C112.372 75.0576 107.606 78.3147 101.734 78.3147C95.862 78.3147 91.0889 75.0576 91.0889 71.0392V68.2438"/>
</mask>
<path d="M109.696 68.2438V71.0392H115.049V68.2438H109.696ZM109.696 71.0392C109.696 71.9062 109.184 72.9907 107.745 73.9746C106.319 74.9496 104.201 75.6385 101.734 75.6385V80.9909C105.139 80.9909 108.34 80.0512 110.766 78.393C113.178 76.7438 115.049 74.1905 115.049 71.0392H109.696ZM101.734 75.6385C99.2667 75.6385 97.147 74.9496 95.719 73.974C94.2774 72.9893 93.7651 71.9047 93.7651 71.0392H88.4127C88.4127 74.1921 90.2869 76.7452 92.6999 78.3936C95.1264 80.0512 98.3293 80.9909 101.734 80.9909V75.6385ZM93.7651 71.0392V68.2438H88.4127V71.0392H93.7651Z" fill="#F3FBFD" mask="url(#path-9-inside-3_2050_7612)"/>
<path d="M75.2393 73.5503C75.2393 58.6038 87.1677 46.4865 101.881 46.4865C111.669 46.4865 120.226 51.8497 124.856 59.8417" stroke="#F3FBFD" stroke-width="2.67618" stroke-miterlimit="10"/>
<path d="M117.741 59.1993L125.593 61.6005L127.439 53.6004" stroke="#F3FBFD" stroke-width="2.67618" stroke-miterlimit="10"/>
<path d="M128.24 72.5504C128.24 86.8741 116.372 98.4866 101.732 98.4866C92.5809 98.4866 84.5148 93.9507 79.751 87.0531" stroke="#E0FB92" stroke-width="2.67618" stroke-miterlimit="10"/>
<path d="M86.9385 87.6871L79.0871 85.286L77.2409 93.286" stroke="#E0FB92" stroke-width="2.67618" stroke-miterlimit="10"/>
</g>
<path d="M33.0494 171.61C31.9952 171.61 31.0173 171.412 30.1159 171.015C29.2144 170.602 28.4352 170.06 27.7782 169.387L28.9241 168.058C29.4589 168.623 30.0853 169.082 30.8034 169.433C31.5368 169.769 32.2931 169.937 33.0723 169.937C34.0655 169.937 34.8371 169.716 35.3871 169.273C35.9371 168.814 36.2121 168.219 36.2121 167.485C36.2121 166.966 36.0976 166.553 35.8684 166.248C35.6545 165.942 35.3565 165.682 34.9746 165.468C34.6079 165.254 34.1877 165.041 33.7141 164.827L31.5597 163.887C31.0861 163.688 30.6124 163.429 30.1388 163.108C29.6804 162.787 29.2908 162.374 28.97 161.87C28.6644 161.366 28.5116 160.747 28.5116 160.014C28.5116 159.25 28.7102 158.57 29.1075 157.974C29.52 157.363 30.0853 156.889 30.8034 156.553C31.5215 156.202 32.3313 156.026 33.2328 156.026C34.1342 156.026 34.9669 156.202 35.7309 156.553C36.4948 156.889 37.1442 157.332 37.6789 157.882L36.6476 159.12C36.1892 158.677 35.6774 158.333 35.1121 158.089C34.562 157.829 33.9356 157.699 33.2328 157.699C32.3924 157.699 31.7125 157.898 31.193 158.295C30.6888 158.692 30.4367 159.227 30.4367 159.899C30.4367 160.373 30.559 160.77 30.8034 161.091C31.0632 161.397 31.384 161.649 31.766 161.847C32.148 162.046 32.5376 162.229 32.9348 162.397L35.0662 163.314C35.6468 163.559 36.1663 163.856 36.6247 164.208C37.0983 164.544 37.4727 164.964 37.7477 165.468C38.0227 165.957 38.1602 166.576 38.1602 167.325C38.1602 168.119 37.9539 168.845 37.5414 169.502C37.1289 170.144 36.5406 170.656 35.7767 171.038C35.0128 171.419 34.1037 171.61 33.0494 171.61ZM43.8844 171.61C42.6927 171.61 41.86 171.267 41.3863 170.579C40.9279 169.892 40.6988 168.998 40.6988 167.898V161.733H39.0486V160.312L40.7904 160.197L41.0196 157.08H42.601V160.197H45.6033V161.733H42.601V167.921C42.601 168.608 42.7232 169.143 42.9677 169.525C43.2274 169.892 43.6781 170.075 44.3199 170.075C44.5185 170.075 44.7324 170.044 44.9616 169.983C45.1907 169.907 45.397 169.838 45.5804 169.777L45.947 171.198C45.6415 171.305 45.3053 171.397 44.9386 171.473C44.5872 171.565 44.2358 171.61 43.8844 171.61ZM50.1962 171.61C49.2642 171.61 48.485 171.335 47.8586 170.785C47.2474 170.22 46.9418 169.441 46.9418 168.448C46.9418 167.225 47.4842 166.293 48.569 165.652C49.6691 164.995 51.4033 164.536 53.7715 164.277C53.7715 163.803 53.7027 163.352 53.5652 162.924C53.443 162.497 53.2138 162.153 52.8777 161.893C52.5568 161.618 52.0908 161.481 51.4797 161.481C50.838 161.481 50.2344 161.603 49.6691 161.847C49.1038 162.092 48.5996 162.367 48.1565 162.672L47.4231 161.366C47.9426 161.03 48.5767 160.709 49.3253 160.403C50.0893 160.083 50.9143 159.922 51.8005 159.922C53.1603 159.922 54.1458 160.342 54.757 161.183C55.3681 162.008 55.6737 163.115 55.6737 164.506V171.335H54.1153L53.9548 170.006H53.8861C53.3666 170.434 52.7936 170.808 52.1672 171.129C51.5561 171.45 50.8991 171.61 50.1962 171.61ZM50.7463 170.098C51.281 170.098 51.7852 169.968 52.2589 169.708C52.7325 169.449 53.2367 169.082 53.7715 168.608V165.514C51.9228 165.743 50.6241 166.087 49.8754 166.546C49.142 167.004 48.7753 167.592 48.7753 168.31C48.7753 168.937 48.9663 169.395 49.3483 169.685C49.7302 169.96 50.1962 170.098 50.7463 170.098ZM59.1781 171.335V155.018H61.0344V166.064H61.1032L65.8473 160.197H67.9328L64.1972 164.666L68.4371 171.335H66.3744L63.12 165.973L61.0344 168.402V171.335H59.1781ZM74.6373 171.61C73.6442 171.61 72.7428 171.381 71.933 170.923C71.1232 170.449 70.4815 169.777 70.0078 168.906C69.5342 168.035 69.2974 166.996 69.2974 165.789C69.2974 164.567 69.5342 163.52 70.0078 162.649C70.4968 161.779 71.1232 161.106 71.8871 160.633C72.6511 160.159 73.4532 159.922 74.2936 159.922C75.7145 159.922 76.8069 160.396 77.5709 161.343C78.3501 162.29 78.7397 163.559 78.7397 165.148C78.7397 165.346 78.7321 165.545 78.7168 165.743C78.7168 165.927 78.7015 166.087 78.671 166.225H71.1538C71.2302 167.401 71.5969 168.341 72.2538 169.044C72.9261 169.746 73.797 170.098 74.8665 170.098C75.4013 170.098 75.8902 170.021 76.3333 169.869C76.7917 169.701 77.2271 169.487 77.6396 169.227L78.3043 170.465C77.8306 170.77 77.2882 171.038 76.6771 171.267C76.0812 171.496 75.4013 171.61 74.6373 171.61ZM71.1308 164.872H77.0896C77.0896 163.742 76.8451 162.886 76.3562 162.306C75.8826 161.71 75.2103 161.412 74.3394 161.412C73.5602 161.412 72.8574 161.717 72.2309 162.329C71.6198 162.924 71.2531 163.772 71.1308 164.872ZM86.2635 171.335V156.301H90.5493C91.6799 156.301 92.6654 156.439 93.5057 156.714C94.3461 156.989 95.003 157.455 95.4767 158.112C95.9503 158.753 96.1872 159.624 96.1872 160.724C96.1872 162.298 95.6753 163.467 94.6516 164.231C93.6279 164.995 92.291 165.377 90.6409 165.377H88.1658V171.335H86.2635ZM88.1658 163.818H90.4117C91.7257 163.818 92.6959 163.574 93.3224 163.085C93.9641 162.581 94.2849 161.794 94.2849 160.724C94.2849 159.639 93.9488 158.891 93.2765 158.478C92.6195 158.05 91.6341 157.837 90.3201 157.837H88.1658V163.818ZM102.833 171.61C101.932 171.61 101.084 171.381 100.289 170.923C99.5101 170.465 98.8761 169.8 98.3871 168.929C97.9135 168.058 97.6767 167.012 97.6767 165.789C97.6767 164.536 97.9135 163.474 98.3871 162.604C98.8761 161.733 99.5101 161.068 100.289 160.61C101.084 160.151 101.932 159.922 102.833 159.922C103.75 159.922 104.598 160.151 105.377 160.61C106.156 161.068 106.783 161.733 107.257 162.604C107.745 163.474 107.99 164.536 107.99 165.789C107.99 167.012 107.745 168.058 107.257 168.929C106.783 169.8 106.156 170.465 105.377 170.923C104.598 171.381 103.75 171.61 102.833 171.61ZM102.833 170.052C103.796 170.052 104.567 169.662 105.148 168.883C105.744 168.089 106.042 167.057 106.042 165.789C106.042 164.506 105.744 163.467 105.148 162.672C104.567 161.878 103.796 161.481 102.833 161.481C101.886 161.481 101.114 161.878 100.519 162.672C99.9227 163.467 99.6247 164.506 99.6247 165.789C99.6247 167.057 99.9227 168.089 100.519 168.883C101.114 169.662 101.886 170.052 102.833 170.052ZM115.278 171.61C114.223 171.61 113.246 171.412 112.344 171.015C111.443 170.602 110.664 170.06 110.007 169.387L111.152 168.058C111.687 168.623 112.314 169.082 113.032 169.433C113.765 169.769 114.521 169.937 115.301 169.937C116.294 169.937 117.065 169.716 117.615 169.273C118.165 168.814 118.44 168.219 118.44 167.485C118.44 166.966 118.326 166.553 118.097 166.248C117.883 165.942 117.585 165.682 117.203 165.468C116.836 165.254 116.416 165.041 115.942 164.827L113.788 163.887C113.314 163.688 112.841 163.429 112.367 163.108C111.909 162.787 111.519 162.374 111.198 161.87C110.893 161.366 110.74 160.747 110.74 160.014C110.74 159.25 110.939 158.57 111.336 157.974C111.748 157.363 112.314 156.889 113.032 156.553C113.75 156.202 114.56 156.026 115.461 156.026C116.363 156.026 117.195 156.202 117.959 156.553C118.723 156.889 119.372 157.332 119.907 157.882L118.876 159.12C118.418 158.677 117.906 158.333 117.34 158.089C116.79 157.829 116.164 157.699 115.461 157.699C114.621 157.699 113.941 157.898 113.421 158.295C112.917 158.692 112.665 159.227 112.665 159.899C112.665 160.373 112.787 160.77 113.032 161.091C113.291 161.397 113.612 161.649 113.994 161.847C114.376 162.046 114.766 162.229 115.163 162.397L117.295 163.314C117.875 163.559 118.395 163.856 118.853 164.208C119.327 164.544 119.701 164.964 119.976 165.468C120.251 165.957 120.389 166.576 120.389 167.325C120.389 168.119 120.182 168.845 119.77 169.502C119.357 170.144 118.769 170.656 118.005 171.038C117.241 171.419 116.332 171.61 115.278 171.61ZM130.527 162.924L129.817 165.216H134.331L133.621 162.924C133.346 162.084 133.086 161.251 132.842 160.426C132.597 159.586 132.353 158.73 132.108 157.859H132.017C131.787 158.73 131.551 159.586 131.306 160.426C131.062 161.251 130.802 162.084 130.527 162.924ZM125.943 171.335L131.031 156.301H133.186L138.273 171.335H136.234L134.813 166.752H129.335L127.891 171.335H125.943ZM143.668 171.61C142.873 171.61 142.117 171.465 141.399 171.175C140.681 170.869 140.054 170.503 139.52 170.075L140.459 168.814C140.948 169.196 141.453 169.517 141.972 169.777C142.491 170.021 143.08 170.144 143.737 170.144C144.47 170.144 145.02 169.976 145.387 169.639C145.754 169.288 145.937 168.876 145.937 168.402C145.937 168.02 145.807 167.699 145.547 167.439C145.303 167.18 144.982 166.966 144.585 166.798C144.203 166.614 143.805 166.446 143.393 166.293C142.873 166.095 142.362 165.873 141.857 165.629C141.353 165.369 140.941 165.041 140.62 164.643C140.299 164.231 140.139 163.711 140.139 163.085C140.139 162.183 140.475 161.435 141.147 160.839C141.834 160.228 142.782 159.922 143.989 159.922C144.676 159.922 145.318 160.044 145.914 160.289C146.51 160.533 147.022 160.831 147.449 161.183L146.533 162.374C146.151 162.084 145.754 161.847 145.341 161.664C144.928 161.481 144.478 161.389 143.989 161.389C143.286 161.389 142.766 161.549 142.43 161.87C142.109 162.191 141.949 162.565 141.949 162.993C141.949 163.345 142.064 163.635 142.293 163.864C142.522 164.078 142.82 164.269 143.187 164.437C143.553 164.59 143.943 164.75 144.355 164.918C144.89 165.117 145.417 165.346 145.937 165.606C146.456 165.85 146.884 166.186 147.22 166.614C147.572 167.027 147.747 167.584 147.747 168.287C147.747 168.883 147.587 169.433 147.266 169.937C146.961 170.442 146.502 170.847 145.891 171.152C145.295 171.458 144.554 171.61 143.668 171.61ZM153.269 171.61C152.475 171.61 151.719 171.465 151.001 171.175C150.282 170.869 149.656 170.503 149.121 170.075L150.061 168.814C150.55 169.196 151.054 169.517 151.573 169.777C152.093 170.021 152.681 170.144 153.338 170.144C154.072 170.144 154.622 169.976 154.988 169.639C155.355 169.288 155.538 168.876 155.538 168.402C155.538 168.02 155.408 167.699 155.149 167.439C154.904 167.18 154.583 166.966 154.186 166.798C153.804 166.614 153.407 166.446 152.994 166.293C152.475 166.095 151.963 165.873 151.459 165.629C150.955 165.369 150.542 165.041 150.221 164.643C149.9 164.231 149.74 163.711 149.74 163.085C149.74 162.183 150.076 161.435 150.748 160.839C151.436 160.228 152.383 159.922 153.59 159.922C154.278 159.922 154.92 160.044 155.515 160.289C156.111 160.533 156.623 160.831 157.051 161.183L156.134 162.374C155.752 162.084 155.355 161.847 154.942 161.664C154.53 161.481 154.079 161.389 153.59 161.389C152.887 161.389 152.368 161.549 152.032 161.87C151.711 162.191 151.551 162.565 151.551 162.993C151.551 163.345 151.665 163.635 151.894 163.864C152.124 164.078 152.421 164.269 152.788 164.437C153.155 164.59 153.544 164.75 153.957 164.918C154.492 165.117 155.019 165.346 155.538 165.606C156.058 165.85 156.486 166.186 156.822 166.614C157.173 167.027 157.349 167.584 157.349 168.287C157.349 168.883 157.188 169.433 156.868 169.937C156.562 170.442 156.104 170.847 155.493 171.152C154.897 171.458 154.156 171.61 153.269 171.61ZM164.475 171.61C163.482 171.61 162.581 171.381 161.771 170.923C160.961 170.449 160.319 169.777 159.846 168.906C159.372 168.035 159.135 166.996 159.135 165.789C159.135 164.567 159.372 163.52 159.846 162.649C160.335 161.779 160.961 161.106 161.725 160.633C162.489 160.159 163.291 159.922 164.131 159.922C165.552 159.922 166.645 160.396 167.409 161.343C168.188 162.29 168.578 163.559 168.578 165.148C168.578 165.346 168.57 165.545 168.555 165.743C168.555 165.927 168.539 166.087 168.509 166.225H160.992C161.068 167.401 161.435 168.341 162.092 169.044C162.764 169.746 163.635 170.098 164.704 170.098C165.239 170.098 165.728 170.021 166.171 169.869C166.63 169.701 167.065 169.487 167.478 169.227L168.142 170.465C167.669 170.77 167.126 171.038 166.515 171.267C165.919 171.496 165.239 171.61 164.475 171.61ZM160.969 164.872H166.927C166.927 163.742 166.683 162.886 166.194 162.306C165.72 161.71 165.048 161.412 164.177 161.412C163.398 161.412 162.695 161.717 162.069 162.329C161.458 162.924 161.091 163.772 160.969 164.872ZM174.613 171.61C173.421 171.61 172.588 171.267 172.115 170.579C171.656 169.892 171.427 168.998 171.427 167.898V161.733H169.777V160.312L171.519 160.197L171.748 157.08H173.329V160.197H176.332V161.733H173.329V167.921C173.329 168.608 173.451 169.143 173.696 169.525C173.956 169.892 174.406 170.075 175.048 170.075C175.247 170.075 175.461 170.044 175.69 169.983C175.919 169.907 176.125 169.838 176.309 169.777L176.675 171.198C176.37 171.305 176.034 171.397 175.667 171.473C175.315 171.565 174.964 171.61 174.613 171.61ZM181.537 171.61C180.742 171.61 179.986 171.465 179.268 171.175C178.55 170.869 177.923 170.503 177.389 170.075L178.328 168.814C178.817 169.196 179.321 169.517 179.841 169.777C180.36 170.021 180.949 170.144 181.606 170.144C182.339 170.144 182.889 169.976 183.256 169.639C183.622 169.288 183.806 168.876 183.806 168.402C183.806 168.02 183.676 167.699 183.416 167.439C183.172 167.18 182.851 166.966 182.454 166.798C182.072 166.614 181.674 166.446 181.262 166.293C180.742 166.095 180.23 165.873 179.726 165.629C179.222 165.369 178.81 165.041 178.489 164.643C178.168 164.231 178.007 163.711 178.007 163.085C178.007 162.183 178.344 161.435 179.016 160.839C179.703 160.228 180.651 159.922 181.858 159.922C182.545 159.922 183.187 160.044 183.783 160.289C184.379 160.533 184.891 160.831 185.318 161.183L184.402 162.374C184.02 162.084 183.622 161.847 183.21 161.664C182.797 161.481 182.347 161.389 181.858 161.389C181.155 161.389 180.635 161.549 180.299 161.87C179.978 162.191 179.818 162.565 179.818 162.993C179.818 163.345 179.933 163.635 180.162 163.864C180.391 164.078 180.689 164.269 181.056 164.437C181.422 164.59 181.812 164.75 182.224 164.918C182.759 165.117 183.286 165.346 183.806 165.606C184.325 165.85 184.753 166.186 185.089 166.614C185.441 167.027 185.616 167.584 185.616 168.287C185.616 168.883 185.456 169.433 185.135 169.937C184.829 170.442 184.371 170.847 183.76 171.152C183.164 171.458 182.423 171.61 181.537 171.61Z" fill="white"/>
<circle cx="146.053" cy="106.129" r="13.9162" fill="#E0FB92"/>
<path d="M138.562 106.075H153.442" stroke="#141414" stroke-width="1.60571"/>
<path d="M146.004 98.6354V113.514" stroke="#141414" stroke-width="1.60571"/>
<defs>
<clipPath id="clip0_2050_7612">
<rect width="56" height="56" fill="white" transform="translate(74.2412 44.4865)"/>
</clipPath>
</defs>
</svg>
