<svg width="165" height="187" viewBox="0 0 165 187" fill="none" xmlns="http://www.w3.org/2000/svg">
<path d="M37.936 66.0071C37.936 45.0103 54.9573 27.989 75.9542 27.989H87.9179C108.915 27.989 125.936 45.0103 125.936 66.0071V77.9709C125.936 98.9677 108.915 115.989 87.9179 115.989H75.9542C54.9573 115.989 37.936 98.9677 37.936 77.9709V66.0071Z" fill="#303D48" fill-opacity="0.32"/>
<g clip-path="url(#clip0_2050_7573)">
<path d="M97.6654 68.2229C97.6654 70.9917 96.0252 73.638 93.0886 75.6464C90.1579 77.6506 86.04 78.9305 81.4306 78.9305C76.8212 78.9305 72.7032 77.6506 69.7726 75.6464C66.8359 73.638 65.1958 70.9917 65.1958 68.2229C65.1958 65.4541 66.8359 62.8078 69.7726 60.7995C72.7032 58.7952 76.8212 57.5154 81.4306 57.5154C86.04 57.5154 90.1579 58.7952 93.0886 60.7995C96.0252 62.8078 97.6654 65.4541 97.6654 68.2229Z" stroke="#F3FBFD" stroke-width="2.5"/>
<path d="M81.7352 63.0315H76.3618V68.4048C79.3294 68.4048 81.7351 70.8106 81.7351 73.7782L87.1085 73.7782L87.1085 68.4053C84.1409 68.4053 81.7352 65.9992 81.7352 63.0315Z" stroke="#F3FBFD" stroke-width="2.5"/>
<mask id="path-6-inside-1_2050_7573" fill="white">
<path d="M98.9145 69.3103V73.9047C98.9145 80.5091 91.0806 85.8622 81.4297 85.8622C71.7788 85.8622 63.9341 80.5091 63.9341 73.9047V69.3103"/>
</mask>
<path d="M96.4145 69.3103V73.9047H101.415V69.3103H96.4145ZM96.4145 73.9047C96.4145 76.1399 95.0906 78.4432 92.3802 80.2963C89.6821 82.1411 85.8173 83.3622 81.4297 83.3622V88.3622C86.6931 88.3622 91.5707 86.9068 95.2022 84.4238C98.8215 81.9493 101.415 78.2738 101.415 73.9047H96.4145ZM81.4297 83.3622C77.0421 83.3622 73.1742 82.141 70.473 80.2958C67.7592 78.4419 66.4341 76.1385 66.4341 73.9047H61.4341C61.4341 78.2752 64.0314 81.9506 67.6526 84.4244C71.2866 86.9068 76.1664 88.3622 81.4297 88.3622V83.3622ZM66.4341 73.9047V69.3103H61.4341V73.9047H66.4341Z" fill="#F3FBFD" mask="url(#path-6-inside-1_2050_7573)"/>
<path d="M54.9341 73.0528C54.9341 58.1064 66.8625 45.989 81.576 45.989C91.3642 45.989 99.9206 51.3523 104.551 59.3443" stroke="#F3FBFD" stroke-width="2.5" stroke-miterlimit="10"/>
<path d="M97.436 58.7019L105.287 61.1031L107.134 53.103" stroke="#F3FBFD" stroke-width="2.5" stroke-miterlimit="10"/>
<path d="M107.935 72.053C107.935 86.3766 96.0663 97.9891 81.4265 97.9891C72.2758 97.9891 64.2096 93.4533 59.4458 86.5557" stroke="#E0FB92" stroke-width="2.5" stroke-miterlimit="10"/>
<path d="M66.6333 87.1897L58.7819 84.7885L56.9357 92.7886" stroke="#E0FB92" stroke-width="2.5" stroke-miterlimit="10"/>
</g>
<path d="M23.2594 160.81C22.2746 160.81 21.3611 160.624 20.519 160.253C19.6769 159.868 18.949 159.361 18.3352 158.733L19.4057 157.491C19.9053 158.019 20.4905 158.447 21.1613 158.776C21.8464 159.09 22.5529 159.247 23.2808 159.247C24.2086 159.247 24.9294 159.04 25.4432 158.626C25.957 158.198 26.2139 157.641 26.2139 156.956C26.2139 156.471 26.1069 156.085 25.8928 155.8C25.693 155.514 25.4146 155.272 25.0578 155.072C24.7153 154.872 24.3228 154.672 23.8803 154.472L21.8678 153.595C21.4253 153.409 20.9829 153.166 20.5404 152.867C20.1122 152.567 19.7483 152.182 19.4485 151.711C19.1631 151.24 19.0203 150.662 19.0203 149.976C19.0203 149.263 19.2059 148.628 19.577 148.071C19.9624 147.5 20.4905 147.058 21.1613 146.744C21.8321 146.415 22.5886 146.251 23.4307 146.251C24.2728 146.251 25.0507 146.415 25.7643 146.744C26.478 147.058 27.0846 147.472 27.5841 147.985L26.6207 149.141C26.1925 148.728 25.7144 148.406 25.1863 148.178C24.6724 147.935 24.0872 147.814 23.4307 147.814C22.6457 147.814 22.0105 148 21.5252 148.371C21.0542 148.742 20.8187 149.241 20.8187 149.869C20.8187 150.312 20.9329 150.683 21.1613 150.983C21.4039 151.268 21.7037 151.504 22.0605 151.689C22.4173 151.875 22.7813 152.046 23.1524 152.203L25.1434 153.059C25.6858 153.288 26.1711 153.566 26.5993 153.894C27.0418 154.208 27.3914 154.601 27.6484 155.072C27.9053 155.529 28.0337 156.107 28.0337 156.806C28.0337 157.548 27.841 158.226 27.4557 158.84C27.0703 159.439 26.5208 159.918 25.8071 160.274C25.0935 160.631 24.2442 160.81 23.2594 160.81ZM33.3811 160.81C32.2678 160.81 31.4899 160.489 31.0474 159.846C30.6193 159.204 30.4052 158.369 30.4052 157.341V151.582H28.8637V150.255L30.4908 150.148L30.7049 147.236H32.1821V150.148H34.9868V151.582H32.1821V157.363C32.1821 158.005 32.2963 158.505 32.5247 158.861C32.7673 159.204 33.1884 159.375 33.7879 159.375C33.9734 159.375 34.1732 159.347 34.3873 159.29C34.6014 159.218 34.7941 159.154 34.9654 159.097L35.3079 160.424C35.0225 160.524 34.7085 160.61 34.3659 160.681C34.0376 160.767 33.7094 160.81 33.3811 160.81ZM39.2774 160.81C38.4067 160.81 37.6788 160.553 37.0936 160.039C36.5227 159.511 36.2372 158.783 36.2372 157.855C36.2372 156.713 36.7439 155.843 37.7573 155.243C38.785 154.629 40.4049 154.201 42.6173 153.959C42.6173 153.516 42.553 153.095 42.4246 152.695C42.3104 152.296 42.0963 151.975 41.7823 151.732C41.4826 151.475 41.0472 151.347 40.4763 151.347C39.8768 151.347 39.3131 151.461 38.785 151.689C38.2569 151.918 37.7859 152.174 37.3719 152.46L36.6868 151.24C37.1721 150.926 37.7644 150.626 38.4638 150.34C39.1775 150.041 39.9482 149.891 40.776 149.891C42.0463 149.891 42.9669 150.283 43.5379 151.068C44.1088 151.839 44.3942 152.874 44.3942 154.173V160.553H42.9384L42.7885 159.311H42.7243C42.239 159.711 41.7038 160.06 41.1186 160.36C40.5477 160.66 39.9339 160.81 39.2774 160.81ZM39.7912 159.397C40.2908 159.397 40.7618 159.275 41.2042 159.033C41.6467 158.79 42.1177 158.447 42.6173 158.005V155.115C40.8902 155.329 39.677 155.65 38.9776 156.078C38.2925 156.506 37.95 157.056 37.95 157.727C37.95 158.312 38.1284 158.74 38.4852 159.011C38.8421 159.268 39.2774 159.397 39.7912 159.397ZM47.6679 160.553V145.309H49.4021V155.629H49.4663L53.898 150.148H55.8463L52.3566 154.323L56.3173 160.553H54.3905L51.3503 155.543L49.4021 157.812V160.553H47.6679ZM62.1094 160.81C61.1817 160.81 60.3396 160.596 59.5831 160.167C58.8266 159.725 58.2272 159.097 57.7847 158.283C57.3422 157.47 57.121 156.499 57.121 155.372C57.121 154.23 57.3422 153.252 57.7847 152.439C58.2414 151.625 58.8266 150.997 59.5403 150.555C60.2539 150.112 61.0033 149.891 61.7883 149.891C63.1157 149.891 64.1362 150.333 64.8498 151.218C65.5778 152.103 65.9417 153.288 65.9417 154.772C65.9417 154.958 65.9346 155.143 65.9203 155.329C65.9203 155.5 65.906 155.65 65.8775 155.778H58.8552C58.9265 156.877 59.2691 157.755 59.8828 158.412C60.5108 159.068 61.3244 159.397 62.3235 159.397C62.8231 159.397 63.2798 159.325 63.6937 159.183C64.1219 159.026 64.5287 158.826 64.9141 158.583L65.5349 159.739C65.0925 160.025 64.5858 160.274 64.0149 160.489C63.4582 160.703 62.8231 160.81 62.1094 160.81ZM58.8338 154.515H64.4002C64.4002 153.459 64.1719 152.66 63.7151 152.117C63.2727 151.561 62.6447 151.282 61.8311 151.282C61.1032 151.282 60.4466 151.568 59.8614 152.139C59.2905 152.695 58.948 153.488 58.8338 154.515ZM78.2798 160.81C77.1094 160.81 76.0603 160.524 75.1326 159.953C74.2191 159.368 73.4912 158.533 72.9488 157.448C72.4207 156.364 72.1567 155.058 72.1567 153.53C72.1567 152.017 72.4278 150.719 72.9702 149.634C73.5126 148.549 74.2548 147.714 75.1968 147.129C76.1388 146.544 77.2022 146.251 78.3868 146.251C79.2432 146.251 79.9997 146.43 80.6562 146.786C81.3128 147.129 81.8409 147.529 82.2405 147.985L81.2771 149.141C80.906 148.742 80.4849 148.421 80.0139 148.178C79.5429 147.935 79.0077 147.814 78.4082 147.814C77.5233 147.814 76.7454 148.05 76.0746 148.521C75.418 148.977 74.9042 149.627 74.5331 150.469C74.1763 151.311 73.9979 152.317 73.9979 153.488C73.9979 154.658 74.1763 155.679 74.5331 156.549C74.8899 157.406 75.3895 158.069 76.0318 158.54C76.6883 159.011 77.4591 159.247 78.344 159.247C79.0148 159.247 79.6143 159.104 80.1424 158.819C80.6705 158.533 81.1558 158.148 81.5982 157.662L82.5831 158.776C82.0264 159.418 81.3984 159.918 80.699 160.274C79.9997 160.631 79.1932 160.81 78.2798 160.81ZM85.2012 160.553V146.508H86.9782V152.396H93.5081V146.508H95.3065V160.553H93.5081V153.937H86.9782V160.553H85.2012ZM101.587 152.695L100.923 154.836H105.141L104.477 152.695C104.22 151.91 103.978 151.133 103.749 150.362C103.521 149.577 103.292 148.778 103.064 147.964H102.978C102.764 148.778 102.543 149.577 102.315 150.362C102.086 151.133 101.844 151.91 101.587 152.695ZM97.3049 160.553L102.058 146.508H104.07L108.823 160.553H106.918L105.59 156.271H100.474L99.1247 160.553H97.3049ZM110.813 160.553V146.508H112.654L117.728 155.329L119.248 158.241H119.334C119.291 157.527 119.241 156.792 119.184 156.035C119.141 155.265 119.12 154.508 119.12 153.766V146.508H120.811V160.553H118.97L113.875 151.711L112.355 148.82H112.269C112.326 149.52 112.376 150.241 112.419 150.983C112.476 151.725 112.504 152.467 112.504 153.209V160.553H110.813ZM130.199 160.81C128.971 160.81 127.879 160.524 126.923 159.953C125.967 159.368 125.217 158.533 124.675 157.448C124.133 156.364 123.861 155.058 123.861 153.53C123.861 152.017 124.14 150.719 124.696 149.634C125.253 148.549 126.017 147.714 126.987 147.129C127.958 146.544 129.064 146.251 130.306 146.251C131.276 146.251 132.09 146.437 132.746 146.808C133.417 147.165 133.952 147.557 134.352 147.985L133.367 149.141C133.01 148.77 132.596 148.456 132.125 148.199C131.654 147.943 131.062 147.814 130.348 147.814C129.406 147.814 128.586 148.05 127.886 148.521C127.187 148.977 126.645 149.627 126.259 150.469C125.888 151.311 125.703 152.317 125.703 153.488C125.703 155.257 126.102 156.663 126.902 157.705C127.715 158.733 128.871 159.247 130.37 159.247C130.869 159.247 131.348 159.175 131.804 159.033C132.261 158.876 132.625 158.669 132.896 158.412V154.751H129.92V153.274H134.523V159.183C134.081 159.654 133.481 160.046 132.725 160.36C131.983 160.66 131.141 160.81 130.199 160.81ZM137.889 160.553V146.508H145.981V148.007H139.666V152.417H144.997V153.937H139.666V159.033H146.195V160.553H137.889Z" fill="white"/>
<circle cx="136.309" cy="99.8613" r="13" fill="#E0FB92"/>
<path d="M129.309 99.811H143.208" stroke="#141414" stroke-width="1.5"/>
<path d="M136.258 92.8613V106.761" stroke="#141414" stroke-width="1.5"/>
<defs>
<clipPath id="clip0_2050_7573">
<rect width="56" height="56" fill="white" transform="translate(53.936 43.989)"/>
</clipPath>
</defs>
</svg>
