<svg width="40" height="40" viewBox="0 0 40 40" fill="none" xmlns="http://www.w3.org/2000/svg">
<g clip-path="url(#clip0_45_74)">
<path d="M6 4H30C31.5913 4 33.1174 4.63214 34.2426 5.75736C35.3679 6.88258 36 8.4087 36 10V34C36 35.5913 35.3679 37.1174 34.2426 38.2426C33.1174 39.3679 31.5913 40 30 40H6C4.4087 40 2.88258 39.3679 1.75736 38.2426C0.632141 37.1174 0 35.5913 0 34L0 10C0 8.4087 0.632141 6.88258 1.75736 5.75736C2.88258 4.63214 4.4087 4 6 4Z" fill="#FAFAFD"/>
<path fill-rule="evenodd" clip-rule="evenodd" d="M13.9907 22L21.1184 29.0276L25.6417 24.6519C26.4642 23.8564 27.6978 23.8564 28.3832 24.6519C29.2056 25.4475 29.2056 26.7735 28.3832 27.5691L22.4891 33.4033C21.6667 34.1989 20.433 34.1989 19.6106 33.4033L11.1121 24.9171V29.9558C11.1121 31.0166 10.1526 31.9447 9.05607 31.9447C7.9595 31.9447 7 31.0166 7 29.9558V14.0442C7 12.9834 7.9595 12.0552 9.05607 12.0552C10.1526 12.0552 11.1121 12.9834 11.1121 14.0442V19.0829L19.6106 10.5967C20.433 9.8011 21.6667 9.8011 22.4891 10.5967L28.3832 16.4309C29.2056 17.2265 29.2056 18.5525 28.3832 19.3481C27.5607 20.1436 26.3271 20.1436 25.6417 19.3481L21.1184 14.8398L13.9907 22ZM21.1184 20.011C22.215 20.011 23.1745 20.9392 23.1745 22C23.1745 23.0608 22.215 23.989 21.1184 23.989C20.0218 23.989 19.0623 23.0608 19.0623 22C19.0623 20.9392 20.0218 20.011 21.1184 20.011Z" fill="#55AC92"/>
<path d="M32.5 15C36.6421 15 40 11.6421 40 7.5C40 3.35786 36.6421 0 32.5 0C28.3579 0 25 3.35786 25 7.5C25 11.6421 28.3579 15 32.5 15Z" fill="black"/>
<path fill-rule="evenodd" clip-rule="evenodd" d="M32.9 1.50002L36.5 7.5L32.6 9.28829L28.7963 7.6L32.3 1.50002L32.4 1.40002H32.5H32.6H32.7H32.8L32.9 1.50002ZM32.5 10.5L36.5 8.5L32.7 13.6C32.7 13.7 32.6 13.7 32.6 13.7H32.5H32.4L32.3 13.6L28.5 8.5L32.5 10.5Z" fill="white"/>
</g>
<defs>
<clipPath id="clip0_45_74">
<rect width="40" height="40" fill="white"/>
</clipPath>
</defs>
</svg>
