<svg width="40" height="40" viewBox="0 0 40 40" fill="none" xmlns="http://www.w3.org/2000/svg">
<g clip-path="url(#clip0_45_14)">
<path d="M6 4H30C31.5913 4 33.1174 4.63214 34.2426 5.75736C35.3679 6.88258 36 8.4087 36 10V34C36 35.5913 35.3679 37.1174 34.2426 38.2426C33.1174 39.3679 31.5913 40 30 40H6C4.4087 40 2.88258 39.3679 1.75736 38.2426C0.632141 37.1174 0 35.5913 0 34L0 10C0 8.4087 0.632141 6.88258 1.75736 5.75736C2.88258 4.63214 4.4087 4 6 4Z" fill="#F79482"/>
<path d="M32.5 15C36.6421 15 40 11.6421 40 7.5C40 3.35786 36.6421 0 32.5 0C28.3579 0 25 3.35786 25 7.5C25 11.6421 28.3579 15 32.5 15Z" fill="black"/>
<path fill-rule="evenodd" clip-rule="evenodd" d="M32.9 1.50002L36.5 7.5L32.6 9.28829L28.7963 7.6L32.3 1.50002L32.4 1.40002H32.5H32.6H32.7H32.8L32.9 1.50002ZM32.5 10.5L36.5 8.5L32.7 13.6C32.7 13.7 32.6 13.7 32.6 13.7H32.5H32.4L32.3 13.6L28.5 8.5L32.5 10.5Z" fill="white"/>
<g clip-path="url(#clip1_45_14)">
<path d="M11.6768 18.6911L18.0376 22.2484L24.3232 18.6911L18.0376 9L11.6768 18.6911Z" fill="white"/>
<path d="M18.0376 9V22.2484L24.3232 18.6911L18.0376 9Z" fill="#99DAFF"/>
<path d="M11.6768 18.691L18.0376 14.999V22.2484L11.6768 18.691Z" fill="#99DAFF"/>
<path d="M10.57 20.007C9.57939 21.4438 9 23.1825 9 25.0555C9 29.9956 13.0296 34 17.9998 34V24.3897L10.5696 20.007H10.57Z" fill="white"/>
<path d="M24.3232 18.691L18.0376 14.999V22.2484L24.3232 18.691Z" fill="#33B5FF"/>
<path d="M10.5699 20.007L17.9998 34V24.3897L10.5699 20.007Z" fill="#99DAFF"/>
<path d="M27 25.0555C27 23.1825 26.4206 21.4438 25.43 20.007L17.9998 24.3897V34C22.9704 34 26.9996 29.9952 26.9996 25.0555H27Z" fill="#99DAFF"/>
<path d="M25.43 20.007L17.9998 24.3897V34L25.43 20.007Z" fill="#33B5FF"/>
</g>
</g>
<defs>
<clipPath id="clip0_45_14">
<rect width="40" height="40" fill="white"/>
</clipPath>
<clipPath id="clip1_45_14">
<rect width="18" height="25" fill="white" transform="translate(9 9)"/>
</clipPath>
</defs>
</svg>
