<svg width="40" height="40" viewBox="0 0 40 40" fill="none" xmlns="http://www.w3.org/2000/svg">
<g clip-path="url(#clip0_45_6)">
<path d="M6 4H30C31.5913 4 33.1174 4.63214 34.2426 5.75736C35.3679 6.88258 36 8.4087 36 10V34C36 35.5913 35.3679 37.1174 34.2426 38.2426C33.1174 39.3679 31.5913 40 30 40H6C4.4087 40 2.88258 39.3679 1.75736 38.2426C0.632141 37.1174 0 35.5913 0 34L0 10C0 8.4087 0.632141 6.88258 1.75736 5.75736C2.88258 4.63214 4.4087 4 6 4Z" fill="black"/>
<g clip-path="url(#clip1_45_6)">
<path d="M12.1248 19.7111H12.1359L12.3249 19.7786L12.5028 19.8461L12.6918 19.9023L12.8696 19.9811L13.0586 20.0486L13.2365 20.1161L13.4255 20.1836L13.6033 20.2511L13.7812 20.3186L13.9591 20.3861L14.1481 20.4536L14.3259 20.5324L14.5149 20.5887L14.6928 20.6562L14.8818 20.7237L15.0596 20.8024L15.2486 20.8699L15.4265 20.9262L15.6043 20.9937L15.7933 21.0725L15.9823 21.14V20.8474V20.8024V20.5662V20.3974V20.2736V19.9811V19.6998V19.4073V19.126V18.8222V18.541V18.5072H15.76H15.5488H15.5265H15.2931H15.1152H15.0485H14.8151H14.6928H14.5705H14.3259H14.2592H14.0925H13.859H13.8479H13.8368H13.6145H13.4144H13.381H13.1364H12.9808H12.5584H12.1359H12.1248H11.8802L11.7024 18.5972L11.2799 18.8222L10.8464 19.0585L10.4128 19.2723L10.0015 19.4973L9.56796 19.7336L9.13441 19.9473L8.71198 20.1836L8.27842 20.4086L7.85599 20.6224L7.43355 20.8587L7.04447 21.0612L7 27.5081L7.43355 27.8119L7.85599 28.1157L8.27842 28.4082L8.71198 28.7232L9.13441 29.027L9.56796 29.3308L9.75695 29.477L10.0015 29.162L10.4128 28.5995L10.4573 28.5432L10.4128 28.5095L10.0015 28.2057L9.56796 27.9019L9.13441 27.5981L8.71198 27.2943L8.27842 26.9793L8.16726 26.9118L8.20061 21.6913L8.27842 21.6463L8.71198 21.4325L9.13441 21.2187L9.56796 21.005L10.0015 20.7912L10.4128 20.5662L10.8464 20.3524L11.2799 20.1499L11.7024 19.9248L12.1248 19.7111Z" fill="url(#paint0_linear_45_6)"/>
<path d="M19.4841 32.0086L19.1283 32.1548L18.7281 32.3236L18.3279 32.4811L17.9277 32.6499L17.7499 32.7174L17.5387 32.6161L17.1385 32.4023L16.7382 32.2111L16.3492 31.9973L15.949 31.7948L15.5488 31.6035L15.1486 31.3897L14.7484 31.1872L14.3482 30.9847L13.9479 30.7822L13.5477 30.5684L13.1698 30.3771L12.7696 30.1746L12.7251 30.1521V24.8866H12.3694H11.9692H11.569V30.8722L11.9692 31.0635L12.3694 31.266L12.7696 31.4798L13.1698 31.671L13.5477 31.8848L13.9479 32.0873L14.3482 32.2898L14.7484 32.4924L15.1486 32.6949L15.5488 32.8974L15.949 33.0999L16.3492 33.3137L16.7382 33.505L17.1385 33.7187L17.5387 33.91L17.6943 34L17.9277 33.8875L18.3279 33.7412L18.7281 33.5725L19.1283 33.4037L19.5174 33.2462L19.9176 33.0887L19.5174 32.0761L19.4841 32.0086Z" fill="url(#paint1_linear_45_6)"/>
<path d="M26.5877 24.6953L26.6099 27.1706L26.5099 27.2606L25.8317 27.7331L25.1536 28.2282L24.4755 28.7232L23.7974 29.207L23.1193 29.6908L22.4523 30.1859L21.7741 30.6697L21.3739 30.9622L21.096 30.7484L20.429 30.2196L19.7509 29.7021L19.0728 29.1733L18.4058 28.6557L18.2835 28.5657V25.8992L18.4058 25.7867L19.0728 25.0666L19.7509 24.3578L20.429 23.6377L21.096 22.9289L21.7519 22.2313H21.096H20.429H19.7509H19.0728H18.4058H17.7165H17.0384H16.3714H15.6933H15.0152H14.3482H13.67L14.3482 22.9514L15.0152 23.6602L15.6933 24.369L16.3714 25.0891L17.0384 25.7979L17.1385 25.8992V29.1283L17.7165 29.5896L18.4058 30.1184L19.0728 30.6359L19.7509 31.1647L20.429 31.6823L21.096 32.2111L21.3406 32.4023L21.7741 32.0873L22.4523 31.6148L23.1193 31.1197L23.7974 30.6247L24.4755 30.1521L25.1536 29.6571L25.8317 29.162L26.5099 28.6895L27.188 28.1944L27.7438 27.7781L27.855 24.7403L27.188 24.7178L26.5877 24.6953Z" fill="url(#paint2_linear_45_6)"/>
<path d="M8.10054 18.9347H8.17836L8.18947 15.6269L8.62303 15.3456L9.16774 15.0193L9.70135 14.6931L10.235 14.3555L10.7686 14.0292L11.3133 13.6917L11.8358 13.3654L12.3805 13.0391L12.9141 12.7016L13.4588 12.3641H13.4699L13.9813 12.6679L14.526 12.9716L15.0596 13.2867L15.5932 13.5905L16.1268 13.8942L16.6604 14.198L17.194 14.513L17.7165 14.8168L17.7387 14.7718L18.2723 13.793L17.7387 13.4779L17.194 13.1742L16.6604 12.8704L16.1268 12.5666L15.5932 12.2516L15.0596 11.9478L14.526 11.644L13.9813 11.329L13.4588 11.0252L13.4366 11.0139L12.9141 11.329L12.3805 11.6665L11.8358 12.004L11.3133 12.3416L10.7686 12.6679L10.235 12.9941L9.70135 13.3317L9.16774 13.658L8.62303 13.9955L8.10054 14.3218L7.55582 14.6481L7.04445 14.9743L7.02222 18.9235H7.55582L8.10054 18.9347Z" fill="url(#paint3_linear_45_6)"/>
<path d="M29 15.9082L28.7221 15.6832L28.4442 15.4581L28.1663 15.2219L27.8883 14.9969L27.6104 14.7718L27.3214 14.5468L27.0435 14.3218L26.7656 14.0968L26.4765 13.8605L26.2653 13.703L26.1875 13.793L25.9096 14.1418L25.6317 14.5018L25.5538 14.5918L25.6317 14.6706L25.9096 14.9068L26.1875 15.1431L26.4765 15.3794L26.7656 15.6157L27.0435 15.8632L27.3214 16.0995L27.6104 16.3357L27.7438 16.4482L27.7549 21.77L27.6104 21.8713L27.3214 22.0513L27.0435 22.2313L26.7656 22.4113L26.4765 22.5914L26.1875 22.7714L25.9096 22.9514L25.6317 23.1314L25.3537 23.3114L25.0758 23.4915L24.7979 23.6715L24.5089 23.8515L24.2309 24.0315L23.953 24.2115L23.6751 24.3915L23.3861 24.5716L23.1082 24.7516L23.3861 25.2016L23.6751 25.6517L23.7196 25.7304L23.953 25.5842L24.2309 25.4154L24.5089 25.2354L24.7979 25.0666L25.0758 24.8753L25.3537 24.7066L25.6317 24.5266L25.9096 24.3578L26.1875 24.1778L26.4765 24.009L26.7656 23.8177L27.0435 23.649L27.3214 23.4689L27.6104 23.3002L27.8883 23.1202L28.1663 22.9514L28.4442 22.7601L28.7221 22.5914L29 22.4113V15.9082Z" fill="url(#paint4_linear_45_6)"/>
<path d="M19.8287 19.081V19.3735V19.6661V19.9586V20.2624V20.5662V20.8587V21.1512V21.3762L19.9176 21.3425L20.2956 21.1962L20.6736 21.0387L21.0404 20.8924L21.4184 20.7349L21.7963 20.5774L22.1632 20.4311L22.5412 20.2736L22.9191 20.1274L23.286 19.9698L23.6639 19.8236L24.0308 19.6661V19.3735V19.261V18.4847V12.7016L23.6084 12.4316L23.1748 12.1841L22.7413 11.9365L22.3188 11.6665L21.8853 11.419L21.4517 11.1715L21.0293 10.9127L20.5957 10.6539L20.1733 10.3951L19.7397 10.1476L19.3062 9.88884L18.8838 9.63006L18.4613 9.38254L18.0278 9.13501L17.7943 9L17.5942 9.11251L17.1607 9.34878L16.7271 9.57381L16.3158 9.82133L15.8822 10.0576L15.4487 10.2826L15.0151 10.5302L15.4487 10.7777L15.8822 11.0252L16.149 11.194L16.3158 11.104L16.7271 10.8789L17.1607 10.6427L17.5942 10.4176L17.761 10.3276L18.0278 10.4851L18.4613 10.7327L18.8838 10.9802L19.3062 11.239L19.7397 11.4978L20.1733 11.7453L20.5957 12.0041L21.0293 12.2628L21.4517 12.5104L21.8853 12.7579L22.3188 13.0279L22.7413 13.2754L22.8858 13.3542V18.4847H22.7857H22.7413H22.5412H22.3188H22.2966H22.0409H21.8853H21.7963H21.5518H21.4517H21.3072H21.0626H21.0293H20.8181H20.5957H20.5735H20.3178H20.1733H20.0732H19.8843H19.8509" fill="url(#paint5_linear_45_6)"/>
<path d="M19.8287 21.3762L24.0308 19.6661L19.8287 18.4847" fill="url(#paint6_linear_45_6)"/>
<path d="M15.9823 21.3762V18.5297L12.1359 19.6886L15.9823 21.365" fill="url(#paint7_linear_45_6)"/>
</g>
<path d="M32.5 15C36.6421 15 40 11.6421 40 7.5C40 3.35786 36.6421 0 32.5 0C28.3579 0 25 3.35786 25 7.5C25 11.6421 28.3579 15 32.5 15Z" fill="black"/>
<path fill-rule="evenodd" clip-rule="evenodd" d="M32.9 1.50002L36.5 7.5L32.6 9.28829L28.7963 7.6L32.3 1.50002L32.4 1.40002H32.5H32.6H32.7H32.8L32.9 1.50002ZM32.5 10.5L36.5 8.5L32.7 13.6C32.7 13.7 32.6 13.7 32.6 13.7H32.5H32.4L32.3 13.6L28.5 8.5L32.5 10.5Z" fill="white"/>
</g>
<defs>
<linearGradient id="paint0_linear_45_6" x1="11.4884" y1="18.5106" x2="11.4884" y2="29.4725" gradientUnits="userSpaceOnUse">
<stop stop-color="#F6E93D"/>
<stop offset="0.13" stop-color="#F8E330"/>
<stop offset="0.35" stop-color="#F7C730"/>
<stop offset="0.64" stop-color="#F59C2E"/>
<stop offset="0.98" stop-color="#EB5E2C"/>
<stop offset="1" stop-color="#EB5C2C"/>
</linearGradient>
<linearGradient id="paint1_linear_45_6" x1="15.745" y1="24.8911" x2="15.745" y2="33.9989" gradientUnits="userSpaceOnUse">
<stop stop-color="#F6E93D"/>
<stop offset="0.13" stop-color="#F8E330"/>
<stop offset="0.35" stop-color="#F7C730"/>
<stop offset="0.64" stop-color="#F59C2E"/>
<stop offset="0.98" stop-color="#EB5E2C"/>
<stop offset="1" stop-color="#EB5C2C"/>
</linearGradient>
<linearGradient id="paint2_linear_45_6" x1="20.762" y1="22.2302" x2="20.762" y2="32.4057" gradientUnits="userSpaceOnUse">
<stop stop-color="#F6E93D"/>
<stop offset="0.13" stop-color="#F8E330"/>
<stop offset="0.35" stop-color="#F7C730"/>
<stop offset="0.64" stop-color="#F59C2E"/>
<stop offset="0.98" stop-color="#EB5E2C"/>
<stop offset="1" stop-color="#EB5C2C"/>
</linearGradient>
<linearGradient id="paint3_linear_45_6" x1="12.6467" y1="11.0173" x2="12.6467" y2="18.9359" gradientUnits="userSpaceOnUse">
<stop stop-color="#F6E93D"/>
<stop offset="0.13" stop-color="#F8E330"/>
<stop offset="0.35" stop-color="#F7C730"/>
<stop offset="0.64" stop-color="#F59C2E"/>
<stop offset="0.98" stop-color="#EB5E2C"/>
<stop offset="1" stop-color="#EB5C2C"/>
</linearGradient>
<linearGradient id="paint4_linear_45_6" x1="26.0585" y1="13.7007" x2="26.0585" y2="25.7315" gradientUnits="userSpaceOnUse">
<stop stop-color="#F6E93D"/>
<stop offset="0.13" stop-color="#F8E330"/>
<stop offset="0.35" stop-color="#F7C730"/>
<stop offset="0.64" stop-color="#F59C2E"/>
<stop offset="0.98" stop-color="#EB5E2C"/>
<stop offset="1" stop-color="#EB5C2C"/>
</linearGradient>
<linearGradient id="paint5_linear_45_6" x1="19.5219" y1="9" x2="19.5219" y2="21.3796" gradientUnits="userSpaceOnUse">
<stop stop-color="#F6E93D"/>
<stop offset="0.13" stop-color="#F8E330"/>
<stop offset="0.35" stop-color="#F7C730"/>
<stop offset="0.64" stop-color="#F59C2E"/>
<stop offset="0.98" stop-color="#EB5E2C"/>
<stop offset="1" stop-color="#EB5C2C"/>
</linearGradient>
<linearGradient id="paint6_linear_45_6" x1="21.9253" y1="18.4926" x2="21.9253" y2="21.383" gradientUnits="userSpaceOnUse">
<stop stop-color="#F6E93D"/>
<stop offset="0.13" stop-color="#F8E330"/>
<stop offset="0.35" stop-color="#F7C730"/>
<stop offset="0.64" stop-color="#F59C2E"/>
<stop offset="0.98" stop-color="#EB5E2C"/>
<stop offset="1" stop-color="#EB5C2C"/>
</linearGradient>
<linearGradient id="paint7_linear_45_6" x1="14.0127" y1="20.6615" x2="14.9393" y2="18.1461" gradientUnits="userSpaceOnUse">
<stop stop-color="#F6E93D"/>
<stop offset="0.13" stop-color="#F8E330"/>
<stop offset="0.35" stop-color="#F7C730"/>
<stop offset="0.64" stop-color="#F59C2E"/>
<stop offset="0.98" stop-color="#EB5E2C"/>
<stop offset="1" stop-color="#EB5C2C"/>
</linearGradient>
<clipPath id="clip0_45_6">
<rect width="40" height="40" fill="white"/>
</clipPath>
<clipPath id="clip1_45_6">
<rect width="22" height="25" fill="white" transform="translate(7 9)"/>
</clipPath>
</defs>
</svg>
