<svg width="40" height="40" viewBox="0 0 40 40" fill="none" xmlns="http://www.w3.org/2000/svg">
<g clip-path="url(#clip0_45_89)">
<path d="M6 4H30C31.5913 4 33.1174 4.63214 34.2426 5.75736C35.3679 6.88258 36 8.4087 36 10V34C36 35.5913 35.3679 37.1174 34.2426 38.2426C33.1174 39.3679 31.5913 40 30 40H6C4.4087 40 2.88258 39.3679 1.75736 38.2426C0.632141 37.1174 0 35.5913 0 34L0 10C0 8.4087 0.632141 6.88258 1.75736 5.75736C2.88258 4.63214 4.4087 4 6 4Z" fill="url(#paint0_linear_45_89)"/>
<path d="M6.94829 29V18.798L14.579 24.6208V29H16.5266V24.2097C16.5262 24.0317 16.4852 23.8562 16.4066 23.697C16.3281 23.5378 16.2143 23.3992 16.0741 23.2921L6.82002 16.228C6.65076 16.1005 6.44995 16.0231 6.23992 16.0044C6.02989 15.9857 5.81885 16.0264 5.63027 16.122C5.44168 16.2176 5.28294 16.3644 5.17167 16.546C5.06041 16.7276 5.00098 16.9369 5 17.1506V29H6.94829ZM28.0517 29V18.798L20.421 24.6208V29H18.4734V24.2097C18.4738 24.0317 18.5148 23.8562 18.5934 23.697C18.6719 23.5378 18.7857 23.3992 18.9259 23.2921L28.18 16.2309C28.349 16.1035 28.5496 16.0262 28.7594 16.0074C28.9692 15.9886 29.18 16.029 29.3685 16.1243C29.557 16.2195 29.7157 16.3659 29.8272 16.547C29.9387 16.7282 29.9985 16.9371 30 17.1506V29H28.0517Z" fill="white"/>
<path d="M32.5 15C36.6421 15 40 11.6421 40 7.5C40 3.35786 36.6421 0 32.5 0C28.3579 0 25 3.35786 25 7.5C25 11.6421 28.3579 15 32.5 15Z" fill="black"/>
<path fill-rule="evenodd" clip-rule="evenodd" d="M32.9 1.50002L36.5 7.5L32.6 9.28829L28.7963 7.6L32.3 1.50002L32.4 1.40002H32.5H32.6H32.7H32.8L32.9 1.50002ZM32.5 10.5L36.5 8.5L32.7 13.6C32.7 13.7 32.6 13.7 32.6 13.7H32.5H32.4L32.3 13.6L28.5 8.5L32.5 10.5Z" fill="white"/>
</g>
<defs>
<linearGradient id="paint0_linear_45_89" x1="18" y1="4" x2="18" y2="40" gradientUnits="userSpaceOnUse">
<stop stop-color="#4FA89B"/>
<stop offset="1" stop-color="#6ACEBB"/>
</linearGradient>
<clipPath id="clip0_45_89">
<rect width="40" height="40" fill="white"/>
</clipPath>
</defs>
</svg>
