<svg width="40" height="40" viewBox="0 0 40 40" fill="none" xmlns="http://www.w3.org/2000/svg">
<g clip-path="url(#clip0_45_129)">
<path d="M6 4H30C31.5913 4 33.1174 4.63214 34.2426 5.75736C35.3679 6.88258 36 8.4087 36 10V34C36 35.5913 35.3679 37.1174 34.2426 38.2426C33.1174 39.3679 31.5913 40 30 40H6C4.4087 40 2.88258 39.3679 1.75736 38.2426C0.632141 37.1174 0 35.5913 0 34L0 10C0 8.4087 0.632141 6.88258 1.75736 5.75736C2.88258 4.63214 4.4087 4 6 4Z" fill="#F2F2F2"/>
<path d="M32.5 15C36.6421 15 40 11.6421 40 7.5C40 3.35786 36.6421 0 32.5 0C28.3579 0 25 3.35786 25 7.5C25 11.6421 28.3579 15 32.5 15Z" fill="black"/>
<path fill-rule="evenodd" clip-rule="evenodd" d="M32.9 1.50002L36.5 7.5L32.6 9.28829L28.7963 7.6L32.3 1.50002L32.4 1.40002H32.5H32.6H32.7H32.8L32.9 1.50002ZM32.5 10.5L36.5 8.5L32.7 13.6C32.7 13.7 32.6 13.7 32.6 13.7H32.5H32.4L32.3 13.6L28.5 8.5L32.5 10.5Z" fill="white"/>
<g clip-path="url(#clip1_45_129)">
<path d="M12.9464 13.9944C13.4222 13.466 13.8598 13.0189 14.2766 12.6395C7.23993 12.4193 9.28911 17.3817 6.98292 22.4187C4.34329 28.2246 7.2955 30.4365 11.6926 31.1276C11.0785 30.4139 10.5775 29.6147 10.206 28.7564C7.36844 25.2573 8.51806 18.879 12.9464 13.9944Z" fill="#EFE812"/>
<path d="M29.8782 20.1797C29.0472 22.2999 27.845 24.2632 26.3251 25.9822C25.1066 27.4264 23.6471 28.6597 22.0079 29.6304C20.1042 30.8068 17.8917 31.4198 15.6381 31.3952C14.3224 31.4067 13.0078 31.3172 11.7065 31.1276C12.429 31.9693 13.3247 32.6536 14.3357 33.1362C20.6985 36.1374 21.0979 30.5653 27.829 27.7368C31.6078 26.1482 31.6217 23.0454 29.8747 20.1797" fill="#EDE70A"/>
<path d="M22.0079 14.3873C22.9291 14.5446 23.8166 14.8514 24.6336 15.2951C26.774 16.4688 28.5774 18.1485 29.8782 20.1797C31.0243 17.0295 30.4894 14.5567 27.9853 14.1096C25.2276 13.6184 23.0742 13.4592 21.0042 12.0501C18.4548 10.3225 16.2181 10.8848 14.2801 12.6429L14.7003 12.6598C17.3886 12.8156 19.9587 13.3373 21.994 14.3806" fill="#EDE70A"/>
<path d="M12.9464 13.9944C8.51805 18.8789 7.36843 25.2573 10.2199 28.7564C9.56028 27.2375 9.27241 25.5896 9.37912 23.9433C9.48582 22.2971 9.98417 20.6977 10.8347 19.2719C13.2346 15.3697 18.052 13.676 22.0079 14.3873C19.9587 13.3305 17.3886 12.8224 14.7142 12.6666L14.294 12.6462C13.8633 13.0324 13.4257 13.466 12.9464 13.9944Z" fill="#DEC21C"/>
<path d="M24.6336 15.2884C23.8162 14.847 22.9286 14.5425 22.0079 14.3873C24.7031 15.7694 26.4918 18.1134 26.4918 21.8191C26.4762 23.3834 26.0573 24.9188 25.2738 26.2838C24.4902 27.6488 23.3671 28.7996 22.0079 29.6303C23.6479 28.6608 25.1076 27.4273 26.3251 25.9822C27.845 24.2632 29.0472 22.2999 29.8782 20.1797C28.5784 18.146 26.7748 16.4639 24.6336 15.2884Z" fill="#E5CB22"/>
<path d="M22.0079 14.3873C18.052 13.676 13.2346 15.3697 10.8347 19.2549C9.98061 20.6826 9.48028 22.2851 9.37355 23.9347C9.26681 25.5843 9.55664 27.2354 10.2199 28.7564C10.59 29.6154 11.0912 30.4148 11.7064 31.1276C13.0078 31.3172 14.3224 31.4067 15.6381 31.3952C17.8917 31.4198 20.1042 30.8068 22.0079 29.6304C23.3673 28.7999 24.4906 27.6491 25.2742 26.284C26.0578 24.919 26.4765 23.3835 26.4918 21.8192C26.4918 18.1134 24.7031 15.7694 22.0079 14.3873ZM21.5633 27.8689C20.1002 28.7855 18.3246 29.0997 16.6245 28.743C14.9245 28.3863 13.4385 27.3876 12.4914 25.9653C10.5256 23.0081 11.498 19.1906 14.4468 17.1582C17.7463 14.8717 21.9767 15.7728 23.5187 19.0619C25.0226 22.2663 24.6093 25.9686 21.5633 27.8689Z" fill="#CCA727"/>
</g>
</g>
<defs>
<clipPath id="clip0_45_129">
<rect width="40" height="40" fill="white"/>
</clipPath>
<clipPath id="clip1_45_129">
<rect width="25" height="23" fill="white" transform="translate(6 11)"/>
</clipPath>
</defs>
</svg>
