<svg width="40" height="40" viewBox="0 0 40 40" fill="none" xmlns="http://www.w3.org/2000/svg">
<g clip-path="url(#clip0_416_4371)">
<path d="M6 4H30C31.5913 4 33.1174 4.63214 34.2426 5.75736C35.3679 6.88258 36 8.4087 36 10V34C36 35.5913 35.3679 37.1174 34.2426 38.2426C33.1174 39.3679 31.5913 40 30 40H6C4.4087 40 2.88258 39.3679 1.75736 38.2426C0.632141 37.1174 0 35.5913 0 34L0 10C0 8.4087 0.632141 6.88258 1.75736 5.75736C2.88258 4.63214 4.4087 4 6 4Z" fill="#F00500"/>
<path d="M24.7643 12.7152C24.0615 13.4202 23.4176 14.1843 22.8452 14.999L22.6642 14.9399C21.6205 14.598 20.5389 14.3869 19.4489 14.3151C19.1206 14.2898 17.8959 14.2898 17.4961 14.3151C16.2882 14.3953 15.3623 14.5769 14.3102 14.9441C14.2681 14.961 14.2302 14.9737 14.1923 14.9864C13.5989 14.1758 12.9382 13.4159 12.2101 12.7194C15.7032 10.9252 19.7898 10.7099 23.447 12.1241C23.8384 12.2719 24.2214 12.445 24.596 12.6307L24.7643 12.7152Z" fill="#F00500"/>
<path d="M31.2792 28.7275C30.749 30.2431 29.9535 31.6489 28.9224 32.8731C28.3627 33.5317 27.744 34.1354 27.0791 34.6842C25.5219 35.9422 23.7038 36.8414 21.7636 37.3142C19.6172 37.8335 17.3783 37.8335 15.2319 37.3142C13.2875 36.8414 11.4736 35.9422 9.91642 34.6842C9.25146 34.1354 8.6328 33.5317 8.07305 32.8731C5.10599 29.3566 4.20536 24.5271 5.71624 20.1747C6.00243 19.3683 6.36016 18.5916 6.78943 17.8528C6.98724 17.5151 7.23134 17.1351 7.34918 16.9789C7.7532 18.7224 8.24981 20.2549 8.43499 20.8079C8.42237 20.8374 8.40553 20.8712 8.3887 20.9008C7.4081 22.8933 6.87781 24.8142 6.75156 26.8574C6.75156 26.8827 6.74735 26.9123 6.74735 26.9376C6.71368 27.5497 6.73051 27.841 6.83152 28.2252C7.14716 29.4283 8.11935 30.7539 9.64286 32.0541C12.1386 34.1818 15.5223 35.7185 18.0853 35.8958C20.7578 36.0773 24.7012 34.5111 27.3274 32.223C27.7398 31.8557 28.127 31.4673 28.4889 31.0536C28.7499 30.7497 29.1371 30.2262 29.1076 30.2262C29.0992 30.2262 29.1076 30.2178 29.1244 30.2093C29.1371 30.2009 29.1497 30.1882 29.1413 30.1798C29.1371 30.1755 29.1455 30.1629 29.1581 30.1587C29.1707 30.1544 29.1792 30.146 29.1749 30.1375C29.1707 30.1291 29.1749 30.1207 29.1918 30.1164C29.2044 30.1122 29.2086 30.0996 29.2044 30.0911C29.2002 30.0827 29.2044 30.0742 29.2128 30.0742C29.2212 30.0742 29.2297 30.0616 29.2297 30.0531C29.2297 30.0447 29.2381 30.032 29.2465 30.032C29.2549 30.032 29.2633 30.0236 29.2633 30.0151C29.2759 29.9814 29.297 29.9476 29.318 29.918C29.3812 29.8209 29.6337 29.3692 29.6673 29.2932C29.9072 28.7487 30.0587 28.2632 30.1303 27.7777C30.164 27.5455 30.185 27.1191 30.1682 27.0178C30.164 27.0009 30.164 26.9714 30.1598 26.9249C30.1513 26.8405 30.1471 26.7139 30.1387 26.5872C30.1303 26.3972 30.1135 26.1313 30.1008 26.0004C29.9199 24.0838 29.4317 22.5176 28.5058 20.8586C28.4679 20.7952 28.4342 20.7319 28.4132 20.6812C28.4048 20.6686 28.4006 20.6559 28.3964 20.6475C28.5268 20.2549 29.0613 18.6127 29.4864 16.7341L29.4948 16.7425L29.5579 16.827C29.6673 16.9747 29.9577 17.4138 30.0882 17.6248C30.6816 18.5958 31.1446 19.6385 31.4728 20.7277C32.2346 23.3493 32.1715 26.144 31.2792 28.7275Z" fill="#F00500"/>
<path d="M25.8165 23.6828C25.8039 23.7503 25.6061 23.953 25.4083 24.1007C24.8275 24.5271 23.788 24.9239 22.7316 25.1139C22.1298 25.2237 21.5279 25.2405 21.347 25.1519C21.2291 25.0928 21.2123 25.0464 21.2544 24.8944C21.3428 24.5778 21.6289 24.2316 22.0751 23.9065C22.3023 23.7419 23.224 23.1804 23.6533 22.944C24.3603 22.5556 24.9327 22.3234 25.3199 22.2686C25.4419 22.2517 25.5892 22.2475 25.6355 22.2686C25.7113 22.2981 25.7955 22.5219 25.8291 22.792C25.846 22.9356 25.8375 23.5688 25.8165 23.6828Z" fill="black"/>
<path d="M15.901 25.0801C15.8758 25.1308 15.7495 25.1857 15.6064 25.2068C15.4633 25.2279 15.0256 25.2152 14.7773 25.1857C13.8851 25.0675 12.9382 24.7931 12.248 24.4553C11.8608 24.2654 11.583 24.0754 11.3768 23.8685L11.2589 23.7461L11.2463 23.5857C11.2253 23.3071 11.2295 22.868 11.2632 22.7118C11.2842 22.581 11.3305 22.4543 11.3936 22.3403C11.4273 22.2981 11.4273 22.2981 11.5788 22.2981C11.764 22.2981 11.9197 22.3277 12.1722 22.4079C12.6899 22.5683 13.46 22.9567 14.3986 23.5224C15.1729 23.9867 15.4633 24.2147 15.6864 24.5271C15.8379 24.7213 15.9389 24.9957 15.901 25.0801Z" fill="black"/>
<path d="M21.8604 30.9565C21.8604 30.9692 21.8099 31.1718 21.7467 31.4125C21.6836 31.6531 21.6331 31.8473 21.6331 31.8557C21.5868 31.86 21.5447 31.8642 21.4984 31.86H21.3638L21.1786 32.299C21.0776 32.5396 20.985 32.7634 20.9724 32.7971L20.9471 32.8562L20.8587 32.7127L20.7703 32.5692V31.3998L20.7367 31.4082C20.6651 31.4251 20.1559 31.4927 19.9328 31.5138C19.0112 31.6067 18.0853 31.5856 17.1678 31.4547C17.0205 31.4336 16.8942 31.4167 16.89 31.4209C16.8858 31.4251 16.89 31.6953 16.8984 32.0288L16.9111 32.6283L16.8395 32.738C16.8016 32.7971 16.7638 32.8478 16.7638 32.852C16.7511 32.8647 16.7091 32.7971 16.6123 32.603C16.507 32.4003 16.4313 32.185 16.3766 31.9613L16.3471 31.8388L16.2166 31.8473L16.0862 31.86L16.0525 31.7038C16.0357 31.6193 16.0146 31.4885 16.0062 31.4167L15.9936 31.2816L15.8842 31.1845C15.821 31.1296 15.7579 31.0747 15.7453 31.0663C15.7242 31.0494 15.7158 31.0199 15.7158 30.9945V30.9439L16.2419 30.9481L16.768 30.9523L16.7848 31.0072L16.8016 31.0621L16.9826 31.0705C17.0836 31.0747 17.4035 31.0832 17.6897 31.0916L18.2157 31.1043L18.3504 30.8932L18.4893 30.6821H18.666L18.6618 30.2431L18.6576 29.8041L18.4262 29.7027C17.6812 29.3735 17.2435 28.9977 17.0794 28.5418C17.0457 28.4489 17.0457 28.4152 17.0373 27.993C17.0331 27.5751 17.0331 27.5371 17.0626 27.4442C17.1215 27.2331 17.2856 27.0685 17.4961 27.0136C17.5676 26.9925 17.757 26.9925 18.7502 26.9925L19.9202 26.9967L20.0507 27.06C20.2064 27.136 20.2779 27.1909 20.3663 27.3091C20.4673 27.4442 20.4968 27.5497 20.4968 27.8073C20.4968 28.1745 20.4715 28.4911 20.4337 28.6178C20.3789 28.7909 20.2948 28.9555 20.1896 29.1033C19.9791 29.3735 19.5961 29.6436 19.2468 29.7661L19.1458 29.8041L19.15 30.2473L19.1542 30.6906L19.2468 30.699L19.3394 30.7075L19.4657 30.8974L19.5877 31.0874H20.1517C20.4631 31.0874 20.7367 31.0916 20.7619 31.0959C20.804 31.1043 20.8124 31.1001 20.8545 31.0283L20.905 30.9523H21.389C21.7509 30.9354 21.8604 30.9439 21.8604 30.9565Z" fill="black"/>
<path d="M19.6383 32.1681C19.5584 32.2146 19.5036 32.2357 19.491 32.2272C19.4784 32.223 19.4195 32.1724 19.3563 32.1259L19.2427 32.033L19.1249 32.1597C18.8681 32.4383 18.8597 32.451 18.784 32.4552C18.6661 32.4679 18.6409 32.4468 18.4978 32.2315C18.422 32.1217 18.3631 32.0288 18.3631 32.0288C18.3631 32.0288 18.3084 32.0204 18.2453 32.0162L18.1274 32.0035L18.0727 32.1175L18.018 32.2315L17.9212 32.2019C17.8455 32.1766 17.7697 32.147 17.6982 32.1132L17.5719 32.0499V31.8093L18.6914 31.8135L19.8109 31.8177L19.8151 31.9317C19.8193 32.0668 19.8235 32.0626 19.6383 32.1681Z" fill="black"/>
<path d="M30.1598 27.0178C30.1556 27.0009 30.1556 26.9714 30.1514 26.9249C29.1413 26.8152 26.2584 26.7476 23.5818 28.964C23.5818 28.964 22.719 24.9957 18.6788 24.9957C14.6385 24.9957 13.1402 28.964 13.1402 28.964C10.876 26.5197 7.84583 26.697 6.7516 26.8574C6.7516 26.8827 6.74739 26.9123 6.74739 26.9376C6.71372 27.5497 6.73055 27.841 6.83156 28.2252C7.1472 29.4283 8.11939 30.7539 9.6429 32.0541C12.1386 34.1818 15.5223 35.7185 18.0853 35.8958C20.7578 36.0773 24.7012 34.5111 27.3274 32.223C27.7399 31.8557 28.127 31.4673 28.489 31.0536C28.7499 30.7497 29.1371 30.2262 29.1077 30.2262C29.0992 30.2262 29.1077 30.2178 29.1245 30.2093C29.1371 30.2009 29.1497 30.1882 29.1413 30.1798C29.1371 30.1755 29.1455 30.1629 29.1582 30.1587C29.1708 30.1544 29.1792 30.146 29.175 30.1375C29.1708 30.1291 29.175 30.1207 29.1918 30.1164C29.2044 30.1122 29.2087 30.0996 29.2044 30.0911C29.2002 30.0827 29.2044 30.0742 29.2129 30.0742C29.2213 30.0742 29.2297 30.0616 29.2297 30.0531C29.2297 30.0447 29.2381 30.032 29.2465 30.032C29.2549 30.032 29.2634 30.0236 29.2634 30.0151C29.276 29.9813 29.297 29.9476 29.3181 29.918C29.3812 29.8209 29.6337 29.3692 29.6674 29.2932C29.9073 28.7487 30.0588 28.2632 30.1303 27.7777C30.1556 27.5455 30.1766 27.1191 30.1598 27.0178ZM19.6383 32.1681C19.5583 32.2146 19.5036 32.2357 19.491 32.2272C19.4784 32.223 19.4195 32.1723 19.3563 32.1259L19.2427 32.033L19.1249 32.1597C18.8681 32.4383 18.8597 32.451 18.784 32.4552C18.6661 32.4678 18.6409 32.4467 18.4978 32.2314C18.422 32.1217 18.3631 32.0288 18.3631 32.0288C18.3631 32.0288 18.3084 32.0204 18.2453 32.0161L18.1274 32.0035L18.0727 32.1175L18.018 32.2314L17.9212 32.2019C17.8454 32.1766 17.7697 32.147 17.6982 32.1132L17.5719 32.0499V31.8093L18.6914 31.8135L19.8109 31.8177L19.8151 31.9317C19.8193 32.0668 19.8235 32.0626 19.6383 32.1681ZM21.7426 31.4082C21.6795 31.6489 21.629 31.8431 21.629 31.8515C21.5827 31.8557 21.5406 31.8599 21.4943 31.8557H21.3596L21.1787 32.299C21.0777 32.5396 20.9851 32.7634 20.9724 32.7971L20.9472 32.8562L20.8588 32.7127L20.7704 32.5692V31.3998L20.7368 31.4082C20.6652 31.4251 20.156 31.4927 19.9329 31.5138C19.0112 31.6067 18.0853 31.5855 17.1679 31.4547C17.0206 31.4336 16.8943 31.4167 16.8901 31.4209C16.8859 31.4251 16.8901 31.6953 16.8985 32.0288L16.9111 32.6283L16.8396 32.738C16.8017 32.7971 16.7638 32.8478 16.7638 32.852C16.7512 32.8647 16.7091 32.7971 16.6123 32.6029C16.5071 32.4003 16.4314 32.185 16.3767 31.9613L16.3472 31.8388L16.2167 31.8473L16.0863 31.8599L16.0526 31.7037C16.0358 31.6193 16.0147 31.4884 16.0063 31.4167L15.9937 31.2816L15.8842 31.1845C15.8211 31.1296 15.758 31.0747 15.7454 31.0663C15.7243 31.0494 15.7159 31.0199 15.7159 30.9945V30.9439L16.242 30.9481L16.768 30.9523L16.7849 31.0072L16.8017 31.0621L16.9827 31.0705C17.0837 31.0747 17.4035 31.0832 17.6897 31.0916L18.2158 31.1043L18.3505 30.8932L18.4894 30.6821H18.6661L18.6619 30.2431L18.6577 29.804L18.4262 29.7027C17.6813 29.3734 17.2436 28.9977 17.0795 28.5418C17.0458 28.4489 17.0458 28.4151 17.0374 27.993C17.0332 27.5751 17.0332 27.5371 17.0627 27.4442C17.1216 27.2331 17.2857 27.0685 17.4961 27.0136C17.5677 26.9925 17.7571 26.9925 18.7503 26.9925L19.9203 26.9967L20.0508 27.06C20.2065 27.136 20.278 27.1909 20.3664 27.3091C20.4674 27.4442 20.4969 27.5497 20.4969 27.8072C20.4969 28.1745 20.4716 28.4911 20.4337 28.6178C20.379 28.7909 20.2949 28.9555 20.1896 29.1033C19.9792 29.3734 19.5962 29.6436 19.2469 29.766L19.1459 29.804L19.1501 30.2473L19.1543 30.6906L19.2469 30.699L19.3395 30.7075L19.4658 30.8974L19.5878 31.0874H20.1518C20.4632 31.0874 20.7368 31.0916 20.762 31.0958C20.8041 31.1043 20.8125 31.1001 20.8546 31.0283L20.9051 30.9523H21.3891C21.7637 30.9523 21.8731 30.9565 21.8731 30.9692C21.8604 30.965 21.8057 31.1718 21.7426 31.4082Z" fill="white"/>
<path d="M30.1261 26.5872C30.1177 26.3972 30.1009 26.1313 30.0882 26.0004C29.9073 24.0838 29.4191 22.5176 28.4932 20.8586C28.4553 20.7952 28.4216 20.7319 28.4006 20.6813C28.3922 20.6686 28.388 20.6559 28.3838 20.6475C28.5142 20.2549 29.0487 18.6127 29.4738 16.7341C30.0504 14.1843 30.4165 11.2038 29.297 10.3089C29.297 10.3089 27.3611 10.1653 24.7686 12.7152C24.0657 13.4202 23.4218 14.1843 22.8495 14.999L22.6685 14.9399C21.6248 14.598 20.5431 14.3869 19.4531 14.3151C19.1248 14.2898 17.9001 14.2898 17.5003 14.3151C16.2925 14.3953 15.3666 14.5769 14.3144 14.9441C14.2723 14.961 14.2345 14.9737 14.1966 14.9864C13.6032 14.1758 12.9424 13.4159 12.2143 12.7194C9.51663 10.1569 7.50913 10.3046 7.50913 10.3046C6.32231 11.2292 6.72633 14.3447 7.34078 16.9789C7.74481 18.7224 8.24142 20.2549 8.4266 20.8079C8.41398 20.8375 8.39714 20.8712 8.38031 20.9008C7.39971 22.8934 6.86942 24.8142 6.74316 26.8574C7.84161 26.697 10.8676 26.5155 13.136 28.964C13.136 28.964 14.6343 24.9957 18.6745 24.9957C22.7148 24.9957 23.5775 28.964 23.5775 28.964C26.2542 26.7476 29.1371 26.8194 30.1472 26.9249C30.1429 26.8405 30.1345 26.7139 30.1261 26.5872ZM9.22203 19.2164C9.22203 19.2164 7.64801 15.2692 8.05204 13.0149C8.11937 12.635 8.24563 12.3014 8.44344 12.0482C8.44344 12.0482 10.2279 12.2255 13.1066 15.4338C13.1066 15.4338 12.5594 15.6998 11.8271 16.2655C11.8271 16.2655 11.8229 16.2697 11.8187 16.2697C11.0233 16.8818 10.0048 17.8528 9.22203 19.2164ZM15.9011 25.0801C15.8758 25.1308 15.7496 25.1857 15.6065 25.2068C15.4634 25.2279 15.0257 25.2152 14.7774 25.1857C13.8851 25.0675 12.9382 24.7931 12.248 24.4553C11.8608 24.2654 11.583 24.0754 11.3768 23.8685L11.259 23.7461L11.2464 23.5857C11.2253 23.3071 11.2295 22.868 11.2632 22.7118C11.2842 22.581 11.3305 22.4543 11.3937 22.3403C11.4273 22.2981 11.4273 22.2981 11.5788 22.2981C11.764 22.2981 11.9197 22.3277 12.1723 22.4079C12.6899 22.5683 13.4601 22.9567 14.3986 23.5224C15.173 23.9867 15.4634 24.2147 15.6864 24.5271C15.8379 24.7213 15.9389 24.9957 15.9011 25.0801ZM25.8165 23.6828C25.8039 23.7503 25.6061 23.953 25.4083 24.1007C24.8275 24.5271 23.788 24.9239 22.7316 25.1139C22.1298 25.2237 21.528 25.2405 21.347 25.1519C21.2291 25.0928 21.2123 25.0463 21.2544 24.8944C21.3428 24.5778 21.629 24.2316 22.0751 23.9065C22.3023 23.7419 23.224 23.1804 23.6533 22.944C24.3603 22.5556 24.9327 22.3234 25.3199 22.2686C25.4419 22.2517 25.5892 22.2475 25.6355 22.2686C25.7113 22.2981 25.7955 22.5219 25.8291 22.792C25.846 22.9356 25.8376 23.5688 25.8165 23.6828ZM25.1179 16.2655L25.1095 16.2613C24.4024 15.6956 23.8721 15.4296 23.8721 15.4296C26.654 12.2212 28.3753 12.0439 28.3753 12.0439C28.5647 12.3014 28.6868 12.6307 28.7541 13.0107C29.1455 15.265 27.6262 19.2164 27.6262 19.2164C26.9907 18.0808 26.1364 17.076 25.1179 16.2655Z" fill="#FFA409"/>
<path d="M28.7583 13.0107C28.43 12.9685 26.8771 12.96 25.1179 16.2655L25.1095 16.2613C24.4024 15.6956 23.8721 15.4296 23.8721 15.4296C26.654 12.2213 28.3753 12.0439 28.3753 12.0439C28.5689 12.3015 28.691 12.6307 28.7583 13.0107Z" fill="#FF9300"/>
<path d="M27.6304 19.2164C26.9907 18.0766 26.1405 17.0761 25.1179 16.2655C26.8771 12.96 28.4258 12.9685 28.7583 13.0107C29.1497 15.2692 27.6304 19.2164 27.6304 19.2164Z" fill="#FF8300"/>
<path d="M28.8214 13.0233C28.8004 13.0191 28.7793 13.0149 28.7583 13.0107L28.8214 13.0233Z" fill="#FF8300"/>
<path d="M13.1065 15.4296C13.1065 15.4296 12.5594 15.6956 11.8271 16.2613C11.8271 16.2613 11.8229 16.2655 11.8187 16.2655C9.99637 12.9558 8.3929 12.9685 8.04779 13.0107C8.11513 12.6307 8.24139 12.2972 8.43919 12.0439C8.4434 12.0439 10.2278 12.2213 13.1065 15.4296Z" fill="#FF9300"/>
<path d="M11.8229 16.2655C11.0232 16.8819 10.0048 17.8486 9.22197 19.2164C9.22197 19.2164 7.64795 15.2692 8.05198 13.0107C8.39287 12.9685 10.0006 12.96 11.8229 16.2655Z" fill="#FF8300"/>
<path d="M8.05202 13.0107C8.03097 13.0149 8.00572 13.0191 7.98468 13.0233L8.05202 13.0107Z" fill="#FF8300"/>
<path d="M23.3713 21.4074C23.3713 21.4074 22.0246 21.4918 22.1929 20.4364C22.3613 19.381 23.4134 19.2544 23.708 19.2966C24.0026 19.3388 25.181 19.7609 24.9706 20.6475C24.7601 21.534 24.4655 21.3651 24.2972 21.4074C24.1289 21.4496 23.3713 21.4074 23.3713 21.4074Z" fill="white"/>
<path d="M13.439 21.4074C13.439 21.4074 12.0923 21.4918 12.2606 20.4364C12.4289 19.381 13.4811 19.2544 13.7757 19.2966C14.0703 19.3388 15.2487 19.7609 15.0383 20.6475C14.8278 21.534 14.5332 21.3651 14.3649 21.4074C14.1965 21.4496 13.439 21.4074 13.439 21.4074Z" fill="white"/>
<path d="M32.5 15C36.6421 15 40 11.6421 40 7.5C40 3.35786 36.6421 0 32.5 0C28.3579 0 25 3.35786 25 7.5C25 11.6421 28.3579 15 32.5 15Z" fill="black"/>
<path fill-rule="evenodd" clip-rule="evenodd" d="M32.9 1.50002L36.5 7.5L32.6 9.28829L28.7963 7.6L32.3 1.50002L32.4 1.40002H32.5H32.6H32.7H32.8L32.9 1.50002ZM32.5 10.5L36.5 8.5L32.7 13.6C32.7 13.7 32.6 13.7 32.6 13.7H32.5H32.4L32.3 13.6L28.5 8.5L32.5 10.5Z" fill="white"/>
</g>
<defs>
<clipPath id="clip0_416_4371">
<rect width="40" height="40" fill="white"/>
</clipPath>
</defs>
</svg>
